%TF.GenerationSoftware,KiCad,Pcbnew,6.0.0-d3dd2cf0fa~116~ubuntu21.10.1*%
%TF.CreationDate,2021-12-31T19:25:48-08:00*%
%TF.ProjectId,macropad-test1,6d616372-6f70-4616-942d-74657374312e,rev?*%
%TF.SameCoordinates,Original*%
%TF.FileFunction,Legend,Bot*%
%TF.FilePolarity,Positive*%
%FSLAX46Y46*%
G04 Gerber Fmt 4.6, Leading zero omitted, Abs format (unit mm)*
G04 Created by KiCad (PCBNEW 6.0.0-d3dd2cf0fa~116~ubuntu21.10.1) date 2021-12-31 19:25:48*
%MOMM*%
%LPD*%
G01*
G04 APERTURE LIST*
%ADD10C,0.150000*%
G04 APERTURE END LIST*
D10*
%TO.C,SW1*%
X46333333Y-35149761D02*
X46190476Y-35197380D01*
X45952380Y-35197380D01*
X45857142Y-35149761D01*
X45809523Y-35102142D01*
X45761904Y-35006904D01*
X45761904Y-34911666D01*
X45809523Y-34816428D01*
X45857142Y-34768809D01*
X45952380Y-34721190D01*
X46142857Y-34673571D01*
X46238095Y-34625952D01*
X46285714Y-34578333D01*
X46333333Y-34483095D01*
X46333333Y-34387857D01*
X46285714Y-34292619D01*
X46238095Y-34245000D01*
X46142857Y-34197380D01*
X45904761Y-34197380D01*
X45761904Y-34245000D01*
X45428571Y-34197380D02*
X45190476Y-35197380D01*
X45000000Y-34483095D01*
X44809523Y-35197380D01*
X44571428Y-34197380D01*
X43666666Y-35197380D02*
X44238095Y-35197380D01*
X43952380Y-35197380D02*
X43952380Y-34197380D01*
X44047619Y-34340238D01*
X44142857Y-34435476D01*
X44238095Y-34483095D01*
%TO.C,SW2*%
X46333333Y-53564761D02*
X46190476Y-53612380D01*
X45952380Y-53612380D01*
X45857142Y-53564761D01*
X45809523Y-53517142D01*
X45761904Y-53421904D01*
X45761904Y-53326666D01*
X45809523Y-53231428D01*
X45857142Y-53183809D01*
X45952380Y-53136190D01*
X46142857Y-53088571D01*
X46238095Y-53040952D01*
X46285714Y-52993333D01*
X46333333Y-52898095D01*
X46333333Y-52802857D01*
X46285714Y-52707619D01*
X46238095Y-52660000D01*
X46142857Y-52612380D01*
X45904761Y-52612380D01*
X45761904Y-52660000D01*
X45428571Y-52612380D02*
X45190476Y-53612380D01*
X45000000Y-52898095D01*
X44809523Y-53612380D01*
X44571428Y-52612380D01*
X44238095Y-52707619D02*
X44190476Y-52660000D01*
X44095238Y-52612380D01*
X43857142Y-52612380D01*
X43761904Y-52660000D01*
X43714285Y-52707619D01*
X43666666Y-52802857D01*
X43666666Y-52898095D01*
X43714285Y-53040952D01*
X44285714Y-53612380D01*
X43666666Y-53612380D01*
%TO.C,SW3*%
X46333333Y-72614761D02*
X46190476Y-72662380D01*
X45952380Y-72662380D01*
X45857142Y-72614761D01*
X45809523Y-72567142D01*
X45761904Y-72471904D01*
X45761904Y-72376666D01*
X45809523Y-72281428D01*
X45857142Y-72233809D01*
X45952380Y-72186190D01*
X46142857Y-72138571D01*
X46238095Y-72090952D01*
X46285714Y-72043333D01*
X46333333Y-71948095D01*
X46333333Y-71852857D01*
X46285714Y-71757619D01*
X46238095Y-71710000D01*
X46142857Y-71662380D01*
X45904761Y-71662380D01*
X45761904Y-71710000D01*
X45428571Y-71662380D02*
X45190476Y-72662380D01*
X45000000Y-71948095D01*
X44809523Y-72662380D01*
X44571428Y-71662380D01*
X44285714Y-71662380D02*
X43666666Y-71662380D01*
X44000000Y-72043333D01*
X43857142Y-72043333D01*
X43761904Y-72090952D01*
X43714285Y-72138571D01*
X43666666Y-72233809D01*
X43666666Y-72471904D01*
X43714285Y-72567142D01*
X43761904Y-72614761D01*
X43857142Y-72662380D01*
X44142857Y-72662380D01*
X44238095Y-72614761D01*
X44285714Y-72567142D01*
%TO.C,SW4*%
X46333333Y-92299761D02*
X46190476Y-92347380D01*
X45952380Y-92347380D01*
X45857142Y-92299761D01*
X45809523Y-92252142D01*
X45761904Y-92156904D01*
X45761904Y-92061666D01*
X45809523Y-91966428D01*
X45857142Y-91918809D01*
X45952380Y-91871190D01*
X46142857Y-91823571D01*
X46238095Y-91775952D01*
X46285714Y-91728333D01*
X46333333Y-91633095D01*
X46333333Y-91537857D01*
X46285714Y-91442619D01*
X46238095Y-91395000D01*
X46142857Y-91347380D01*
X45904761Y-91347380D01*
X45761904Y-91395000D01*
X45428571Y-91347380D02*
X45190476Y-92347380D01*
X45000000Y-91633095D01*
X44809523Y-92347380D01*
X44571428Y-91347380D01*
X43761904Y-91680714D02*
X43761904Y-92347380D01*
X44000000Y-91299761D02*
X44238095Y-92014047D01*
X43619047Y-92014047D01*
%TO.C,SW1*%
X38650000Y-38555000D02*
X38650000Y-38936000D01*
X42535838Y-42365000D02*
X40809000Y-42365000D01*
X38650000Y-41984000D02*
X38650000Y-42365000D01*
X39031000Y-42365000D02*
X38650000Y-42365000D01*
X50080000Y-40460000D02*
X45000000Y-40460000D01*
X50080000Y-36015000D02*
X50080000Y-36396000D01*
X41190000Y-36015000D02*
X50080000Y-36015000D01*
X50080000Y-39444000D02*
X50080000Y-40460000D01*
X45000000Y-40459999D02*
G75*
G03*
X42535838Y-42383960I0J-2540000D01*
G01*
X41190000Y-36015000D02*
G75*
G03*
X38650000Y-38555000I1J-2540001D01*
G01*
%TO.C,SW2*%
X38650000Y-60399000D02*
X38650000Y-60780000D01*
X38650000Y-56970000D02*
X38650000Y-57351000D01*
X50080000Y-57859000D02*
X50080000Y-58875000D01*
X39031000Y-60780000D02*
X38650000Y-60780000D01*
X50080000Y-54430000D02*
X50080000Y-54811000D01*
X41190000Y-54430000D02*
X50080000Y-54430000D01*
X42535838Y-60780000D02*
X40809000Y-60780000D01*
X50080000Y-58875000D02*
X45000000Y-58875000D01*
X41190000Y-54430000D02*
G75*
G03*
X38650000Y-56970000I1J-2540001D01*
G01*
X45000000Y-58874999D02*
G75*
G03*
X42535838Y-60798960I0J-2540000D01*
G01*
%TO.C,SW3*%
X50080000Y-77925000D02*
X45000000Y-77925000D01*
X50080000Y-76909000D02*
X50080000Y-77925000D01*
X50080000Y-73480000D02*
X50080000Y-73861000D01*
X38650000Y-76020000D02*
X38650000Y-76401000D01*
X41190000Y-73480000D02*
X50080000Y-73480000D01*
X42535838Y-79830000D02*
X40809000Y-79830000D01*
X39031000Y-79830000D02*
X38650000Y-79830000D01*
X38650000Y-79449000D02*
X38650000Y-79830000D01*
X41190000Y-73480000D02*
G75*
G03*
X38650000Y-76020000I1J-2540001D01*
G01*
X45000000Y-77924999D02*
G75*
G03*
X42535838Y-79848960I0J-2540000D01*
G01*
%TO.C,SW4*%
X42535838Y-99515000D02*
X40809000Y-99515000D01*
X38650000Y-95705000D02*
X38650000Y-96086000D01*
X50080000Y-93165000D02*
X50080000Y-93546000D01*
X38650000Y-99134000D02*
X38650000Y-99515000D01*
X41190000Y-93165000D02*
X50080000Y-93165000D01*
X39031000Y-99515000D02*
X38650000Y-99515000D01*
X50080000Y-97610000D02*
X45000000Y-97610000D01*
X50080000Y-96594000D02*
X50080000Y-97610000D01*
X45000000Y-97609999D02*
G75*
G03*
X42535838Y-99533960I0J-2540000D01*
G01*
X41190000Y-93165000D02*
G75*
G03*
X38650000Y-95705000I1J-2540001D01*
G01*
%TD*%
M02*
