M48
; DRILL file {KiCad 6.0.0-d3dd2cf0fa~116~ubuntu21.10.1} date Fri Dec 31 19:26:25 2021
; FORMAT={-:-/ absolute / inch / decimal}
; #@! TF.CreationDate,2021-12-31T19:26:25-08:00
; #@! TF.GenerationSoftware,Kicad,Pcbnew,6.0.0-d3dd2cf0fa~116~ubuntu21.10.1
; #@! TF.FileFunction,MixedPlating,1,2
FMAT,2
INCH
; #@! TA.AperFunction,Plated,PTH,ComponentDrill
T1C0.0157
; #@! TA.AperFunction,Plated,PTH,ComponentDrill
T2C0.0394
; #@! TA.AperFunction,Plated,PTH,ComponentDrill
T3C0.0866
; #@! TA.AperFunction,NonPlated,NPTH,ComponentDrill
T4C0.0670
; #@! TA.AperFunction,NonPlated,NPTH,ComponentDrill
T5C0.1181
; #@! TA.AperFunction,NonPlated,NPTH,ComponentDrill
T6C0.1570
%
G90
G05
T1
X1.1161Y-1.1811
X1.1161Y-4.3307
X1.1352Y-1.1352
X1.1352Y-1.227
X1.1352Y-4.2848
X1.1352Y-4.3766
X1.1811Y-1.1161
X1.1811Y-1.2461
X1.1811Y-4.2657
X1.1811Y-4.3957
X1.227Y-1.1352
X1.227Y-1.227
X1.227Y-4.2848
X1.227Y-4.3766
X1.2461Y-1.1811
X1.2461Y-4.3307
X2.2972Y-1.1811
X2.2972Y-4.3307
X2.3163Y-1.1352
X2.3163Y-1.227
X2.3163Y-4.2848
X2.3163Y-4.3766
X2.3622Y-1.1161
X2.3622Y-1.2461
X2.3622Y-4.2657
X2.3622Y-4.3957
X2.4081Y-1.1352
X2.4081Y-1.227
X2.4081Y-4.2848
X2.4081Y-4.3766
X2.4272Y-1.1811
X2.4272Y-4.3307
T2
X1.5811Y-1.1693
X1.6811Y-1.1693
X1.7811Y-1.1693
X1.8811Y-1.1693
X1.9811Y-1.1693
T3
X1.1811Y-1.1811
X1.1811Y-4.3307
X2.3622Y-1.1811
X2.3622Y-4.3307
T4
X1.5717Y-1.6929
X1.5717Y-2.4179
X1.5717Y-3.1679
X1.5717Y-3.9429
X1.9717Y-1.6929
X1.9717Y-2.4179
X1.9717Y-3.1679
X1.9717Y-3.9429
T5
X1.6217Y-1.5929
X1.6217Y-2.3179
X1.6217Y-3.0679
X1.6217Y-3.8429
X1.8717Y-1.4929
X1.8717Y-2.2179
X1.8717Y-2.9679
X1.8717Y-3.7429
T6
X1.7717Y-1.6929
X1.7717Y-2.4179
X1.7717Y-3.1679
X1.7717Y-3.9429
T0
M30
