%TF.GenerationSoftware,KiCad,Pcbnew,6.0.0-d3dd2cf0fa~116~ubuntu21.10.1*%
%TF.CreationDate,2021-12-31T19:25:48-08:00*%
%TF.ProjectId,macropad-test1,6d616372-6f70-4616-942d-74657374312e,rev?*%
%TF.SameCoordinates,Original*%
%TF.FileFunction,Copper,L2,Bot*%
%TF.FilePolarity,Positive*%
%FSLAX46Y46*%
G04 Gerber Fmt 4.6, Leading zero omitted, Abs format (unit mm)*
G04 Created by KiCad (PCBNEW 6.0.0-d3dd2cf0fa~116~ubuntu21.10.1) date 2021-12-31 19:25:48*
%MOMM*%
%LPD*%
G01*
G04 APERTURE LIST*
%TA.AperFunction,ComponentPad*%
%ADD10C,0.700000*%
%TD*%
%TA.AperFunction,ComponentPad*%
%ADD11C,4.400000*%
%TD*%
%TA.AperFunction,ComponentPad*%
%ADD12R,1.700000X1.700000*%
%TD*%
%TA.AperFunction,ComponentPad*%
%ADD13O,1.700000X1.700000*%
%TD*%
%TA.AperFunction,SMDPad,CuDef*%
%ADD14R,2.550000X2.500000*%
%TD*%
%TA.AperFunction,Conductor*%
%ADD15C,0.250000*%
%TD*%
G04 APERTURE END LIST*
D10*
%TO.P,H1,1*%
%TO.N,GND*%
X28833274Y-28833274D03*
X31166726Y-28833274D03*
X28833274Y-31166726D03*
X30000000Y-28350000D03*
X28350000Y-30000000D03*
X31650000Y-30000000D03*
D11*
X30000000Y-30000000D03*
D10*
X31166726Y-31166726D03*
X30000000Y-31650000D03*
%TD*%
%TO.P,H2,1*%
%TO.N,GND*%
X28350000Y-110000000D03*
X30000000Y-111650000D03*
X28833274Y-108833274D03*
X30000000Y-108350000D03*
X31166726Y-108833274D03*
X31166726Y-111166726D03*
D11*
X30000000Y-110000000D03*
D10*
X31650000Y-110000000D03*
X28833274Y-111166726D03*
%TD*%
%TO.P,H4,1*%
%TO.N,GND*%
X61166726Y-111166726D03*
D11*
X60000000Y-110000000D03*
D10*
X61650000Y-110000000D03*
X58833274Y-108833274D03*
X60000000Y-111650000D03*
X58350000Y-110000000D03*
X61166726Y-108833274D03*
X58833274Y-111166726D03*
X60000000Y-108350000D03*
%TD*%
%TO.P,H3,1*%
%TO.N,GND*%
X60000000Y-31650000D03*
D11*
X60000000Y-30000000D03*
D10*
X61650000Y-30000000D03*
X60000000Y-28350000D03*
X58833274Y-31166726D03*
X58350000Y-30000000D03*
X61166726Y-28833274D03*
X61166726Y-31166726D03*
X58833274Y-28833274D03*
%TD*%
D12*
%TO.P,J1,1*%
%TO.N,GND*%
X40160000Y-29700000D03*
D13*
%TO.P,J1,2*%
%TO.N,Net-(J1-Pad2)*%
X42700000Y-29700000D03*
%TO.P,J1,3*%
%TO.N,Net-(J1-Pad3)*%
X45240000Y-29700000D03*
%TO.P,J1,4*%
%TO.N,Net-(J1-Pad4)*%
X47780000Y-29700000D03*
%TO.P,J1,5*%
%TO.N,Net-(J1-Pad5)*%
X50320000Y-29700000D03*
%TD*%
D14*
%TO.P,SW1,1*%
%TO.N,Net-(J1-Pad5)*%
X51290000Y-37920000D03*
%TO.P,SW1,2*%
%TO.N,GND*%
X37440000Y-40460000D03*
%TD*%
%TO.P,SW2,1*%
%TO.N,Net-(J1-Pad4)*%
X51290000Y-56335000D03*
%TO.P,SW2,2*%
%TO.N,GND*%
X37440000Y-58875000D03*
%TD*%
%TO.P,SW3,1*%
%TO.N,Net-(J1-Pad3)*%
X51290000Y-75385000D03*
%TO.P,SW3,2*%
%TO.N,GND*%
X37440000Y-77925000D03*
%TD*%
%TO.P,SW4,1*%
%TO.N,Net-(J1-Pad2)*%
X51290000Y-95070000D03*
%TO.P,SW4,2*%
%TO.N,GND*%
X37440000Y-97610000D03*
%TD*%
D15*
%TO.N,Net-(J1-Pad5)*%
X51290000Y-30670000D02*
X50320000Y-29700000D01*
X51290000Y-37920000D02*
X51290000Y-30670000D01*
%TO.N,Net-(J1-Pad4)*%
X48110974Y-40000000D02*
X49414521Y-38696453D01*
X49414521Y-38696453D02*
X49414521Y-31334521D01*
X48110974Y-53125132D02*
X48110974Y-40000000D01*
X49414521Y-31334521D02*
X47780000Y-29700000D01*
X51305421Y-56319579D02*
X48110974Y-53125132D01*
X51290000Y-56335000D02*
X51305421Y-56319579D01*
%TO.N,Net-(J1-Pad3)*%
X46209521Y-58209521D02*
X45000000Y-57000000D01*
X47368421Y-41368421D02*
X45240000Y-39240000D01*
X45000000Y-47000000D02*
X47368421Y-44631579D01*
X48607529Y-58209521D02*
X46209521Y-58209521D01*
X45240000Y-39240000D02*
X45240000Y-29700000D01*
X51305421Y-75369579D02*
X51305421Y-60907413D01*
X51290000Y-75385000D02*
X51305421Y-75369579D01*
X47368421Y-44631579D02*
X47368421Y-41368421D01*
X45000000Y-57000000D02*
X45000000Y-47000000D01*
X51305421Y-60907413D02*
X48607529Y-58209521D01*
%TO.N,Net-(J1-Pad2)*%
X41966453Y-85746453D02*
X41966453Y-79799521D01*
X43064521Y-48064521D02*
X38694579Y-43694579D01*
X51290000Y-95070000D02*
X41966453Y-85746453D01*
X41966453Y-79799521D02*
X43064521Y-78701453D01*
X38694579Y-42305421D02*
X39315479Y-41684521D01*
X38694579Y-43694579D02*
X38694579Y-42305421D01*
X39315479Y-33084521D02*
X42700000Y-29700000D01*
X41145421Y-61922587D02*
X43064521Y-60003487D01*
X43064521Y-60003487D02*
X43064521Y-48064521D01*
X43064521Y-63841687D02*
X41145421Y-61922587D01*
X43064521Y-78701453D02*
X43064521Y-63841687D01*
X39315479Y-41684521D02*
X39315479Y-33084521D01*
%TD*%
%TA.AperFunction,Conductor*%
%TO.N,GND*%
G36*
X63434121Y-26528002D02*
G01*
X63480614Y-26581658D01*
X63492000Y-26634000D01*
X63492000Y-113366000D01*
X63471998Y-113434121D01*
X63418342Y-113480614D01*
X63366000Y-113492000D01*
X26634000Y-113492000D01*
X26565879Y-113471998D01*
X26519386Y-113418342D01*
X26508000Y-113366000D01*
X26508000Y-112086423D01*
X28278703Y-112086423D01*
X28286227Y-112096854D01*
X28425483Y-112209020D01*
X28431657Y-112213408D01*
X28702271Y-112382178D01*
X28708931Y-112385794D01*
X28997852Y-112520827D01*
X29004905Y-112523620D01*
X29307970Y-112622970D01*
X29315282Y-112624888D01*
X29628092Y-112687109D01*
X29635590Y-112688137D01*
X29953610Y-112712328D01*
X29961173Y-112712446D01*
X30279785Y-112698257D01*
X30287326Y-112697465D01*
X30601924Y-112645101D01*
X30609302Y-112643411D01*
X30915355Y-112553625D01*
X30922450Y-112551071D01*
X31215496Y-112425169D01*
X31222263Y-112421765D01*
X31498042Y-112261580D01*
X31504349Y-112257390D01*
X31714305Y-112098889D01*
X31722761Y-112087496D01*
X31722172Y-112086423D01*
X58278703Y-112086423D01*
X58286227Y-112096854D01*
X58425483Y-112209020D01*
X58431657Y-112213408D01*
X58702271Y-112382178D01*
X58708931Y-112385794D01*
X58997852Y-112520827D01*
X59004905Y-112523620D01*
X59307970Y-112622970D01*
X59315282Y-112624888D01*
X59628092Y-112687109D01*
X59635590Y-112688137D01*
X59953610Y-112712328D01*
X59961173Y-112712446D01*
X60279785Y-112698257D01*
X60287326Y-112697465D01*
X60601924Y-112645101D01*
X60609302Y-112643411D01*
X60915355Y-112553625D01*
X60922450Y-112551071D01*
X61215496Y-112425169D01*
X61222263Y-112421765D01*
X61498042Y-112261580D01*
X61504349Y-112257390D01*
X61714305Y-112098889D01*
X61722761Y-112087496D01*
X61716045Y-112075256D01*
X60012810Y-110372020D01*
X59998869Y-110364408D01*
X59997034Y-110364539D01*
X59990420Y-110368790D01*
X58285818Y-112073393D01*
X58278703Y-112086423D01*
X31722172Y-112086423D01*
X31716045Y-112075256D01*
X30012810Y-110372020D01*
X29998869Y-110364408D01*
X29997034Y-110364539D01*
X29990420Y-110368790D01*
X28285818Y-112073393D01*
X28278703Y-112086423D01*
X26508000Y-112086423D01*
X26508000Y-109975383D01*
X27287388Y-109975383D01*
X27303245Y-110293914D01*
X27304076Y-110301443D01*
X27358085Y-110615759D01*
X27359818Y-110623146D01*
X27451196Y-110928695D01*
X27453799Y-110935808D01*
X27581227Y-111228173D01*
X27584669Y-111234929D01*
X27746296Y-111509865D01*
X27750519Y-111516150D01*
X27901463Y-111713934D01*
X27912989Y-111722396D01*
X27925054Y-111715735D01*
X29627980Y-110012810D01*
X29634357Y-110001131D01*
X30364408Y-110001131D01*
X30364539Y-110002966D01*
X30368790Y-110009580D01*
X32073285Y-111714074D01*
X32086408Y-111721240D01*
X32096709Y-111713851D01*
X32200751Y-111586055D01*
X32205164Y-111579914D01*
X32375349Y-111310187D01*
X32379005Y-111303536D01*
X32515544Y-111015335D01*
X32518375Y-111008295D01*
X32619306Y-110705767D01*
X32621270Y-110698433D01*
X32685122Y-110385989D01*
X32686194Y-110378465D01*
X32712173Y-110059051D01*
X32712378Y-110054576D01*
X32712927Y-110002221D01*
X32712817Y-109997789D01*
X32711466Y-109975383D01*
X57287388Y-109975383D01*
X57303245Y-110293914D01*
X57304076Y-110301443D01*
X57358085Y-110615759D01*
X57359818Y-110623146D01*
X57451196Y-110928695D01*
X57453799Y-110935808D01*
X57581227Y-111228173D01*
X57584669Y-111234929D01*
X57746296Y-111509865D01*
X57750519Y-111516150D01*
X57901463Y-111713934D01*
X57912989Y-111722396D01*
X57925054Y-111715735D01*
X59627980Y-110012810D01*
X59634357Y-110001131D01*
X60364408Y-110001131D01*
X60364539Y-110002966D01*
X60368790Y-110009580D01*
X62073285Y-111714074D01*
X62086408Y-111721240D01*
X62096709Y-111713851D01*
X62200751Y-111586055D01*
X62205164Y-111579914D01*
X62375349Y-111310187D01*
X62379005Y-111303536D01*
X62515544Y-111015335D01*
X62518375Y-111008295D01*
X62619306Y-110705767D01*
X62621270Y-110698433D01*
X62685122Y-110385989D01*
X62686194Y-110378465D01*
X62712173Y-110059051D01*
X62712378Y-110054576D01*
X62712927Y-110002221D01*
X62712817Y-109997789D01*
X62693529Y-109677853D01*
X62692621Y-109670351D01*
X62635319Y-109356593D01*
X62633518Y-109349260D01*
X62538935Y-109044655D01*
X62536263Y-109037583D01*
X62405781Y-108746570D01*
X62402264Y-108739843D01*
X62237771Y-108466621D01*
X62233481Y-108460377D01*
X62097991Y-108286647D01*
X62086199Y-108278178D01*
X62074486Y-108284725D01*
X60372020Y-109987190D01*
X60364408Y-110001131D01*
X59634357Y-110001131D01*
X59635592Y-109998869D01*
X59635461Y-109997034D01*
X59631210Y-109990420D01*
X57926445Y-108285656D01*
X57913510Y-108278592D01*
X57902949Y-108286252D01*
X57782766Y-108437072D01*
X57778410Y-108443270D01*
X57611059Y-108714764D01*
X57607479Y-108721440D01*
X57473956Y-109011074D01*
X57471206Y-109018125D01*
X57373444Y-109321708D01*
X57371561Y-109329041D01*
X57310979Y-109642170D01*
X57309992Y-109649670D01*
X57287467Y-109967802D01*
X57287388Y-109975383D01*
X32711466Y-109975383D01*
X32693529Y-109677853D01*
X32692621Y-109670351D01*
X32635319Y-109356593D01*
X32633518Y-109349260D01*
X32538935Y-109044655D01*
X32536263Y-109037583D01*
X32405781Y-108746570D01*
X32402264Y-108739843D01*
X32237771Y-108466621D01*
X32233481Y-108460377D01*
X32097991Y-108286647D01*
X32086199Y-108278178D01*
X32074486Y-108284725D01*
X30372020Y-109987190D01*
X30364408Y-110001131D01*
X29634357Y-110001131D01*
X29635592Y-109998869D01*
X29635461Y-109997034D01*
X29631210Y-109990420D01*
X27926445Y-108285656D01*
X27913510Y-108278592D01*
X27902949Y-108286252D01*
X27782766Y-108437072D01*
X27778410Y-108443270D01*
X27611059Y-108714764D01*
X27607479Y-108721440D01*
X27473956Y-109011074D01*
X27471206Y-109018125D01*
X27373444Y-109321708D01*
X27371561Y-109329041D01*
X27310979Y-109642170D01*
X27309992Y-109649670D01*
X27287467Y-109967802D01*
X27287388Y-109975383D01*
X26508000Y-109975383D01*
X26508000Y-107913423D01*
X28277917Y-107913423D01*
X28284520Y-107925309D01*
X29987190Y-109627980D01*
X30001131Y-109635592D01*
X30002966Y-109635461D01*
X30009580Y-109631210D01*
X31714559Y-107926230D01*
X31721552Y-107913423D01*
X58277917Y-107913423D01*
X58284520Y-107925309D01*
X59987190Y-109627980D01*
X60001131Y-109635592D01*
X60002966Y-109635461D01*
X60009580Y-109631210D01*
X61714559Y-107926230D01*
X61721571Y-107913389D01*
X61713777Y-107902701D01*
X61551298Y-107774613D01*
X61545075Y-107770288D01*
X61272702Y-107604357D01*
X61266025Y-107600822D01*
X60975686Y-107468813D01*
X60968616Y-107466099D01*
X60664537Y-107369932D01*
X60657186Y-107368085D01*
X60343746Y-107309142D01*
X60336237Y-107308194D01*
X60017989Y-107287335D01*
X60010424Y-107287295D01*
X59691964Y-107304821D01*
X59684450Y-107305690D01*
X59370405Y-107361348D01*
X59363044Y-107363115D01*
X59057980Y-107456092D01*
X59050860Y-107458740D01*
X58759182Y-107587690D01*
X58752445Y-107591167D01*
X58478355Y-107754233D01*
X58472091Y-107758490D01*
X58286385Y-107901762D01*
X58277917Y-107913423D01*
X31721552Y-107913423D01*
X31721571Y-107913389D01*
X31713777Y-107902701D01*
X31551298Y-107774613D01*
X31545075Y-107770288D01*
X31272702Y-107604357D01*
X31266025Y-107600822D01*
X30975686Y-107468813D01*
X30968616Y-107466099D01*
X30664537Y-107369932D01*
X30657186Y-107368085D01*
X30343746Y-107309142D01*
X30336237Y-107308194D01*
X30017989Y-107287335D01*
X30010424Y-107287295D01*
X29691964Y-107304821D01*
X29684450Y-107305690D01*
X29370405Y-107361348D01*
X29363044Y-107363115D01*
X29057980Y-107456092D01*
X29050860Y-107458740D01*
X28759182Y-107587690D01*
X28752445Y-107591167D01*
X28478355Y-107754233D01*
X28472091Y-107758490D01*
X28286385Y-107901762D01*
X28277917Y-107913423D01*
X26508000Y-107913423D01*
X26508000Y-98904669D01*
X35657001Y-98904669D01*
X35657371Y-98911490D01*
X35662895Y-98962352D01*
X35666521Y-98977604D01*
X35711676Y-99098054D01*
X35720214Y-99113649D01*
X35796715Y-99215724D01*
X35809276Y-99228285D01*
X35911351Y-99304786D01*
X35926946Y-99313324D01*
X36047394Y-99358478D01*
X36062649Y-99362105D01*
X36113514Y-99367631D01*
X36120328Y-99368000D01*
X37167885Y-99368000D01*
X37183124Y-99363525D01*
X37184329Y-99362135D01*
X37186000Y-99354452D01*
X37186000Y-99349884D01*
X37694000Y-99349884D01*
X37698475Y-99365123D01*
X37699865Y-99366328D01*
X37707548Y-99367999D01*
X38587131Y-99367999D01*
X38655252Y-99388001D01*
X38701745Y-99441657D01*
X38711849Y-99511931D01*
X38699448Y-99551103D01*
X38658344Y-99631949D01*
X38658342Y-99631954D01*
X38655923Y-99636712D01*
X38643620Y-99676335D01*
X38589095Y-99851930D01*
X38589094Y-99851936D01*
X38587511Y-99857033D01*
X38557200Y-100085732D01*
X38565854Y-100316268D01*
X38613228Y-100542050D01*
X38615186Y-100547009D01*
X38615187Y-100547011D01*
X38643945Y-100619830D01*
X38697967Y-100756622D01*
X38817647Y-100953849D01*
X38821144Y-100957879D01*
X38907768Y-101057704D01*
X38968847Y-101128092D01*
X38972978Y-101131479D01*
X39143115Y-101270984D01*
X39143121Y-101270988D01*
X39147243Y-101274368D01*
X39347735Y-101388494D01*
X39352751Y-101390315D01*
X39352756Y-101390317D01*
X39559575Y-101465389D01*
X39559579Y-101465390D01*
X39564590Y-101467209D01*
X39569839Y-101468158D01*
X39569842Y-101468159D01*
X39787523Y-101507522D01*
X39787530Y-101507523D01*
X39791607Y-101508260D01*
X39809344Y-101509096D01*
X39814292Y-101509330D01*
X39814299Y-101509330D01*
X39815780Y-101509400D01*
X39977925Y-101509400D01*
X40044881Y-101503719D01*
X40144562Y-101495261D01*
X40144566Y-101495260D01*
X40149873Y-101494810D01*
X40155028Y-101493472D01*
X40155034Y-101493471D01*
X40368003Y-101438195D01*
X40368007Y-101438194D01*
X40373172Y-101436853D01*
X40378038Y-101434661D01*
X40378041Y-101434660D01*
X40578649Y-101344293D01*
X40583515Y-101342101D01*
X40587935Y-101339125D01*
X40587939Y-101339123D01*
X40763333Y-101221039D01*
X40774885Y-101213262D01*
X40941812Y-101054022D01*
X41019738Y-100949286D01*
X41076337Y-100873214D01*
X41076339Y-100873211D01*
X41079521Y-100868934D01*
X41134305Y-100761183D01*
X41181658Y-100668046D01*
X41181658Y-100668045D01*
X41184077Y-100663288D01*
X41223343Y-100536831D01*
X41250905Y-100448070D01*
X41250906Y-100448064D01*
X41252489Y-100442967D01*
X41282800Y-100214268D01*
X41274146Y-99983732D01*
X41228104Y-99764298D01*
X41233691Y-99693523D01*
X41276656Y-99637003D01*
X41342629Y-99612732D01*
X41387257Y-99609612D01*
X41465828Y-99604118D01*
X41465834Y-99604117D01*
X41470212Y-99603811D01*
X41744970Y-99545409D01*
X41749099Y-99543906D01*
X41749103Y-99543905D01*
X42004781Y-99450846D01*
X42004785Y-99450844D01*
X42008926Y-99449337D01*
X42256942Y-99317464D01*
X42262641Y-99313324D01*
X42441327Y-99183501D01*
X42508195Y-99159642D01*
X42577347Y-99175723D01*
X42626827Y-99226637D01*
X42640926Y-99296220D01*
X42632540Y-99331820D01*
X42615370Y-99375187D01*
X42537064Y-99680170D01*
X42497600Y-99992562D01*
X42497600Y-100307438D01*
X42537064Y-100619830D01*
X42615370Y-100924813D01*
X42731284Y-101217577D01*
X42733186Y-101221036D01*
X42733187Y-101221039D01*
X42867520Y-101465389D01*
X42882976Y-101493504D01*
X43068055Y-101748244D01*
X43283602Y-101977778D01*
X43526218Y-102178487D01*
X43792076Y-102347206D01*
X43795655Y-102348890D01*
X43795662Y-102348894D01*
X44073394Y-102479584D01*
X44073398Y-102479586D01*
X44076984Y-102481273D01*
X44376448Y-102578575D01*
X44685746Y-102637577D01*
X44779300Y-102643463D01*
X44919358Y-102652275D01*
X44919374Y-102652276D01*
X44921353Y-102652400D01*
X45078647Y-102652400D01*
X45080626Y-102652276D01*
X45080642Y-102652275D01*
X45220700Y-102643463D01*
X45314254Y-102637577D01*
X45623552Y-102578575D01*
X45923016Y-102481273D01*
X45926602Y-102479586D01*
X45926606Y-102479584D01*
X46204338Y-102348894D01*
X46204345Y-102348890D01*
X46207924Y-102347206D01*
X46473782Y-102178487D01*
X46716398Y-101977778D01*
X46931945Y-101748244D01*
X47117024Y-101493504D01*
X47132481Y-101465389D01*
X47266813Y-101221039D01*
X47266814Y-101221036D01*
X47268716Y-101217577D01*
X47384630Y-100924813D01*
X47462936Y-100619830D01*
X47502400Y-100307438D01*
X47502400Y-100085732D01*
X48717200Y-100085732D01*
X48725854Y-100316268D01*
X48773228Y-100542050D01*
X48775186Y-100547009D01*
X48775187Y-100547011D01*
X48803945Y-100619830D01*
X48857967Y-100756622D01*
X48977647Y-100953849D01*
X48981144Y-100957879D01*
X49067768Y-101057704D01*
X49128847Y-101128092D01*
X49132978Y-101131479D01*
X49303115Y-101270984D01*
X49303121Y-101270988D01*
X49307243Y-101274368D01*
X49507735Y-101388494D01*
X49512751Y-101390315D01*
X49512756Y-101390317D01*
X49719575Y-101465389D01*
X49719579Y-101465390D01*
X49724590Y-101467209D01*
X49729839Y-101468158D01*
X49729842Y-101468159D01*
X49947523Y-101507522D01*
X49947530Y-101507523D01*
X49951607Y-101508260D01*
X49969344Y-101509096D01*
X49974292Y-101509330D01*
X49974299Y-101509330D01*
X49975780Y-101509400D01*
X50137925Y-101509400D01*
X50204881Y-101503719D01*
X50304562Y-101495261D01*
X50304566Y-101495260D01*
X50309873Y-101494810D01*
X50315028Y-101493472D01*
X50315034Y-101493471D01*
X50528003Y-101438195D01*
X50528007Y-101438194D01*
X50533172Y-101436853D01*
X50538038Y-101434661D01*
X50538041Y-101434660D01*
X50738649Y-101344293D01*
X50743515Y-101342101D01*
X50747935Y-101339125D01*
X50747939Y-101339123D01*
X50923333Y-101221039D01*
X50934885Y-101213262D01*
X51101812Y-101054022D01*
X51179738Y-100949286D01*
X51236337Y-100873214D01*
X51236339Y-100873211D01*
X51239521Y-100868934D01*
X51294305Y-100761183D01*
X51341658Y-100668046D01*
X51341658Y-100668045D01*
X51344077Y-100663288D01*
X51383343Y-100536831D01*
X51410905Y-100448070D01*
X51410906Y-100448064D01*
X51412489Y-100442967D01*
X51442800Y-100214268D01*
X51434146Y-99983732D01*
X51386772Y-99757950D01*
X51361329Y-99693523D01*
X51338893Y-99636712D01*
X51302033Y-99543378D01*
X51194597Y-99366328D01*
X51185122Y-99350714D01*
X51185121Y-99350713D01*
X51182353Y-99346151D01*
X51095428Y-99245978D01*
X51034653Y-99175941D01*
X51034651Y-99175939D01*
X51031153Y-99171908D01*
X50941082Y-99098054D01*
X50856885Y-99029016D01*
X50856879Y-99029012D01*
X50852757Y-99025632D01*
X50652265Y-98911506D01*
X50647249Y-98909685D01*
X50647244Y-98909683D01*
X50440425Y-98834611D01*
X50440421Y-98834610D01*
X50435410Y-98832791D01*
X50430161Y-98831842D01*
X50430158Y-98831841D01*
X50212477Y-98792478D01*
X50212470Y-98792477D01*
X50208393Y-98791740D01*
X50190656Y-98790904D01*
X50185708Y-98790670D01*
X50185701Y-98790670D01*
X50184220Y-98790600D01*
X50022075Y-98790600D01*
X49955119Y-98796281D01*
X49855438Y-98804739D01*
X49855434Y-98804740D01*
X49850127Y-98805190D01*
X49844972Y-98806528D01*
X49844966Y-98806529D01*
X49631997Y-98861805D01*
X49631993Y-98861806D01*
X49626828Y-98863147D01*
X49621962Y-98865339D01*
X49621959Y-98865340D01*
X49519474Y-98911506D01*
X49416485Y-98957899D01*
X49412065Y-98960875D01*
X49412061Y-98960877D01*
X49387216Y-98977604D01*
X49225115Y-99086738D01*
X49058188Y-99245978D01*
X49055000Y-99250263D01*
X48964785Y-99371517D01*
X48920479Y-99431066D01*
X48918064Y-99435816D01*
X48863377Y-99543378D01*
X48815923Y-99636712D01*
X48803620Y-99676335D01*
X48749095Y-99851930D01*
X48749094Y-99851936D01*
X48747511Y-99857033D01*
X48717200Y-100085732D01*
X47502400Y-100085732D01*
X47502400Y-99992562D01*
X47462936Y-99680170D01*
X47384630Y-99375187D01*
X47381785Y-99368000D01*
X47308736Y-99183501D01*
X47268716Y-99082423D01*
X47266813Y-99078961D01*
X47118933Y-98809968D01*
X47118931Y-98809965D01*
X47117024Y-98806496D01*
X46931945Y-98551756D01*
X46716398Y-98322222D01*
X46473782Y-98121513D01*
X46207924Y-97952794D01*
X46204345Y-97951110D01*
X46204338Y-97951106D01*
X45926606Y-97820416D01*
X45926602Y-97820414D01*
X45923016Y-97818727D01*
X45623552Y-97721425D01*
X45314254Y-97662423D01*
X45220700Y-97656537D01*
X45080642Y-97647725D01*
X45080626Y-97647724D01*
X45078647Y-97647600D01*
X44921353Y-97647600D01*
X44919374Y-97647724D01*
X44919358Y-97647725D01*
X44779300Y-97656537D01*
X44685746Y-97662423D01*
X44376448Y-97721425D01*
X44076984Y-97818727D01*
X44073398Y-97820414D01*
X44073394Y-97820416D01*
X43795662Y-97951106D01*
X43795655Y-97951110D01*
X43792076Y-97952794D01*
X43526218Y-98121513D01*
X43446249Y-98187669D01*
X43325413Y-98287633D01*
X43260176Y-98315643D01*
X43190151Y-98303936D01*
X43137571Y-98256229D01*
X43119131Y-98187669D01*
X43122841Y-98160066D01*
X43171753Y-97963893D01*
X43171754Y-97963888D01*
X43172817Y-97959624D01*
X43173713Y-97951106D01*
X43201719Y-97684636D01*
X43201719Y-97684633D01*
X43202178Y-97680267D01*
X43201555Y-97662423D01*
X43192529Y-97403939D01*
X43192528Y-97403933D01*
X43192375Y-97399542D01*
X43184698Y-97356000D01*
X43144360Y-97127236D01*
X43143598Y-97122913D01*
X43056797Y-96855765D01*
X43053750Y-96849516D01*
X42994180Y-96727381D01*
X42933660Y-96603298D01*
X42931205Y-96599659D01*
X42931202Y-96599653D01*
X42821973Y-96437715D01*
X42776585Y-96370424D01*
X42771447Y-96364717D01*
X42591566Y-96164940D01*
X42588629Y-96161678D01*
X42373450Y-95981121D01*
X42135236Y-95832269D01*
X41878625Y-95718018D01*
X41608610Y-95640593D01*
X41604260Y-95639982D01*
X41604257Y-95639981D01*
X41501310Y-95625513D01*
X41330448Y-95601500D01*
X41119854Y-95601500D01*
X41117668Y-95601653D01*
X41117664Y-95601653D01*
X40914173Y-95615882D01*
X40914168Y-95615883D01*
X40909788Y-95616189D01*
X40635030Y-95674591D01*
X40630901Y-95676094D01*
X40630897Y-95676095D01*
X40375219Y-95769154D01*
X40375215Y-95769156D01*
X40371074Y-95770663D01*
X40123058Y-95902536D01*
X40119499Y-95905122D01*
X40119497Y-95905123D01*
X40014895Y-95981121D01*
X39895808Y-96067642D01*
X39892644Y-96070698D01*
X39892641Y-96070700D01*
X39803865Y-96156431D01*
X39693748Y-96262769D01*
X39520812Y-96484118D01*
X39518616Y-96487922D01*
X39518611Y-96487929D01*
X39458118Y-96592707D01*
X39406735Y-96641700D01*
X39337022Y-96655136D01*
X39271111Y-96628750D01*
X39229929Y-96570917D01*
X39222999Y-96529707D01*
X39222999Y-96315331D01*
X39222629Y-96308510D01*
X39217105Y-96257648D01*
X39213479Y-96242396D01*
X39168324Y-96121946D01*
X39159786Y-96106351D01*
X39083285Y-96004276D01*
X39070724Y-95991715D01*
X38968649Y-95915214D01*
X38953054Y-95906676D01*
X38832606Y-95861522D01*
X38817351Y-95857895D01*
X38766486Y-95852369D01*
X38759672Y-95852000D01*
X37712115Y-95852000D01*
X37696876Y-95856475D01*
X37695671Y-95857865D01*
X37694000Y-95865548D01*
X37694000Y-99349884D01*
X37186000Y-99349884D01*
X37186000Y-97882115D01*
X37181525Y-97866876D01*
X37180135Y-97865671D01*
X37172452Y-97864000D01*
X35675116Y-97864000D01*
X35659877Y-97868475D01*
X35658672Y-97869865D01*
X35657001Y-97877548D01*
X35657001Y-98904669D01*
X26508000Y-98904669D01*
X26508000Y-97337885D01*
X35657000Y-97337885D01*
X35661475Y-97353124D01*
X35662865Y-97354329D01*
X35670548Y-97356000D01*
X37167885Y-97356000D01*
X37183124Y-97351525D01*
X37184329Y-97350135D01*
X37186000Y-97342452D01*
X37186000Y-95870116D01*
X37181525Y-95854877D01*
X37180135Y-95853672D01*
X37172452Y-95852001D01*
X36120331Y-95852001D01*
X36113510Y-95852371D01*
X36062648Y-95857895D01*
X36047396Y-95861521D01*
X35926946Y-95906676D01*
X35911351Y-95915214D01*
X35809276Y-95991715D01*
X35796715Y-96004276D01*
X35720214Y-96106351D01*
X35711676Y-96121946D01*
X35666522Y-96242394D01*
X35662895Y-96257649D01*
X35657369Y-96308514D01*
X35657000Y-96315328D01*
X35657000Y-97337885D01*
X26508000Y-97337885D01*
X26508000Y-79219669D01*
X35657001Y-79219669D01*
X35657371Y-79226490D01*
X35662895Y-79277352D01*
X35666521Y-79292604D01*
X35711676Y-79413054D01*
X35720214Y-79428649D01*
X35796715Y-79530724D01*
X35809276Y-79543285D01*
X35911351Y-79619786D01*
X35926946Y-79628324D01*
X36047394Y-79673478D01*
X36062649Y-79677105D01*
X36113514Y-79682631D01*
X36120328Y-79683000D01*
X37167885Y-79683000D01*
X37183124Y-79678525D01*
X37184329Y-79677135D01*
X37186000Y-79669452D01*
X37186000Y-79664884D01*
X37694000Y-79664884D01*
X37698475Y-79680123D01*
X37699865Y-79681328D01*
X37707548Y-79682999D01*
X38587131Y-79682999D01*
X38655252Y-79703001D01*
X38701745Y-79756657D01*
X38711849Y-79826931D01*
X38699448Y-79866103D01*
X38658344Y-79946949D01*
X38658342Y-79946954D01*
X38655923Y-79951712D01*
X38643620Y-79991335D01*
X38589095Y-80166930D01*
X38589094Y-80166936D01*
X38587511Y-80172033D01*
X38557200Y-80400732D01*
X38565854Y-80631268D01*
X38613228Y-80857050D01*
X38615186Y-80862009D01*
X38615187Y-80862011D01*
X38643945Y-80934830D01*
X38697967Y-81071622D01*
X38817647Y-81268849D01*
X38821144Y-81272879D01*
X38907768Y-81372704D01*
X38968847Y-81443092D01*
X38972978Y-81446479D01*
X39143115Y-81585984D01*
X39143121Y-81585988D01*
X39147243Y-81589368D01*
X39347735Y-81703494D01*
X39352751Y-81705315D01*
X39352756Y-81705317D01*
X39559575Y-81780389D01*
X39559579Y-81780390D01*
X39564590Y-81782209D01*
X39569839Y-81783158D01*
X39569842Y-81783159D01*
X39787523Y-81822522D01*
X39787530Y-81822523D01*
X39791607Y-81823260D01*
X39809344Y-81824096D01*
X39814292Y-81824330D01*
X39814299Y-81824330D01*
X39815780Y-81824400D01*
X39977925Y-81824400D01*
X40044881Y-81818719D01*
X40144562Y-81810261D01*
X40144566Y-81810260D01*
X40149873Y-81809810D01*
X40155028Y-81808472D01*
X40155034Y-81808471D01*
X40368003Y-81753195D01*
X40368007Y-81753194D01*
X40373172Y-81751853D01*
X40378038Y-81749661D01*
X40378041Y-81749660D01*
X40578649Y-81659293D01*
X40583515Y-81657101D01*
X40587935Y-81654125D01*
X40587939Y-81654123D01*
X40763333Y-81536039D01*
X40774885Y-81528262D01*
X40941812Y-81369022D01*
X41019738Y-81264286D01*
X41076337Y-81188214D01*
X41076339Y-81188211D01*
X41079521Y-81183934D01*
X41094636Y-81154205D01*
X41143339Y-81102547D01*
X41212239Y-81085421D01*
X41279461Y-81108263D01*
X41323662Y-81163822D01*
X41332953Y-81211310D01*
X41332953Y-85667686D01*
X41332426Y-85678869D01*
X41330751Y-85686362D01*
X41331000Y-85694288D01*
X41331000Y-85694289D01*
X41332891Y-85754439D01*
X41332953Y-85758398D01*
X41332953Y-85786309D01*
X41333450Y-85790243D01*
X41333450Y-85790244D01*
X41333458Y-85790309D01*
X41334391Y-85802146D01*
X41335780Y-85846342D01*
X41341431Y-85865792D01*
X41345440Y-85885153D01*
X41347979Y-85905250D01*
X41350898Y-85912621D01*
X41350898Y-85912623D01*
X41364257Y-85946365D01*
X41368102Y-85957595D01*
X41380435Y-86000046D01*
X41384468Y-86006865D01*
X41384470Y-86006870D01*
X41390746Y-86017481D01*
X41399441Y-86035229D01*
X41406901Y-86054070D01*
X41411563Y-86060486D01*
X41411563Y-86060487D01*
X41432889Y-86089840D01*
X41439405Y-86099760D01*
X41461911Y-86137815D01*
X41476232Y-86152136D01*
X41489072Y-86167169D01*
X41500981Y-86183560D01*
X41507087Y-86188611D01*
X41535058Y-86211751D01*
X41543837Y-86219741D01*
X48267558Y-92943462D01*
X48301584Y-93005774D01*
X48296519Y-93076589D01*
X48253972Y-93133425D01*
X48187452Y-93158236D01*
X48143734Y-93153676D01*
X47958610Y-93100593D01*
X47954260Y-93099982D01*
X47954257Y-93099981D01*
X47851310Y-93085513D01*
X47680448Y-93061500D01*
X47469854Y-93061500D01*
X47467668Y-93061653D01*
X47467664Y-93061653D01*
X47264173Y-93075882D01*
X47264168Y-93075883D01*
X47259788Y-93076189D01*
X46985030Y-93134591D01*
X46980901Y-93136094D01*
X46980897Y-93136095D01*
X46725219Y-93229154D01*
X46725215Y-93229156D01*
X46721074Y-93230663D01*
X46473058Y-93362536D01*
X46469499Y-93365122D01*
X46469497Y-93365123D01*
X46333516Y-93463919D01*
X46245808Y-93527642D01*
X46043748Y-93722769D01*
X45870812Y-93944118D01*
X45868616Y-93947922D01*
X45868611Y-93947929D01*
X45802003Y-94063298D01*
X45730364Y-94187381D01*
X45625138Y-94447824D01*
X45557183Y-94720376D01*
X45527822Y-94999733D01*
X45537625Y-95280458D01*
X45586402Y-95557087D01*
X45673203Y-95824235D01*
X45675131Y-95828188D01*
X45675133Y-95828193D01*
X45710385Y-95900470D01*
X45796340Y-96076702D01*
X45798795Y-96080341D01*
X45798798Y-96080347D01*
X45826857Y-96121946D01*
X45953415Y-96309576D01*
X46141371Y-96518322D01*
X46356550Y-96698879D01*
X46594764Y-96847731D01*
X46851375Y-96961982D01*
X47121390Y-97039407D01*
X47125740Y-97040018D01*
X47125743Y-97040019D01*
X47228690Y-97054487D01*
X47399552Y-97078500D01*
X47610146Y-97078500D01*
X47612332Y-97078347D01*
X47612336Y-97078347D01*
X47815827Y-97064118D01*
X47815832Y-97064117D01*
X47820212Y-97063811D01*
X48094970Y-97005409D01*
X48099099Y-97003906D01*
X48099103Y-97003905D01*
X48354781Y-96910846D01*
X48354785Y-96910844D01*
X48358926Y-96909337D01*
X48606942Y-96777464D01*
X48711896Y-96701211D01*
X48830629Y-96614947D01*
X48830632Y-96614944D01*
X48834192Y-96612358D01*
X48839482Y-96607250D01*
X48966988Y-96484118D01*
X49036252Y-96417231D01*
X49209188Y-96195882D01*
X49211384Y-96192078D01*
X49211389Y-96192071D01*
X49271381Y-96088161D01*
X49322764Y-96039168D01*
X49392477Y-96025732D01*
X49458388Y-96052118D01*
X49499570Y-96109951D01*
X49506500Y-96151161D01*
X49506500Y-96368134D01*
X49513255Y-96430316D01*
X49564385Y-96566705D01*
X49651739Y-96683261D01*
X49768295Y-96770615D01*
X49904684Y-96821745D01*
X49966866Y-96828500D01*
X52613134Y-96828500D01*
X52675316Y-96821745D01*
X52811705Y-96770615D01*
X52928261Y-96683261D01*
X53015615Y-96566705D01*
X53066745Y-96430316D01*
X53073500Y-96368134D01*
X53073500Y-93771866D01*
X53066745Y-93709684D01*
X53015615Y-93573295D01*
X52928261Y-93456739D01*
X52811705Y-93369385D01*
X52675316Y-93318255D01*
X52613134Y-93311500D01*
X50479594Y-93311500D01*
X50411473Y-93291498D01*
X50390499Y-93274595D01*
X42636858Y-85520953D01*
X42602832Y-85458641D01*
X42599953Y-85431858D01*
X42599953Y-81784425D01*
X42619955Y-81716304D01*
X42673611Y-81669811D01*
X42743885Y-81659707D01*
X42808465Y-81689201D01*
X42836368Y-81723723D01*
X42882976Y-81808504D01*
X43068055Y-82063244D01*
X43283602Y-82292778D01*
X43526218Y-82493487D01*
X43792076Y-82662206D01*
X43795655Y-82663890D01*
X43795662Y-82663894D01*
X44073394Y-82794584D01*
X44073398Y-82794586D01*
X44076984Y-82796273D01*
X44376448Y-82893575D01*
X44685746Y-82952577D01*
X44779300Y-82958463D01*
X44919358Y-82967275D01*
X44919374Y-82967276D01*
X44921353Y-82967400D01*
X45078647Y-82967400D01*
X45080626Y-82967276D01*
X45080642Y-82967275D01*
X45220700Y-82958463D01*
X45314254Y-82952577D01*
X45623552Y-82893575D01*
X45923016Y-82796273D01*
X45926602Y-82794586D01*
X45926606Y-82794584D01*
X46204338Y-82663894D01*
X46204345Y-82663890D01*
X46207924Y-82662206D01*
X46473782Y-82493487D01*
X46716398Y-82292778D01*
X46931945Y-82063244D01*
X47117024Y-81808504D01*
X47132481Y-81780389D01*
X47266813Y-81536039D01*
X47266814Y-81536036D01*
X47268716Y-81532577D01*
X47384630Y-81239813D01*
X47462936Y-80934830D01*
X47502400Y-80622438D01*
X47502400Y-80400732D01*
X48717200Y-80400732D01*
X48725854Y-80631268D01*
X48773228Y-80857050D01*
X48775186Y-80862009D01*
X48775187Y-80862011D01*
X48803945Y-80934830D01*
X48857967Y-81071622D01*
X48977647Y-81268849D01*
X48981144Y-81272879D01*
X49067768Y-81372704D01*
X49128847Y-81443092D01*
X49132978Y-81446479D01*
X49303115Y-81585984D01*
X49303121Y-81585988D01*
X49307243Y-81589368D01*
X49507735Y-81703494D01*
X49512751Y-81705315D01*
X49512756Y-81705317D01*
X49719575Y-81780389D01*
X49719579Y-81780390D01*
X49724590Y-81782209D01*
X49729839Y-81783158D01*
X49729842Y-81783159D01*
X49947523Y-81822522D01*
X49947530Y-81822523D01*
X49951607Y-81823260D01*
X49969344Y-81824096D01*
X49974292Y-81824330D01*
X49974299Y-81824330D01*
X49975780Y-81824400D01*
X50137925Y-81824400D01*
X50204881Y-81818719D01*
X50304562Y-81810261D01*
X50304566Y-81810260D01*
X50309873Y-81809810D01*
X50315028Y-81808472D01*
X50315034Y-81808471D01*
X50528003Y-81753195D01*
X50528007Y-81753194D01*
X50533172Y-81751853D01*
X50538038Y-81749661D01*
X50538041Y-81749660D01*
X50738649Y-81659293D01*
X50743515Y-81657101D01*
X50747935Y-81654125D01*
X50747939Y-81654123D01*
X50923333Y-81536039D01*
X50934885Y-81528262D01*
X51101812Y-81369022D01*
X51179738Y-81264286D01*
X51236337Y-81188214D01*
X51236339Y-81188211D01*
X51239521Y-81183934D01*
X51294305Y-81076183D01*
X51341658Y-80983046D01*
X51341658Y-80983045D01*
X51344077Y-80978288D01*
X51383343Y-80851831D01*
X51410905Y-80763070D01*
X51410906Y-80763064D01*
X51412489Y-80757967D01*
X51442800Y-80529268D01*
X51434146Y-80298732D01*
X51386772Y-80072950D01*
X51357610Y-79999106D01*
X51338893Y-79951712D01*
X51302033Y-79858378D01*
X51194597Y-79681328D01*
X51185122Y-79665714D01*
X51185121Y-79665713D01*
X51182353Y-79661151D01*
X51095428Y-79560978D01*
X51034653Y-79490941D01*
X51034651Y-79490939D01*
X51031153Y-79486908D01*
X50941082Y-79413054D01*
X50856885Y-79344016D01*
X50856879Y-79344012D01*
X50852757Y-79340632D01*
X50652265Y-79226506D01*
X50647249Y-79224685D01*
X50647244Y-79224683D01*
X50440425Y-79149611D01*
X50440421Y-79149610D01*
X50435410Y-79147791D01*
X50430161Y-79146842D01*
X50430158Y-79146841D01*
X50212477Y-79107478D01*
X50212470Y-79107477D01*
X50208393Y-79106740D01*
X50190656Y-79105904D01*
X50185708Y-79105670D01*
X50185701Y-79105670D01*
X50184220Y-79105600D01*
X50022075Y-79105600D01*
X49955119Y-79111281D01*
X49855438Y-79119739D01*
X49855434Y-79119740D01*
X49850127Y-79120190D01*
X49844972Y-79121528D01*
X49844966Y-79121529D01*
X49631997Y-79176805D01*
X49631993Y-79176806D01*
X49626828Y-79178147D01*
X49621962Y-79180339D01*
X49621959Y-79180340D01*
X49519474Y-79226506D01*
X49416485Y-79272899D01*
X49412065Y-79275875D01*
X49412061Y-79275877D01*
X49387216Y-79292604D01*
X49225115Y-79401738D01*
X49058188Y-79560978D01*
X49055000Y-79565263D01*
X48964785Y-79686517D01*
X48920479Y-79746066D01*
X48918064Y-79750816D01*
X48863377Y-79858378D01*
X48815923Y-79951712D01*
X48803620Y-79991335D01*
X48749095Y-80166930D01*
X48749094Y-80166936D01*
X48747511Y-80172033D01*
X48717200Y-80400732D01*
X47502400Y-80400732D01*
X47502400Y-80307562D01*
X47462936Y-79995170D01*
X47384630Y-79690187D01*
X47381785Y-79683000D01*
X47321494Y-79530724D01*
X47268716Y-79397423D01*
X47266813Y-79393961D01*
X47118933Y-79124968D01*
X47118931Y-79124965D01*
X47117024Y-79121496D01*
X46931945Y-78866756D01*
X46716398Y-78637222D01*
X46473782Y-78436513D01*
X46207924Y-78267794D01*
X46204345Y-78266110D01*
X46204338Y-78266106D01*
X45926606Y-78135416D01*
X45926602Y-78135414D01*
X45923016Y-78133727D01*
X45623552Y-78036425D01*
X45314254Y-77977423D01*
X45220700Y-77971537D01*
X45080642Y-77962725D01*
X45080626Y-77962724D01*
X45078647Y-77962600D01*
X44921353Y-77962600D01*
X44919374Y-77962724D01*
X44919358Y-77962725D01*
X44779300Y-77971537D01*
X44685746Y-77977423D01*
X44376448Y-78036425D01*
X44076984Y-78133727D01*
X44073398Y-78135414D01*
X44073394Y-78135416D01*
X43877669Y-78227517D01*
X43807515Y-78238423D01*
X43742602Y-78209670D01*
X43703538Y-78150386D01*
X43698021Y-78113509D01*
X43698021Y-63920454D01*
X43698548Y-63909271D01*
X43700223Y-63901778D01*
X43698083Y-63833701D01*
X43698021Y-63829742D01*
X43698021Y-63801831D01*
X43697516Y-63797831D01*
X43696583Y-63785986D01*
X43696065Y-63769497D01*
X43713918Y-63700782D01*
X43766088Y-63652627D01*
X43836010Y-63640322D01*
X43875650Y-63651533D01*
X43942288Y-63682890D01*
X44073394Y-63744584D01*
X44073398Y-63744586D01*
X44076984Y-63746273D01*
X44376448Y-63843575D01*
X44685746Y-63902577D01*
X44779300Y-63908463D01*
X44919358Y-63917275D01*
X44919374Y-63917276D01*
X44921353Y-63917400D01*
X45078647Y-63917400D01*
X45080626Y-63917276D01*
X45080642Y-63917275D01*
X45220700Y-63908463D01*
X45314254Y-63902577D01*
X45623552Y-63843575D01*
X45923016Y-63746273D01*
X45926602Y-63744586D01*
X45926606Y-63744584D01*
X46204338Y-63613894D01*
X46204345Y-63613890D01*
X46207924Y-63612206D01*
X46473782Y-63443487D01*
X46716398Y-63242778D01*
X46931945Y-63013244D01*
X47117024Y-62758504D01*
X47132481Y-62730389D01*
X47266813Y-62486039D01*
X47266814Y-62486036D01*
X47268716Y-62482577D01*
X47384630Y-62189813D01*
X47462936Y-61884830D01*
X47502400Y-61572438D01*
X47502400Y-61257562D01*
X47462936Y-60945170D01*
X47384630Y-60640187D01*
X47381785Y-60633000D01*
X47270170Y-60351096D01*
X47268716Y-60347423D01*
X47266813Y-60343961D01*
X47118933Y-60074968D01*
X47118931Y-60074965D01*
X47117024Y-60071496D01*
X46931945Y-59816756D01*
X46716398Y-59587222D01*
X46473782Y-59386513D01*
X46207924Y-59217794D01*
X46204345Y-59216110D01*
X46204338Y-59216106D01*
X45926606Y-59085416D01*
X45926602Y-59085414D01*
X45923016Y-59083727D01*
X45623552Y-58986425D01*
X45314254Y-58927423D01*
X45220700Y-58921537D01*
X45080642Y-58912725D01*
X45080626Y-58912724D01*
X45078647Y-58912600D01*
X44921353Y-58912600D01*
X44919374Y-58912724D01*
X44919358Y-58912725D01*
X44779300Y-58921537D01*
X44685746Y-58927423D01*
X44376448Y-58986425D01*
X44076984Y-59083727D01*
X44073398Y-59085414D01*
X44073394Y-59085416D01*
X43877669Y-59177517D01*
X43807515Y-59188423D01*
X43742602Y-59159670D01*
X43703538Y-59100386D01*
X43698021Y-59063509D01*
X43698021Y-48143288D01*
X43698548Y-48132105D01*
X43700223Y-48124612D01*
X43698083Y-48056535D01*
X43698021Y-48052576D01*
X43698021Y-48024665D01*
X43697516Y-48020665D01*
X43696583Y-48008822D01*
X43695443Y-47972550D01*
X43695194Y-47964631D01*
X43689543Y-47945179D01*
X43685535Y-47925827D01*
X43683988Y-47913584D01*
X43682995Y-47905724D01*
X43680077Y-47898353D01*
X43666721Y-47864618D01*
X43662876Y-47853391D01*
X43662242Y-47851208D01*
X43650539Y-47810928D01*
X43646505Y-47804106D01*
X43646502Y-47804100D01*
X43640227Y-47793489D01*
X43631531Y-47775739D01*
X43626993Y-47764277D01*
X43626990Y-47764272D01*
X43624073Y-47756904D01*
X43598094Y-47721146D01*
X43591578Y-47711228D01*
X43573096Y-47679978D01*
X43569063Y-47673158D01*
X43554739Y-47658834D01*
X43541897Y-47643799D01*
X43529993Y-47627414D01*
X43495927Y-47599232D01*
X43487148Y-47591243D01*
X40370925Y-44475020D01*
X40336899Y-44412708D01*
X40341964Y-44341893D01*
X40384511Y-44285057D01*
X40408269Y-44271043D01*
X40583515Y-44192101D01*
X40587935Y-44189125D01*
X40587939Y-44189123D01*
X40719927Y-44100262D01*
X40774885Y-44063262D01*
X40941812Y-43904022D01*
X41008851Y-43813918D01*
X41076337Y-43723214D01*
X41076339Y-43723211D01*
X41079521Y-43718934D01*
X41131951Y-43615812D01*
X41181658Y-43518046D01*
X41181658Y-43518045D01*
X41184077Y-43513288D01*
X41221723Y-43392050D01*
X41250905Y-43298070D01*
X41250906Y-43298064D01*
X41252489Y-43292967D01*
X41282800Y-43064268D01*
X41274146Y-42833732D01*
X41228104Y-42614298D01*
X41233691Y-42543523D01*
X41276656Y-42487003D01*
X41342629Y-42462732D01*
X41387257Y-42459612D01*
X41465828Y-42454118D01*
X41465834Y-42454117D01*
X41470212Y-42453811D01*
X41744970Y-42395409D01*
X41749099Y-42393906D01*
X41749103Y-42393905D01*
X42004781Y-42300846D01*
X42004785Y-42300844D01*
X42008926Y-42299337D01*
X42256942Y-42167464D01*
X42262641Y-42163324D01*
X42441327Y-42033501D01*
X42508195Y-42009642D01*
X42577347Y-42025723D01*
X42626827Y-42076637D01*
X42640926Y-42146220D01*
X42632540Y-42181820D01*
X42615370Y-42225187D01*
X42537064Y-42530170D01*
X42497600Y-42842562D01*
X42497600Y-43157438D01*
X42537064Y-43469830D01*
X42615370Y-43774813D01*
X42731284Y-44067577D01*
X42733186Y-44071036D01*
X42733187Y-44071039D01*
X42867520Y-44315389D01*
X42882976Y-44343504D01*
X43068055Y-44598244D01*
X43283602Y-44827778D01*
X43526218Y-45028487D01*
X43792076Y-45197206D01*
X43795655Y-45198890D01*
X43795662Y-45198894D01*
X44073394Y-45329584D01*
X44073398Y-45329586D01*
X44076984Y-45331273D01*
X44376448Y-45428575D01*
X44685746Y-45487577D01*
X44779300Y-45493463D01*
X44919358Y-45502275D01*
X44919374Y-45502276D01*
X44921353Y-45502400D01*
X45078647Y-45502400D01*
X45209801Y-45494149D01*
X45304022Y-45488221D01*
X45373264Y-45503906D01*
X45423034Y-45554537D01*
X45437530Y-45624037D01*
X45412150Y-45690343D01*
X45401028Y-45703067D01*
X44607747Y-46496348D01*
X44599461Y-46503888D01*
X44592982Y-46508000D01*
X44587557Y-46513777D01*
X44546357Y-46557651D01*
X44543602Y-46560493D01*
X44523865Y-46580230D01*
X44521385Y-46583427D01*
X44513682Y-46592447D01*
X44483414Y-46624679D01*
X44479595Y-46631625D01*
X44479593Y-46631628D01*
X44473652Y-46642434D01*
X44462801Y-46658953D01*
X44450386Y-46674959D01*
X44447241Y-46682228D01*
X44447238Y-46682232D01*
X44432826Y-46715537D01*
X44427609Y-46726187D01*
X44406305Y-46764940D01*
X44404334Y-46772615D01*
X44404334Y-46772616D01*
X44401267Y-46784562D01*
X44394863Y-46803266D01*
X44386819Y-46821855D01*
X44385580Y-46829678D01*
X44385577Y-46829688D01*
X44379901Y-46865524D01*
X44377495Y-46877144D01*
X44366500Y-46919970D01*
X44366500Y-46940224D01*
X44364949Y-46959934D01*
X44361780Y-46979943D01*
X44362526Y-46987835D01*
X44365941Y-47023961D01*
X44366500Y-47035819D01*
X44366500Y-56921233D01*
X44365973Y-56932416D01*
X44364298Y-56939909D01*
X44364547Y-56947835D01*
X44364547Y-56947836D01*
X44366438Y-57007986D01*
X44366500Y-57011945D01*
X44366500Y-57039856D01*
X44366997Y-57043790D01*
X44366997Y-57043791D01*
X44367005Y-57043856D01*
X44367938Y-57055693D01*
X44369327Y-57099889D01*
X44374406Y-57117371D01*
X44374978Y-57119339D01*
X44378987Y-57138700D01*
X44381526Y-57158797D01*
X44384445Y-57166168D01*
X44384445Y-57166170D01*
X44397804Y-57199912D01*
X44401649Y-57211142D01*
X44413982Y-57253593D01*
X44418015Y-57260412D01*
X44418017Y-57260417D01*
X44424293Y-57271028D01*
X44432988Y-57288776D01*
X44440448Y-57307617D01*
X44445110Y-57314033D01*
X44445110Y-57314034D01*
X44466436Y-57343387D01*
X44472952Y-57353307D01*
X44495458Y-57391362D01*
X44509779Y-57405683D01*
X44522619Y-57420716D01*
X44534528Y-57437107D01*
X44540634Y-57442158D01*
X44568605Y-57465298D01*
X44577384Y-57473288D01*
X45705869Y-58601774D01*
X45713409Y-58610060D01*
X45717521Y-58616539D01*
X45723298Y-58621964D01*
X45767172Y-58663164D01*
X45770014Y-58665919D01*
X45789751Y-58685656D01*
X45792948Y-58688136D01*
X45801968Y-58695839D01*
X45834200Y-58726107D01*
X45841146Y-58729926D01*
X45841149Y-58729928D01*
X45851955Y-58735869D01*
X45868474Y-58746720D01*
X45884480Y-58759135D01*
X45891749Y-58762280D01*
X45891753Y-58762283D01*
X45925058Y-58776695D01*
X45935708Y-58781912D01*
X45974461Y-58803216D01*
X45982136Y-58805187D01*
X45982137Y-58805187D01*
X45994083Y-58808254D01*
X46012788Y-58814658D01*
X46031376Y-58822702D01*
X46039199Y-58823941D01*
X46039209Y-58823944D01*
X46075045Y-58829620D01*
X46086665Y-58832026D01*
X46121810Y-58841049D01*
X46129491Y-58843021D01*
X46149745Y-58843021D01*
X46169455Y-58844572D01*
X46189464Y-58847741D01*
X46197356Y-58846995D01*
X46233482Y-58843580D01*
X46245340Y-58843021D01*
X48292935Y-58843021D01*
X48361056Y-58863023D01*
X48382030Y-58879926D01*
X49500157Y-59998053D01*
X49534183Y-60060365D01*
X49529118Y-60131180D01*
X49486571Y-60188016D01*
X49462814Y-60202030D01*
X49416485Y-60222899D01*
X49412065Y-60225875D01*
X49412061Y-60225877D01*
X49387216Y-60242604D01*
X49225115Y-60351738D01*
X49058188Y-60510978D01*
X49055000Y-60515263D01*
X48946253Y-60661425D01*
X48920479Y-60696066D01*
X48918064Y-60700816D01*
X48835324Y-60863554D01*
X48815923Y-60901712D01*
X48795494Y-60967504D01*
X48749095Y-61116930D01*
X48749094Y-61116936D01*
X48747511Y-61122033D01*
X48717200Y-61350732D01*
X48725854Y-61581268D01*
X48773228Y-61807050D01*
X48775186Y-61812009D01*
X48775187Y-61812011D01*
X48803945Y-61884830D01*
X48857967Y-62021622D01*
X48977647Y-62218849D01*
X48981144Y-62222879D01*
X49059441Y-62313108D01*
X49128847Y-62393092D01*
X49132978Y-62396479D01*
X49303115Y-62535984D01*
X49303121Y-62535988D01*
X49307243Y-62539368D01*
X49507735Y-62653494D01*
X49512751Y-62655315D01*
X49512756Y-62655317D01*
X49719575Y-62730389D01*
X49719579Y-62730390D01*
X49724590Y-62732209D01*
X49729839Y-62733158D01*
X49729842Y-62733159D01*
X49947523Y-62772522D01*
X49947530Y-62772523D01*
X49951607Y-62773260D01*
X49969344Y-62774096D01*
X49974292Y-62774330D01*
X49974299Y-62774330D01*
X49975780Y-62774400D01*
X50137925Y-62774400D01*
X50204881Y-62768719D01*
X50304562Y-62760261D01*
X50304566Y-62760260D01*
X50309873Y-62759810D01*
X50315028Y-62758472D01*
X50315034Y-62758471D01*
X50514267Y-62706760D01*
X50585228Y-62709007D01*
X50643709Y-62749262D01*
X50671144Y-62814744D01*
X50671921Y-62828719D01*
X50671921Y-73500500D01*
X50651919Y-73568621D01*
X50598263Y-73615114D01*
X50545921Y-73626500D01*
X49966866Y-73626500D01*
X49904684Y-73633255D01*
X49768295Y-73684385D01*
X49651739Y-73771739D01*
X49564385Y-73888295D01*
X49513255Y-74024684D01*
X49506500Y-74086866D01*
X49506500Y-74296544D01*
X49486498Y-74364665D01*
X49432842Y-74411158D01*
X49362568Y-74421262D01*
X49297988Y-74391768D01*
X49276041Y-74367002D01*
X49200935Y-74255653D01*
X49126585Y-74145424D01*
X48938629Y-73936678D01*
X48723450Y-73756121D01*
X48485236Y-73607269D01*
X48228625Y-73493018D01*
X47958610Y-73415593D01*
X47954260Y-73414982D01*
X47954257Y-73414981D01*
X47851310Y-73400513D01*
X47680448Y-73376500D01*
X47469854Y-73376500D01*
X47467668Y-73376653D01*
X47467664Y-73376653D01*
X47264173Y-73390882D01*
X47264168Y-73390883D01*
X47259788Y-73391189D01*
X46985030Y-73449591D01*
X46980901Y-73451094D01*
X46980897Y-73451095D01*
X46725219Y-73544154D01*
X46725215Y-73544156D01*
X46721074Y-73545663D01*
X46473058Y-73677536D01*
X46469499Y-73680122D01*
X46469497Y-73680123D01*
X46333516Y-73778919D01*
X46245808Y-73842642D01*
X46043748Y-74037769D01*
X45870812Y-74259118D01*
X45868616Y-74262922D01*
X45868611Y-74262929D01*
X45777198Y-74421262D01*
X45730364Y-74502381D01*
X45625138Y-74762824D01*
X45557183Y-75035376D01*
X45527822Y-75314733D01*
X45537625Y-75595458D01*
X45586402Y-75872087D01*
X45673203Y-76139235D01*
X45675131Y-76143188D01*
X45675133Y-76143193D01*
X45708517Y-76211640D01*
X45796340Y-76391702D01*
X45798795Y-76395341D01*
X45798798Y-76395347D01*
X45826857Y-76436946D01*
X45953415Y-76624576D01*
X46141371Y-76833322D01*
X46356550Y-77013879D01*
X46594764Y-77162731D01*
X46851375Y-77276982D01*
X47121390Y-77354407D01*
X47125740Y-77355018D01*
X47125743Y-77355019D01*
X47228690Y-77369487D01*
X47399552Y-77393500D01*
X47610146Y-77393500D01*
X47612332Y-77393347D01*
X47612336Y-77393347D01*
X47815827Y-77379118D01*
X47815832Y-77379117D01*
X47820212Y-77378811D01*
X48094970Y-77320409D01*
X48099099Y-77318906D01*
X48099103Y-77318905D01*
X48354781Y-77225846D01*
X48354785Y-77225844D01*
X48358926Y-77224337D01*
X48606942Y-77092464D01*
X48711896Y-77016211D01*
X48830629Y-76929947D01*
X48830632Y-76929944D01*
X48834192Y-76927358D01*
X48877106Y-76885917D01*
X48966988Y-76799118D01*
X49036252Y-76732231D01*
X49209188Y-76510882D01*
X49211384Y-76507078D01*
X49211389Y-76507071D01*
X49271381Y-76403161D01*
X49322764Y-76354168D01*
X49392477Y-76340732D01*
X49458388Y-76367118D01*
X49499570Y-76424951D01*
X49506500Y-76466161D01*
X49506500Y-76683134D01*
X49513255Y-76745316D01*
X49564385Y-76881705D01*
X49651739Y-76998261D01*
X49768295Y-77085615D01*
X49904684Y-77136745D01*
X49966866Y-77143500D01*
X52613134Y-77143500D01*
X52675316Y-77136745D01*
X52811705Y-77085615D01*
X52928261Y-76998261D01*
X53015615Y-76881705D01*
X53066745Y-76745316D01*
X53073500Y-76683134D01*
X53073500Y-74086866D01*
X53066745Y-74024684D01*
X53015615Y-73888295D01*
X52928261Y-73771739D01*
X52811705Y-73684385D01*
X52675316Y-73633255D01*
X52613134Y-73626500D01*
X52064921Y-73626500D01*
X51996800Y-73606498D01*
X51950307Y-73552842D01*
X51938921Y-73500500D01*
X51938921Y-60986176D01*
X51939448Y-60974992D01*
X51941122Y-60967504D01*
X51938983Y-60899445D01*
X51938921Y-60895488D01*
X51938921Y-60867557D01*
X51938415Y-60863551D01*
X51937482Y-60851705D01*
X51936343Y-60815450D01*
X51936094Y-60807523D01*
X51930443Y-60788071D01*
X51926435Y-60768719D01*
X51924889Y-60756481D01*
X51924888Y-60756479D01*
X51923895Y-60748616D01*
X51907615Y-60707499D01*
X51903780Y-60696298D01*
X51891439Y-60653819D01*
X51887406Y-60647000D01*
X51887404Y-60646995D01*
X51881128Y-60636384D01*
X51872431Y-60618634D01*
X51864973Y-60599796D01*
X51838992Y-60564036D01*
X51832474Y-60554114D01*
X51813999Y-60522873D01*
X51813995Y-60522868D01*
X51809963Y-60516050D01*
X51795639Y-60501726D01*
X51782797Y-60486691D01*
X51778462Y-60480724D01*
X51770893Y-60470306D01*
X51736827Y-60442124D01*
X51728048Y-60434135D01*
X49111181Y-57817268D01*
X49103641Y-57808982D01*
X49099529Y-57802503D01*
X49092699Y-57796089D01*
X49092124Y-57795110D01*
X49088698Y-57790969D01*
X49089366Y-57790416D01*
X49056734Y-57734876D01*
X49059573Y-57663936D01*
X49079664Y-57626667D01*
X49206474Y-57464357D01*
X49206480Y-57464348D01*
X49209188Y-57460882D01*
X49211384Y-57457078D01*
X49211389Y-57457071D01*
X49271381Y-57353161D01*
X49322764Y-57304168D01*
X49392477Y-57290732D01*
X49458388Y-57317118D01*
X49499570Y-57374951D01*
X49506500Y-57416161D01*
X49506500Y-57633134D01*
X49513255Y-57695316D01*
X49564385Y-57831705D01*
X49651739Y-57948261D01*
X49768295Y-58035615D01*
X49904684Y-58086745D01*
X49966866Y-58093500D01*
X52613134Y-58093500D01*
X52675316Y-58086745D01*
X52811705Y-58035615D01*
X52928261Y-57948261D01*
X53015615Y-57831705D01*
X53066745Y-57695316D01*
X53073500Y-57633134D01*
X53073500Y-55036866D01*
X53066745Y-54974684D01*
X53015615Y-54838295D01*
X52928261Y-54721739D01*
X52811705Y-54634385D01*
X52675316Y-54583255D01*
X52613134Y-54576500D01*
X50510437Y-54576500D01*
X50442316Y-54556498D01*
X50421342Y-54539595D01*
X48781379Y-52899632D01*
X48747353Y-52837320D01*
X48744474Y-52810537D01*
X48744474Y-43869963D01*
X48764476Y-43801842D01*
X48818132Y-43755349D01*
X48888406Y-43745245D01*
X48952986Y-43774739D01*
X48972281Y-43795725D01*
X48974880Y-43799288D01*
X48977647Y-43803849D01*
X49128847Y-43978092D01*
X49132978Y-43981479D01*
X49303115Y-44120984D01*
X49303121Y-44120988D01*
X49307243Y-44124368D01*
X49507735Y-44238494D01*
X49512751Y-44240315D01*
X49512756Y-44240317D01*
X49719575Y-44315389D01*
X49719579Y-44315390D01*
X49724590Y-44317209D01*
X49729839Y-44318158D01*
X49729842Y-44318159D01*
X49947523Y-44357522D01*
X49947530Y-44357523D01*
X49951607Y-44358260D01*
X49969344Y-44359096D01*
X49974292Y-44359330D01*
X49974299Y-44359330D01*
X49975780Y-44359400D01*
X50137925Y-44359400D01*
X50204881Y-44353719D01*
X50304562Y-44345261D01*
X50304566Y-44345260D01*
X50309873Y-44344810D01*
X50315028Y-44343472D01*
X50315034Y-44343471D01*
X50528003Y-44288195D01*
X50528007Y-44288194D01*
X50533172Y-44286853D01*
X50538038Y-44284661D01*
X50538041Y-44284660D01*
X50738649Y-44194293D01*
X50743515Y-44192101D01*
X50747935Y-44189125D01*
X50747939Y-44189123D01*
X50879927Y-44100262D01*
X50934885Y-44063262D01*
X51101812Y-43904022D01*
X51168851Y-43813918D01*
X51236337Y-43723214D01*
X51236339Y-43723211D01*
X51239521Y-43718934D01*
X51291951Y-43615812D01*
X51341658Y-43518046D01*
X51341658Y-43518045D01*
X51344077Y-43513288D01*
X51381723Y-43392050D01*
X51410905Y-43298070D01*
X51410906Y-43298064D01*
X51412489Y-43292967D01*
X51442800Y-43064268D01*
X51434146Y-42833732D01*
X51386772Y-42607950D01*
X51361329Y-42543523D01*
X51329422Y-42462732D01*
X51302033Y-42393378D01*
X51194597Y-42216328D01*
X51185122Y-42200714D01*
X51185121Y-42200713D01*
X51182353Y-42196151D01*
X51131193Y-42137194D01*
X51034653Y-42025941D01*
X51034651Y-42025939D01*
X51031153Y-42021908D01*
X50941082Y-41948054D01*
X50856885Y-41879016D01*
X50856879Y-41879012D01*
X50852757Y-41875632D01*
X50652265Y-41761506D01*
X50647249Y-41759685D01*
X50647244Y-41759683D01*
X50440425Y-41684611D01*
X50440421Y-41684610D01*
X50435410Y-41682791D01*
X50430161Y-41681842D01*
X50430158Y-41681841D01*
X50212477Y-41642478D01*
X50212470Y-41642477D01*
X50208393Y-41641740D01*
X50190656Y-41640904D01*
X50185708Y-41640670D01*
X50185701Y-41640670D01*
X50184220Y-41640600D01*
X50022075Y-41640600D01*
X49955119Y-41646281D01*
X49855438Y-41654739D01*
X49855434Y-41654740D01*
X49850127Y-41655190D01*
X49844972Y-41656528D01*
X49844966Y-41656529D01*
X49631997Y-41711805D01*
X49631993Y-41711806D01*
X49626828Y-41713147D01*
X49621962Y-41715339D01*
X49621959Y-41715340D01*
X49519474Y-41761506D01*
X49416485Y-41807899D01*
X49412065Y-41810875D01*
X49412061Y-41810877D01*
X49387216Y-41827604D01*
X49225115Y-41936738D01*
X49058188Y-42095978D01*
X48971765Y-42212135D01*
X48971563Y-42212407D01*
X48914853Y-42255120D01*
X48844052Y-42260393D01*
X48781640Y-42226551D01*
X48747433Y-42164338D01*
X48744474Y-42137194D01*
X48744474Y-40314595D01*
X48764476Y-40246474D01*
X48781379Y-40225500D01*
X49474483Y-39532396D01*
X49536795Y-39498370D01*
X49607610Y-39503435D01*
X49649620Y-39530434D01*
X49651739Y-39533261D01*
X49768295Y-39620615D01*
X49904684Y-39671745D01*
X49966866Y-39678500D01*
X52613134Y-39678500D01*
X52675316Y-39671745D01*
X52811705Y-39620615D01*
X52928261Y-39533261D01*
X53015615Y-39416705D01*
X53066745Y-39280316D01*
X53073500Y-39218134D01*
X53073500Y-36621866D01*
X53066745Y-36559684D01*
X53015615Y-36423295D01*
X52928261Y-36306739D01*
X52811705Y-36219385D01*
X52675316Y-36168255D01*
X52613134Y-36161500D01*
X52049500Y-36161500D01*
X51981379Y-36141498D01*
X51934886Y-36087842D01*
X51923500Y-36035500D01*
X51923500Y-32086423D01*
X58278703Y-32086423D01*
X58286227Y-32096854D01*
X58425483Y-32209020D01*
X58431657Y-32213408D01*
X58702271Y-32382178D01*
X58708931Y-32385794D01*
X58997852Y-32520827D01*
X59004905Y-32523620D01*
X59307970Y-32622970D01*
X59315282Y-32624888D01*
X59628092Y-32687109D01*
X59635590Y-32688137D01*
X59953610Y-32712328D01*
X59961173Y-32712446D01*
X60279785Y-32698257D01*
X60287326Y-32697465D01*
X60601924Y-32645101D01*
X60609302Y-32643411D01*
X60915355Y-32553625D01*
X60922450Y-32551071D01*
X61215496Y-32425169D01*
X61222263Y-32421765D01*
X61498042Y-32261580D01*
X61504349Y-32257390D01*
X61714305Y-32098889D01*
X61722761Y-32087496D01*
X61716045Y-32075256D01*
X60012810Y-30372020D01*
X59998869Y-30364408D01*
X59997034Y-30364539D01*
X59990420Y-30368790D01*
X58285818Y-32073393D01*
X58278703Y-32086423D01*
X51923500Y-32086423D01*
X51923500Y-30748767D01*
X51924027Y-30737584D01*
X51925702Y-30730091D01*
X51924938Y-30705767D01*
X51923562Y-30662014D01*
X51923500Y-30658055D01*
X51923500Y-30630144D01*
X51922995Y-30626144D01*
X51922062Y-30614301D01*
X51921660Y-30601490D01*
X51920673Y-30570110D01*
X51915022Y-30550658D01*
X51911014Y-30531306D01*
X51909467Y-30519063D01*
X51908474Y-30511203D01*
X51904311Y-30500688D01*
X51892200Y-30470097D01*
X51888355Y-30458870D01*
X51887721Y-30456687D01*
X51876018Y-30416407D01*
X51871984Y-30409585D01*
X51871981Y-30409579D01*
X51865706Y-30398968D01*
X51857010Y-30381218D01*
X51852472Y-30369756D01*
X51852469Y-30369751D01*
X51849552Y-30362383D01*
X51823573Y-30326625D01*
X51817057Y-30316707D01*
X51798575Y-30285457D01*
X51794542Y-30278637D01*
X51780218Y-30264313D01*
X51767376Y-30249278D01*
X51755472Y-30232893D01*
X51721406Y-30204711D01*
X51712627Y-30196722D01*
X51671218Y-30155313D01*
X51637192Y-30093001D01*
X51639755Y-30029589D01*
X51650865Y-29993022D01*
X51652370Y-29988069D01*
X51654040Y-29975383D01*
X57287388Y-29975383D01*
X57303245Y-30293914D01*
X57304076Y-30301443D01*
X57358085Y-30615759D01*
X57359818Y-30623146D01*
X57451196Y-30928695D01*
X57453799Y-30935808D01*
X57581227Y-31228173D01*
X57584669Y-31234929D01*
X57746296Y-31509865D01*
X57750519Y-31516150D01*
X57901463Y-31713934D01*
X57912989Y-31722396D01*
X57925054Y-31715735D01*
X59627980Y-30012810D01*
X59634357Y-30001131D01*
X60364408Y-30001131D01*
X60364539Y-30002966D01*
X60368790Y-30009580D01*
X62073285Y-31714074D01*
X62086408Y-31721240D01*
X62096709Y-31713851D01*
X62200751Y-31586055D01*
X62205164Y-31579914D01*
X62375349Y-31310187D01*
X62379005Y-31303536D01*
X62515544Y-31015335D01*
X62518375Y-31008295D01*
X62619306Y-30705767D01*
X62621270Y-30698433D01*
X62685122Y-30385989D01*
X62686194Y-30378465D01*
X62712173Y-30059051D01*
X62712378Y-30054576D01*
X62712927Y-30002221D01*
X62712817Y-29997789D01*
X62693529Y-29677853D01*
X62692621Y-29670351D01*
X62635319Y-29356593D01*
X62633518Y-29349260D01*
X62538935Y-29044655D01*
X62536263Y-29037583D01*
X62405781Y-28746570D01*
X62402264Y-28739843D01*
X62237771Y-28466621D01*
X62233481Y-28460377D01*
X62097991Y-28286647D01*
X62086199Y-28278178D01*
X62074486Y-28284725D01*
X60372020Y-29987190D01*
X60364408Y-30001131D01*
X59634357Y-30001131D01*
X59635592Y-29998869D01*
X59635461Y-29997034D01*
X59631210Y-29990420D01*
X57926445Y-28285656D01*
X57913510Y-28278592D01*
X57902949Y-28286252D01*
X57782766Y-28437072D01*
X57778410Y-28443270D01*
X57611059Y-28714764D01*
X57607479Y-28721440D01*
X57473956Y-29011074D01*
X57471206Y-29018125D01*
X57373444Y-29321708D01*
X57371561Y-29329041D01*
X57310979Y-29642170D01*
X57309992Y-29649670D01*
X57287467Y-29967802D01*
X57287388Y-29975383D01*
X51654040Y-29975383D01*
X51681529Y-29766590D01*
X51683156Y-29700000D01*
X51664852Y-29477361D01*
X51610431Y-29260702D01*
X51521354Y-29055840D01*
X51400014Y-28868277D01*
X51249670Y-28703051D01*
X51245619Y-28699852D01*
X51245615Y-28699848D01*
X51078414Y-28567800D01*
X51078410Y-28567798D01*
X51074359Y-28564598D01*
X50878789Y-28456638D01*
X50873920Y-28454914D01*
X50873916Y-28454912D01*
X50673087Y-28383795D01*
X50673083Y-28383794D01*
X50668212Y-28382069D01*
X50663119Y-28381162D01*
X50663116Y-28381161D01*
X50453373Y-28343800D01*
X50453367Y-28343799D01*
X50448284Y-28342894D01*
X50374452Y-28341992D01*
X50230081Y-28340228D01*
X50230079Y-28340228D01*
X50224911Y-28340165D01*
X50004091Y-28373955D01*
X49791756Y-28443357D01*
X49593607Y-28546507D01*
X49589474Y-28549610D01*
X49589471Y-28549612D01*
X49506450Y-28611946D01*
X49414965Y-28680635D01*
X49260629Y-28842138D01*
X49153201Y-28999621D01*
X49098293Y-29044621D01*
X49027768Y-29052792D01*
X48964021Y-29021538D01*
X48943324Y-28997054D01*
X48862822Y-28872617D01*
X48862820Y-28872614D01*
X48860014Y-28868277D01*
X48709670Y-28703051D01*
X48705619Y-28699852D01*
X48705615Y-28699848D01*
X48538414Y-28567800D01*
X48538410Y-28567798D01*
X48534359Y-28564598D01*
X48338789Y-28456638D01*
X48333920Y-28454914D01*
X48333916Y-28454912D01*
X48133087Y-28383795D01*
X48133083Y-28383794D01*
X48128212Y-28382069D01*
X48123119Y-28381162D01*
X48123116Y-28381161D01*
X47913373Y-28343800D01*
X47913367Y-28343799D01*
X47908284Y-28342894D01*
X47834452Y-28341992D01*
X47690081Y-28340228D01*
X47690079Y-28340228D01*
X47684911Y-28340165D01*
X47464091Y-28373955D01*
X47251756Y-28443357D01*
X47053607Y-28546507D01*
X47049474Y-28549610D01*
X47049471Y-28549612D01*
X46966450Y-28611946D01*
X46874965Y-28680635D01*
X46720629Y-28842138D01*
X46613201Y-28999621D01*
X46558293Y-29044621D01*
X46487768Y-29052792D01*
X46424021Y-29021538D01*
X46403324Y-28997054D01*
X46322822Y-28872617D01*
X46322820Y-28872614D01*
X46320014Y-28868277D01*
X46169670Y-28703051D01*
X46165619Y-28699852D01*
X46165615Y-28699848D01*
X45998414Y-28567800D01*
X45998410Y-28567798D01*
X45994359Y-28564598D01*
X45798789Y-28456638D01*
X45793920Y-28454914D01*
X45793916Y-28454912D01*
X45593087Y-28383795D01*
X45593083Y-28383794D01*
X45588212Y-28382069D01*
X45583119Y-28381162D01*
X45583116Y-28381161D01*
X45373373Y-28343800D01*
X45373367Y-28343799D01*
X45368284Y-28342894D01*
X45294452Y-28341992D01*
X45150081Y-28340228D01*
X45150079Y-28340228D01*
X45144911Y-28340165D01*
X44924091Y-28373955D01*
X44711756Y-28443357D01*
X44513607Y-28546507D01*
X44509474Y-28549610D01*
X44509471Y-28549612D01*
X44426450Y-28611946D01*
X44334965Y-28680635D01*
X44180629Y-28842138D01*
X44073201Y-28999621D01*
X44018293Y-29044621D01*
X43947768Y-29052792D01*
X43884021Y-29021538D01*
X43863324Y-28997054D01*
X43782822Y-28872617D01*
X43782820Y-28872614D01*
X43780014Y-28868277D01*
X43629670Y-28703051D01*
X43625619Y-28699852D01*
X43625615Y-28699848D01*
X43458414Y-28567800D01*
X43458410Y-28567798D01*
X43454359Y-28564598D01*
X43258789Y-28456638D01*
X43253920Y-28454914D01*
X43253916Y-28454912D01*
X43053087Y-28383795D01*
X43053083Y-28383794D01*
X43048212Y-28382069D01*
X43043119Y-28381162D01*
X43043116Y-28381161D01*
X42833373Y-28343800D01*
X42833367Y-28343799D01*
X42828284Y-28342894D01*
X42754452Y-28341992D01*
X42610081Y-28340228D01*
X42610079Y-28340228D01*
X42604911Y-28340165D01*
X42384091Y-28373955D01*
X42171756Y-28443357D01*
X41973607Y-28546507D01*
X41969474Y-28549610D01*
X41969471Y-28549612D01*
X41886450Y-28611946D01*
X41794965Y-28680635D01*
X41791393Y-28684373D01*
X41713898Y-28765466D01*
X41652374Y-28800895D01*
X41581462Y-28797438D01*
X41523676Y-28756192D01*
X41504823Y-28722644D01*
X41463324Y-28611946D01*
X41454786Y-28596351D01*
X41378285Y-28494276D01*
X41365724Y-28481715D01*
X41263649Y-28405214D01*
X41248054Y-28396676D01*
X41127606Y-28351522D01*
X41112351Y-28347895D01*
X41061486Y-28342369D01*
X41054672Y-28342000D01*
X40432115Y-28342000D01*
X40416876Y-28346475D01*
X40415671Y-28347865D01*
X40414000Y-28355548D01*
X40414000Y-31037905D01*
X40393998Y-31106026D01*
X40377095Y-31127000D01*
X38923226Y-32580869D01*
X38914940Y-32588409D01*
X38908461Y-32592521D01*
X38903036Y-32598298D01*
X38861836Y-32642172D01*
X38859081Y-32645014D01*
X38839344Y-32664751D01*
X38836864Y-32667948D01*
X38829161Y-32676968D01*
X38798893Y-32709200D01*
X38795074Y-32716146D01*
X38795072Y-32716149D01*
X38789131Y-32726955D01*
X38778280Y-32743474D01*
X38765865Y-32759480D01*
X38762720Y-32766749D01*
X38762717Y-32766753D01*
X38748305Y-32800058D01*
X38743088Y-32810708D01*
X38721784Y-32849461D01*
X38719813Y-32857136D01*
X38719813Y-32857137D01*
X38716746Y-32869083D01*
X38710342Y-32887787D01*
X38702298Y-32906376D01*
X38701059Y-32914199D01*
X38701056Y-32914209D01*
X38695380Y-32950045D01*
X38692974Y-32961665D01*
X38681979Y-33004491D01*
X38681979Y-33024745D01*
X38680428Y-33044455D01*
X38677259Y-33064464D01*
X38678005Y-33072356D01*
X38681420Y-33108482D01*
X38681979Y-33120340D01*
X38681979Y-38576000D01*
X38661977Y-38644121D01*
X38608321Y-38690614D01*
X38555979Y-38702000D01*
X37712115Y-38702000D01*
X37696876Y-38706475D01*
X37695671Y-38707865D01*
X37694000Y-38715548D01*
X37694000Y-42199884D01*
X37698475Y-42215123D01*
X37699865Y-42216328D01*
X37707548Y-42217999D01*
X37935079Y-42217999D01*
X38003200Y-42238001D01*
X38049693Y-42291657D01*
X38061079Y-42343999D01*
X38061079Y-43615812D01*
X38060552Y-43626995D01*
X38058877Y-43634488D01*
X38059126Y-43642414D01*
X38059126Y-43642415D01*
X38061017Y-43702565D01*
X38061079Y-43706524D01*
X38061079Y-43734435D01*
X38061576Y-43738369D01*
X38061576Y-43738370D01*
X38061584Y-43738435D01*
X38062517Y-43750272D01*
X38063906Y-43794468D01*
X38069557Y-43813918D01*
X38073566Y-43833279D01*
X38076105Y-43853376D01*
X38079024Y-43860747D01*
X38079024Y-43860749D01*
X38092383Y-43894491D01*
X38096228Y-43905721D01*
X38108561Y-43948172D01*
X38112594Y-43954991D01*
X38112596Y-43954996D01*
X38118872Y-43965607D01*
X38127567Y-43983355D01*
X38135027Y-44002196D01*
X38139689Y-44008612D01*
X38139689Y-44008613D01*
X38161015Y-44037966D01*
X38167531Y-44047886D01*
X38176625Y-44063262D01*
X38190037Y-44085941D01*
X38204358Y-44100262D01*
X38217198Y-44115295D01*
X38229107Y-44131686D01*
X38235213Y-44136737D01*
X38263184Y-44159877D01*
X38271963Y-44167867D01*
X42394116Y-48290020D01*
X42428142Y-48352332D01*
X42431021Y-48379115D01*
X42431021Y-57054786D01*
X42411019Y-57122907D01*
X42357363Y-57169400D01*
X42287089Y-57179504D01*
X42238252Y-57161641D01*
X42135236Y-57097269D01*
X41878625Y-56983018D01*
X41608610Y-56905593D01*
X41604260Y-56904982D01*
X41604257Y-56904981D01*
X41501310Y-56890513D01*
X41330448Y-56866500D01*
X41119854Y-56866500D01*
X41117668Y-56866653D01*
X41117664Y-56866653D01*
X40914173Y-56880882D01*
X40914168Y-56880883D01*
X40909788Y-56881189D01*
X40635030Y-56939591D01*
X40630901Y-56941094D01*
X40630897Y-56941095D01*
X40375219Y-57034154D01*
X40375215Y-57034156D01*
X40371074Y-57035663D01*
X40123058Y-57167536D01*
X40119499Y-57170122D01*
X40119497Y-57170123D01*
X39921420Y-57314034D01*
X39895808Y-57332642D01*
X39892644Y-57335698D01*
X39892641Y-57335700D01*
X39804604Y-57420717D01*
X39693748Y-57527769D01*
X39520812Y-57749118D01*
X39518616Y-57752922D01*
X39518611Y-57752929D01*
X39458118Y-57857707D01*
X39406735Y-57906700D01*
X39337022Y-57920136D01*
X39271111Y-57893750D01*
X39229929Y-57835917D01*
X39222999Y-57794707D01*
X39222999Y-57580331D01*
X39222629Y-57573510D01*
X39217105Y-57522648D01*
X39213479Y-57507396D01*
X39168324Y-57386946D01*
X39159786Y-57371351D01*
X39083285Y-57269276D01*
X39070724Y-57256715D01*
X38968649Y-57180214D01*
X38953054Y-57171676D01*
X38832606Y-57126522D01*
X38817351Y-57122895D01*
X38766486Y-57117369D01*
X38759672Y-57117000D01*
X37712115Y-57117000D01*
X37696876Y-57121475D01*
X37695671Y-57122865D01*
X37694000Y-57130548D01*
X37694000Y-60614884D01*
X37698475Y-60630123D01*
X37699865Y-60631328D01*
X37707548Y-60632999D01*
X38587131Y-60632999D01*
X38655252Y-60653001D01*
X38701745Y-60706657D01*
X38711849Y-60776931D01*
X38699448Y-60816103D01*
X38658344Y-60896949D01*
X38658342Y-60896954D01*
X38655923Y-60901712D01*
X38635494Y-60967504D01*
X38589095Y-61116930D01*
X38589094Y-61116936D01*
X38587511Y-61122033D01*
X38557200Y-61350732D01*
X38565854Y-61581268D01*
X38613228Y-61807050D01*
X38615186Y-61812009D01*
X38615187Y-61812011D01*
X38643945Y-61884830D01*
X38697967Y-62021622D01*
X38817647Y-62218849D01*
X38821144Y-62222879D01*
X38899441Y-62313108D01*
X38968847Y-62393092D01*
X38972978Y-62396479D01*
X39143115Y-62535984D01*
X39143121Y-62535988D01*
X39147243Y-62539368D01*
X39347735Y-62653494D01*
X39352751Y-62655315D01*
X39352756Y-62655317D01*
X39559575Y-62730389D01*
X39559579Y-62730390D01*
X39564590Y-62732209D01*
X39569839Y-62733158D01*
X39569842Y-62733159D01*
X39787523Y-62772522D01*
X39787530Y-62772523D01*
X39791607Y-62773260D01*
X39809344Y-62774096D01*
X39814292Y-62774330D01*
X39814299Y-62774330D01*
X39815780Y-62774400D01*
X39977925Y-62774400D01*
X40044881Y-62768719D01*
X40144562Y-62760261D01*
X40144566Y-62760260D01*
X40149873Y-62759810D01*
X40155028Y-62758472D01*
X40155034Y-62758471D01*
X40368003Y-62703195D01*
X40368007Y-62703194D01*
X40373172Y-62701853D01*
X40378038Y-62699661D01*
X40378041Y-62699660D01*
X40578649Y-62609293D01*
X40583515Y-62607101D01*
X40587941Y-62604121D01*
X40587945Y-62604119D01*
X40706916Y-62524023D01*
X40774594Y-62502572D01*
X40843126Y-62521115D01*
X40866378Y-62539448D01*
X42394116Y-64067186D01*
X42428142Y-64129498D01*
X42431021Y-64156281D01*
X42431021Y-76104786D01*
X42411019Y-76172907D01*
X42357363Y-76219400D01*
X42287089Y-76229504D01*
X42238252Y-76211641D01*
X42135236Y-76147269D01*
X41878625Y-76033018D01*
X41608610Y-75955593D01*
X41604260Y-75954982D01*
X41604257Y-75954981D01*
X41501310Y-75940513D01*
X41330448Y-75916500D01*
X41119854Y-75916500D01*
X41117668Y-75916653D01*
X41117664Y-75916653D01*
X40914173Y-75930882D01*
X40914168Y-75930883D01*
X40909788Y-75931189D01*
X40635030Y-75989591D01*
X40630901Y-75991094D01*
X40630897Y-75991095D01*
X40375219Y-76084154D01*
X40375215Y-76084156D01*
X40371074Y-76085663D01*
X40123058Y-76217536D01*
X40119499Y-76220122D01*
X40119497Y-76220123D01*
X40014895Y-76296121D01*
X39895808Y-76382642D01*
X39892644Y-76385698D01*
X39892641Y-76385700D01*
X39803865Y-76471431D01*
X39693748Y-76577769D01*
X39520812Y-76799118D01*
X39518616Y-76802922D01*
X39518611Y-76802929D01*
X39458118Y-76907707D01*
X39406735Y-76956700D01*
X39337022Y-76970136D01*
X39271111Y-76943750D01*
X39229929Y-76885917D01*
X39222999Y-76844707D01*
X39222999Y-76630331D01*
X39222629Y-76623510D01*
X39217105Y-76572648D01*
X39213479Y-76557396D01*
X39168324Y-76436946D01*
X39159786Y-76421351D01*
X39083285Y-76319276D01*
X39070724Y-76306715D01*
X38968649Y-76230214D01*
X38953054Y-76221676D01*
X38832606Y-76176522D01*
X38817351Y-76172895D01*
X38766486Y-76167369D01*
X38759672Y-76167000D01*
X37712115Y-76167000D01*
X37696876Y-76171475D01*
X37695671Y-76172865D01*
X37694000Y-76180548D01*
X37694000Y-79664884D01*
X37186000Y-79664884D01*
X37186000Y-78197115D01*
X37181525Y-78181876D01*
X37180135Y-78180671D01*
X37172452Y-78179000D01*
X35675116Y-78179000D01*
X35659877Y-78183475D01*
X35658672Y-78184865D01*
X35657001Y-78192548D01*
X35657001Y-79219669D01*
X26508000Y-79219669D01*
X26508000Y-77652885D01*
X35657000Y-77652885D01*
X35661475Y-77668124D01*
X35662865Y-77669329D01*
X35670548Y-77671000D01*
X37167885Y-77671000D01*
X37183124Y-77666525D01*
X37184329Y-77665135D01*
X37186000Y-77657452D01*
X37186000Y-76185116D01*
X37181525Y-76169877D01*
X37180135Y-76168672D01*
X37172452Y-76167001D01*
X36120331Y-76167001D01*
X36113510Y-76167371D01*
X36062648Y-76172895D01*
X36047396Y-76176521D01*
X35926946Y-76221676D01*
X35911351Y-76230214D01*
X35809276Y-76306715D01*
X35796715Y-76319276D01*
X35720214Y-76421351D01*
X35711676Y-76436946D01*
X35666522Y-76557394D01*
X35662895Y-76572649D01*
X35657369Y-76623514D01*
X35657000Y-76630328D01*
X35657000Y-77652885D01*
X26508000Y-77652885D01*
X26508000Y-60169669D01*
X35657001Y-60169669D01*
X35657371Y-60176490D01*
X35662895Y-60227352D01*
X35666521Y-60242604D01*
X35711676Y-60363054D01*
X35720214Y-60378649D01*
X35796715Y-60480724D01*
X35809276Y-60493285D01*
X35911351Y-60569786D01*
X35926946Y-60578324D01*
X36047394Y-60623478D01*
X36062649Y-60627105D01*
X36113514Y-60632631D01*
X36120328Y-60633000D01*
X37167885Y-60633000D01*
X37183124Y-60628525D01*
X37184329Y-60627135D01*
X37186000Y-60619452D01*
X37186000Y-59147115D01*
X37181525Y-59131876D01*
X37180135Y-59130671D01*
X37172452Y-59129000D01*
X35675116Y-59129000D01*
X35659877Y-59133475D01*
X35658672Y-59134865D01*
X35657001Y-59142548D01*
X35657001Y-60169669D01*
X26508000Y-60169669D01*
X26508000Y-58602885D01*
X35657000Y-58602885D01*
X35661475Y-58618124D01*
X35662865Y-58619329D01*
X35670548Y-58621000D01*
X37167885Y-58621000D01*
X37183124Y-58616525D01*
X37184329Y-58615135D01*
X37186000Y-58607452D01*
X37186000Y-57135116D01*
X37181525Y-57119877D01*
X37180135Y-57118672D01*
X37172452Y-57117001D01*
X36120331Y-57117001D01*
X36113510Y-57117371D01*
X36062648Y-57122895D01*
X36047396Y-57126521D01*
X35926946Y-57171676D01*
X35911351Y-57180214D01*
X35809276Y-57256715D01*
X35796715Y-57269276D01*
X35720214Y-57371351D01*
X35711676Y-57386946D01*
X35666522Y-57507394D01*
X35662895Y-57522649D01*
X35657369Y-57573514D01*
X35657000Y-57580328D01*
X35657000Y-58602885D01*
X26508000Y-58602885D01*
X26508000Y-41754669D01*
X35657001Y-41754669D01*
X35657371Y-41761490D01*
X35662895Y-41812352D01*
X35666521Y-41827604D01*
X35711676Y-41948054D01*
X35720214Y-41963649D01*
X35796715Y-42065724D01*
X35809276Y-42078285D01*
X35911351Y-42154786D01*
X35926946Y-42163324D01*
X36047394Y-42208478D01*
X36062649Y-42212105D01*
X36113514Y-42217631D01*
X36120328Y-42218000D01*
X37167885Y-42218000D01*
X37183124Y-42213525D01*
X37184329Y-42212135D01*
X37186000Y-42204452D01*
X37186000Y-40732115D01*
X37181525Y-40716876D01*
X37180135Y-40715671D01*
X37172452Y-40714000D01*
X35675116Y-40714000D01*
X35659877Y-40718475D01*
X35658672Y-40719865D01*
X35657001Y-40727548D01*
X35657001Y-41754669D01*
X26508000Y-41754669D01*
X26508000Y-40187885D01*
X35657000Y-40187885D01*
X35661475Y-40203124D01*
X35662865Y-40204329D01*
X35670548Y-40206000D01*
X37167885Y-40206000D01*
X37183124Y-40201525D01*
X37184329Y-40200135D01*
X37186000Y-40192452D01*
X37186000Y-38720116D01*
X37181525Y-38704877D01*
X37180135Y-38703672D01*
X37172452Y-38702001D01*
X36120331Y-38702001D01*
X36113510Y-38702371D01*
X36062648Y-38707895D01*
X36047396Y-38711521D01*
X35926946Y-38756676D01*
X35911351Y-38765214D01*
X35809276Y-38841715D01*
X35796715Y-38854276D01*
X35720214Y-38956351D01*
X35711676Y-38971946D01*
X35666522Y-39092394D01*
X35662895Y-39107649D01*
X35657369Y-39158514D01*
X35657000Y-39165328D01*
X35657000Y-40187885D01*
X26508000Y-40187885D01*
X26508000Y-32086423D01*
X28278703Y-32086423D01*
X28286227Y-32096854D01*
X28425483Y-32209020D01*
X28431657Y-32213408D01*
X28702271Y-32382178D01*
X28708931Y-32385794D01*
X28997852Y-32520827D01*
X29004905Y-32523620D01*
X29307970Y-32622970D01*
X29315282Y-32624888D01*
X29628092Y-32687109D01*
X29635590Y-32688137D01*
X29953610Y-32712328D01*
X29961173Y-32712446D01*
X30279785Y-32698257D01*
X30287326Y-32697465D01*
X30601924Y-32645101D01*
X30609302Y-32643411D01*
X30915355Y-32553625D01*
X30922450Y-32551071D01*
X31215496Y-32425169D01*
X31222263Y-32421765D01*
X31498042Y-32261580D01*
X31504349Y-32257390D01*
X31714305Y-32098889D01*
X31722761Y-32087496D01*
X31716045Y-32075256D01*
X30012810Y-30372020D01*
X29998869Y-30364408D01*
X29997034Y-30364539D01*
X29990420Y-30368790D01*
X28285818Y-32073393D01*
X28278703Y-32086423D01*
X26508000Y-32086423D01*
X26508000Y-29975383D01*
X27287388Y-29975383D01*
X27303245Y-30293914D01*
X27304076Y-30301443D01*
X27358085Y-30615759D01*
X27359818Y-30623146D01*
X27451196Y-30928695D01*
X27453799Y-30935808D01*
X27581227Y-31228173D01*
X27584669Y-31234929D01*
X27746296Y-31509865D01*
X27750519Y-31516150D01*
X27901463Y-31713934D01*
X27912989Y-31722396D01*
X27925054Y-31715735D01*
X29627980Y-30012810D01*
X29634357Y-30001131D01*
X30364408Y-30001131D01*
X30364539Y-30002966D01*
X30368790Y-30009580D01*
X32073285Y-31714074D01*
X32086408Y-31721240D01*
X32096709Y-31713851D01*
X32200751Y-31586055D01*
X32205164Y-31579914D01*
X32375349Y-31310187D01*
X32379005Y-31303536D01*
X32515544Y-31015335D01*
X32518375Y-31008295D01*
X32619306Y-30705767D01*
X32621270Y-30698433D01*
X32642476Y-30594669D01*
X38802001Y-30594669D01*
X38802371Y-30601490D01*
X38807895Y-30652352D01*
X38811521Y-30667604D01*
X38856676Y-30788054D01*
X38865214Y-30803649D01*
X38941715Y-30905724D01*
X38954276Y-30918285D01*
X39056351Y-30994786D01*
X39071946Y-31003324D01*
X39192394Y-31048478D01*
X39207649Y-31052105D01*
X39258514Y-31057631D01*
X39265328Y-31058000D01*
X39887885Y-31058000D01*
X39903124Y-31053525D01*
X39904329Y-31052135D01*
X39906000Y-31044452D01*
X39906000Y-29972115D01*
X39901525Y-29956876D01*
X39900135Y-29955671D01*
X39892452Y-29954000D01*
X38820116Y-29954000D01*
X38804877Y-29958475D01*
X38803672Y-29959865D01*
X38802001Y-29967548D01*
X38802001Y-30594669D01*
X32642476Y-30594669D01*
X32685122Y-30385989D01*
X32686194Y-30378465D01*
X32712173Y-30059051D01*
X32712378Y-30054576D01*
X32712927Y-30002221D01*
X32712817Y-29997789D01*
X32693529Y-29677853D01*
X32692621Y-29670351D01*
X32648339Y-29427885D01*
X38802000Y-29427885D01*
X38806475Y-29443124D01*
X38807865Y-29444329D01*
X38815548Y-29446000D01*
X39887885Y-29446000D01*
X39903124Y-29441525D01*
X39904329Y-29440135D01*
X39906000Y-29432452D01*
X39906000Y-28360116D01*
X39901525Y-28344877D01*
X39900135Y-28343672D01*
X39892452Y-28342001D01*
X39265331Y-28342001D01*
X39258510Y-28342371D01*
X39207648Y-28347895D01*
X39192396Y-28351521D01*
X39071946Y-28396676D01*
X39056351Y-28405214D01*
X38954276Y-28481715D01*
X38941715Y-28494276D01*
X38865214Y-28596351D01*
X38856676Y-28611946D01*
X38811522Y-28732394D01*
X38807895Y-28747649D01*
X38802369Y-28798514D01*
X38802000Y-28805328D01*
X38802000Y-29427885D01*
X32648339Y-29427885D01*
X32635319Y-29356593D01*
X32633518Y-29349260D01*
X32538935Y-29044655D01*
X32536263Y-29037583D01*
X32405781Y-28746570D01*
X32402264Y-28739843D01*
X32237771Y-28466621D01*
X32233481Y-28460377D01*
X32097991Y-28286647D01*
X32086199Y-28278178D01*
X32074486Y-28284725D01*
X30372020Y-29987190D01*
X30364408Y-30001131D01*
X29634357Y-30001131D01*
X29635592Y-29998869D01*
X29635461Y-29997034D01*
X29631210Y-29990420D01*
X27926445Y-28285656D01*
X27913510Y-28278592D01*
X27902949Y-28286252D01*
X27782766Y-28437072D01*
X27778410Y-28443270D01*
X27611059Y-28714764D01*
X27607479Y-28721440D01*
X27473956Y-29011074D01*
X27471206Y-29018125D01*
X27373444Y-29321708D01*
X27371561Y-29329041D01*
X27310979Y-29642170D01*
X27309992Y-29649670D01*
X27287467Y-29967802D01*
X27287388Y-29975383D01*
X26508000Y-29975383D01*
X26508000Y-27913423D01*
X28277917Y-27913423D01*
X28284520Y-27925309D01*
X29987190Y-29627980D01*
X30001131Y-29635592D01*
X30002966Y-29635461D01*
X30009580Y-29631210D01*
X31714559Y-27926230D01*
X31721552Y-27913423D01*
X58277917Y-27913423D01*
X58284520Y-27925309D01*
X59987190Y-29627980D01*
X60001131Y-29635592D01*
X60002966Y-29635461D01*
X60009580Y-29631210D01*
X61714559Y-27926230D01*
X61721571Y-27913389D01*
X61713777Y-27902701D01*
X61551298Y-27774613D01*
X61545075Y-27770288D01*
X61272702Y-27604357D01*
X61266025Y-27600822D01*
X60975686Y-27468813D01*
X60968616Y-27466099D01*
X60664537Y-27369932D01*
X60657186Y-27368085D01*
X60343746Y-27309142D01*
X60336237Y-27308194D01*
X60017989Y-27287335D01*
X60010424Y-27287295D01*
X59691964Y-27304821D01*
X59684450Y-27305690D01*
X59370405Y-27361348D01*
X59363044Y-27363115D01*
X59057980Y-27456092D01*
X59050860Y-27458740D01*
X58759182Y-27587690D01*
X58752445Y-27591167D01*
X58478355Y-27754233D01*
X58472091Y-27758490D01*
X58286385Y-27901762D01*
X58277917Y-27913423D01*
X31721552Y-27913423D01*
X31721571Y-27913389D01*
X31713777Y-27902701D01*
X31551298Y-27774613D01*
X31545075Y-27770288D01*
X31272702Y-27604357D01*
X31266025Y-27600822D01*
X30975686Y-27468813D01*
X30968616Y-27466099D01*
X30664537Y-27369932D01*
X30657186Y-27368085D01*
X30343746Y-27309142D01*
X30336237Y-27308194D01*
X30017989Y-27287335D01*
X30010424Y-27287295D01*
X29691964Y-27304821D01*
X29684450Y-27305690D01*
X29370405Y-27361348D01*
X29363044Y-27363115D01*
X29057980Y-27456092D01*
X29050860Y-27458740D01*
X28759182Y-27587690D01*
X28752445Y-27591167D01*
X28478355Y-27754233D01*
X28472091Y-27758490D01*
X28286385Y-27901762D01*
X28277917Y-27913423D01*
X26508000Y-27913423D01*
X26508000Y-26634000D01*
X26528002Y-26565879D01*
X26581658Y-26519386D01*
X26634000Y-26508000D01*
X63366000Y-26508000D01*
X63434121Y-26528002D01*
G37*
%TD.AperFunction*%
%TD*%
%TA.AperFunction,Conductor*%
%TO.N,GND*%
G36*
X63434121Y-26528002D02*
G01*
X63480614Y-26581658D01*
X63492000Y-26634000D01*
X63492000Y-113366000D01*
X63471998Y-113434121D01*
X63418342Y-113480614D01*
X63366000Y-113492000D01*
X26634000Y-113492000D01*
X26565879Y-113471998D01*
X26519386Y-113418342D01*
X26508000Y-113366000D01*
X26508000Y-112086423D01*
X28278703Y-112086423D01*
X28286227Y-112096854D01*
X28425483Y-112209020D01*
X28431657Y-112213408D01*
X28702271Y-112382178D01*
X28708931Y-112385794D01*
X28997852Y-112520827D01*
X29004905Y-112523620D01*
X29307970Y-112622970D01*
X29315282Y-112624888D01*
X29628092Y-112687109D01*
X29635590Y-112688137D01*
X29953610Y-112712328D01*
X29961173Y-112712446D01*
X30279785Y-112698257D01*
X30287326Y-112697465D01*
X30601924Y-112645101D01*
X30609302Y-112643411D01*
X30915355Y-112553625D01*
X30922450Y-112551071D01*
X31215496Y-112425169D01*
X31222263Y-112421765D01*
X31498042Y-112261580D01*
X31504349Y-112257390D01*
X31714305Y-112098889D01*
X31722761Y-112087496D01*
X31722172Y-112086423D01*
X58278703Y-112086423D01*
X58286227Y-112096854D01*
X58425483Y-112209020D01*
X58431657Y-112213408D01*
X58702271Y-112382178D01*
X58708931Y-112385794D01*
X58997852Y-112520827D01*
X59004905Y-112523620D01*
X59307970Y-112622970D01*
X59315282Y-112624888D01*
X59628092Y-112687109D01*
X59635590Y-112688137D01*
X59953610Y-112712328D01*
X59961173Y-112712446D01*
X60279785Y-112698257D01*
X60287326Y-112697465D01*
X60601924Y-112645101D01*
X60609302Y-112643411D01*
X60915355Y-112553625D01*
X60922450Y-112551071D01*
X61215496Y-112425169D01*
X61222263Y-112421765D01*
X61498042Y-112261580D01*
X61504349Y-112257390D01*
X61714305Y-112098889D01*
X61722761Y-112087496D01*
X61716045Y-112075256D01*
X60012810Y-110372020D01*
X59998869Y-110364408D01*
X59997034Y-110364539D01*
X59990420Y-110368790D01*
X58285818Y-112073393D01*
X58278703Y-112086423D01*
X31722172Y-112086423D01*
X31716045Y-112075256D01*
X30012810Y-110372020D01*
X29998869Y-110364408D01*
X29997034Y-110364539D01*
X29990420Y-110368790D01*
X28285818Y-112073393D01*
X28278703Y-112086423D01*
X26508000Y-112086423D01*
X26508000Y-109975383D01*
X27287388Y-109975383D01*
X27303245Y-110293914D01*
X27304076Y-110301443D01*
X27358085Y-110615759D01*
X27359818Y-110623146D01*
X27451196Y-110928695D01*
X27453799Y-110935808D01*
X27581227Y-111228173D01*
X27584669Y-111234929D01*
X27746296Y-111509865D01*
X27750519Y-111516150D01*
X27901463Y-111713934D01*
X27912989Y-111722396D01*
X27925054Y-111715735D01*
X29627980Y-110012810D01*
X29634357Y-110001131D01*
X30364408Y-110001131D01*
X30364539Y-110002966D01*
X30368790Y-110009580D01*
X32073285Y-111714074D01*
X32086408Y-111721240D01*
X32096709Y-111713851D01*
X32200751Y-111586055D01*
X32205164Y-111579914D01*
X32375349Y-111310187D01*
X32379005Y-111303536D01*
X32515544Y-111015335D01*
X32518375Y-111008295D01*
X32619306Y-110705767D01*
X32621270Y-110698433D01*
X32685122Y-110385989D01*
X32686194Y-110378465D01*
X32712173Y-110059051D01*
X32712378Y-110054576D01*
X32712927Y-110002221D01*
X32712817Y-109997789D01*
X32711466Y-109975383D01*
X57287388Y-109975383D01*
X57303245Y-110293914D01*
X57304076Y-110301443D01*
X57358085Y-110615759D01*
X57359818Y-110623146D01*
X57451196Y-110928695D01*
X57453799Y-110935808D01*
X57581227Y-111228173D01*
X57584669Y-111234929D01*
X57746296Y-111509865D01*
X57750519Y-111516150D01*
X57901463Y-111713934D01*
X57912989Y-111722396D01*
X57925054Y-111715735D01*
X59627980Y-110012810D01*
X59634357Y-110001131D01*
X60364408Y-110001131D01*
X60364539Y-110002966D01*
X60368790Y-110009580D01*
X62073285Y-111714074D01*
X62086408Y-111721240D01*
X62096709Y-111713851D01*
X62200751Y-111586055D01*
X62205164Y-111579914D01*
X62375349Y-111310187D01*
X62379005Y-111303536D01*
X62515544Y-111015335D01*
X62518375Y-111008295D01*
X62619306Y-110705767D01*
X62621270Y-110698433D01*
X62685122Y-110385989D01*
X62686194Y-110378465D01*
X62712173Y-110059051D01*
X62712378Y-110054576D01*
X62712927Y-110002221D01*
X62712817Y-109997789D01*
X62693529Y-109677853D01*
X62692621Y-109670351D01*
X62635319Y-109356593D01*
X62633518Y-109349260D01*
X62538935Y-109044655D01*
X62536263Y-109037583D01*
X62405781Y-108746570D01*
X62402264Y-108739843D01*
X62237771Y-108466621D01*
X62233481Y-108460377D01*
X62097991Y-108286647D01*
X62086199Y-108278178D01*
X62074486Y-108284725D01*
X60372020Y-109987190D01*
X60364408Y-110001131D01*
X59634357Y-110001131D01*
X59635592Y-109998869D01*
X59635461Y-109997034D01*
X59631210Y-109990420D01*
X57926445Y-108285656D01*
X57913510Y-108278592D01*
X57902949Y-108286252D01*
X57782766Y-108437072D01*
X57778410Y-108443270D01*
X57611059Y-108714764D01*
X57607479Y-108721440D01*
X57473956Y-109011074D01*
X57471206Y-109018125D01*
X57373444Y-109321708D01*
X57371561Y-109329041D01*
X57310979Y-109642170D01*
X57309992Y-109649670D01*
X57287467Y-109967802D01*
X57287388Y-109975383D01*
X32711466Y-109975383D01*
X32693529Y-109677853D01*
X32692621Y-109670351D01*
X32635319Y-109356593D01*
X32633518Y-109349260D01*
X32538935Y-109044655D01*
X32536263Y-109037583D01*
X32405781Y-108746570D01*
X32402264Y-108739843D01*
X32237771Y-108466621D01*
X32233481Y-108460377D01*
X32097991Y-108286647D01*
X32086199Y-108278178D01*
X32074486Y-108284725D01*
X30372020Y-109987190D01*
X30364408Y-110001131D01*
X29634357Y-110001131D01*
X29635592Y-109998869D01*
X29635461Y-109997034D01*
X29631210Y-109990420D01*
X27926445Y-108285656D01*
X27913510Y-108278592D01*
X27902949Y-108286252D01*
X27782766Y-108437072D01*
X27778410Y-108443270D01*
X27611059Y-108714764D01*
X27607479Y-108721440D01*
X27473956Y-109011074D01*
X27471206Y-109018125D01*
X27373444Y-109321708D01*
X27371561Y-109329041D01*
X27310979Y-109642170D01*
X27309992Y-109649670D01*
X27287467Y-109967802D01*
X27287388Y-109975383D01*
X26508000Y-109975383D01*
X26508000Y-107913423D01*
X28277917Y-107913423D01*
X28284520Y-107925309D01*
X29987190Y-109627980D01*
X30001131Y-109635592D01*
X30002966Y-109635461D01*
X30009580Y-109631210D01*
X31714559Y-107926230D01*
X31721552Y-107913423D01*
X58277917Y-107913423D01*
X58284520Y-107925309D01*
X59987190Y-109627980D01*
X60001131Y-109635592D01*
X60002966Y-109635461D01*
X60009580Y-109631210D01*
X61714559Y-107926230D01*
X61721571Y-107913389D01*
X61713777Y-107902701D01*
X61551298Y-107774613D01*
X61545075Y-107770288D01*
X61272702Y-107604357D01*
X61266025Y-107600822D01*
X60975686Y-107468813D01*
X60968616Y-107466099D01*
X60664537Y-107369932D01*
X60657186Y-107368085D01*
X60343746Y-107309142D01*
X60336237Y-107308194D01*
X60017989Y-107287335D01*
X60010424Y-107287295D01*
X59691964Y-107304821D01*
X59684450Y-107305690D01*
X59370405Y-107361348D01*
X59363044Y-107363115D01*
X59057980Y-107456092D01*
X59050860Y-107458740D01*
X58759182Y-107587690D01*
X58752445Y-107591167D01*
X58478355Y-107754233D01*
X58472091Y-107758490D01*
X58286385Y-107901762D01*
X58277917Y-107913423D01*
X31721552Y-107913423D01*
X31721571Y-107913389D01*
X31713777Y-107902701D01*
X31551298Y-107774613D01*
X31545075Y-107770288D01*
X31272702Y-107604357D01*
X31266025Y-107600822D01*
X30975686Y-107468813D01*
X30968616Y-107466099D01*
X30664537Y-107369932D01*
X30657186Y-107368085D01*
X30343746Y-107309142D01*
X30336237Y-107308194D01*
X30017989Y-107287335D01*
X30010424Y-107287295D01*
X29691964Y-107304821D01*
X29684450Y-107305690D01*
X29370405Y-107361348D01*
X29363044Y-107363115D01*
X29057980Y-107456092D01*
X29050860Y-107458740D01*
X28759182Y-107587690D01*
X28752445Y-107591167D01*
X28478355Y-107754233D01*
X28472091Y-107758490D01*
X28286385Y-107901762D01*
X28277917Y-107913423D01*
X26508000Y-107913423D01*
X26508000Y-98904669D01*
X35657001Y-98904669D01*
X35657371Y-98911490D01*
X35662895Y-98962352D01*
X35666521Y-98977604D01*
X35711676Y-99098054D01*
X35720214Y-99113649D01*
X35796715Y-99215724D01*
X35809276Y-99228285D01*
X35911351Y-99304786D01*
X35926946Y-99313324D01*
X36047394Y-99358478D01*
X36062649Y-99362105D01*
X36113514Y-99367631D01*
X36120328Y-99368000D01*
X37167885Y-99368000D01*
X37183124Y-99363525D01*
X37184329Y-99362135D01*
X37186000Y-99354452D01*
X37186000Y-99349884D01*
X37694000Y-99349884D01*
X37698475Y-99365123D01*
X37699865Y-99366328D01*
X37707548Y-99367999D01*
X38587131Y-99367999D01*
X38655252Y-99388001D01*
X38701745Y-99441657D01*
X38711849Y-99511931D01*
X38699448Y-99551103D01*
X38658344Y-99631949D01*
X38658342Y-99631954D01*
X38655923Y-99636712D01*
X38643620Y-99676335D01*
X38589095Y-99851930D01*
X38589094Y-99851936D01*
X38587511Y-99857033D01*
X38557200Y-100085732D01*
X38565854Y-100316268D01*
X38613228Y-100542050D01*
X38615186Y-100547009D01*
X38615187Y-100547011D01*
X38643945Y-100619830D01*
X38697967Y-100756622D01*
X38817647Y-100953849D01*
X38821144Y-100957879D01*
X38907768Y-101057704D01*
X38968847Y-101128092D01*
X38972978Y-101131479D01*
X39143115Y-101270984D01*
X39143121Y-101270988D01*
X39147243Y-101274368D01*
X39347735Y-101388494D01*
X39352751Y-101390315D01*
X39352756Y-101390317D01*
X39559575Y-101465389D01*
X39559579Y-101465390D01*
X39564590Y-101467209D01*
X39569839Y-101468158D01*
X39569842Y-101468159D01*
X39787523Y-101507522D01*
X39787530Y-101507523D01*
X39791607Y-101508260D01*
X39809344Y-101509096D01*
X39814292Y-101509330D01*
X39814299Y-101509330D01*
X39815780Y-101509400D01*
X39977925Y-101509400D01*
X40044881Y-101503719D01*
X40144562Y-101495261D01*
X40144566Y-101495260D01*
X40149873Y-101494810D01*
X40155028Y-101493472D01*
X40155034Y-101493471D01*
X40368003Y-101438195D01*
X40368007Y-101438194D01*
X40373172Y-101436853D01*
X40378038Y-101434661D01*
X40378041Y-101434660D01*
X40578649Y-101344293D01*
X40583515Y-101342101D01*
X40587935Y-101339125D01*
X40587939Y-101339123D01*
X40763333Y-101221039D01*
X40774885Y-101213262D01*
X40941812Y-101054022D01*
X41019738Y-100949286D01*
X41076337Y-100873214D01*
X41076339Y-100873211D01*
X41079521Y-100868934D01*
X41134305Y-100761183D01*
X41181658Y-100668046D01*
X41181658Y-100668045D01*
X41184077Y-100663288D01*
X41223343Y-100536831D01*
X41250905Y-100448070D01*
X41250906Y-100448064D01*
X41252489Y-100442967D01*
X41282800Y-100214268D01*
X41274146Y-99983732D01*
X41228104Y-99764298D01*
X41233691Y-99693523D01*
X41276656Y-99637003D01*
X41342629Y-99612732D01*
X41387257Y-99609612D01*
X41465828Y-99604118D01*
X41465834Y-99604117D01*
X41470212Y-99603811D01*
X41744970Y-99545409D01*
X41749099Y-99543906D01*
X41749103Y-99543905D01*
X42004781Y-99450846D01*
X42004785Y-99450844D01*
X42008926Y-99449337D01*
X42256942Y-99317464D01*
X42262641Y-99313324D01*
X42441327Y-99183501D01*
X42508195Y-99159642D01*
X42577347Y-99175723D01*
X42626827Y-99226637D01*
X42640926Y-99296220D01*
X42632540Y-99331820D01*
X42615370Y-99375187D01*
X42537064Y-99680170D01*
X42497600Y-99992562D01*
X42497600Y-100307438D01*
X42537064Y-100619830D01*
X42615370Y-100924813D01*
X42731284Y-101217577D01*
X42733186Y-101221036D01*
X42733187Y-101221039D01*
X42867520Y-101465389D01*
X42882976Y-101493504D01*
X43068055Y-101748244D01*
X43283602Y-101977778D01*
X43526218Y-102178487D01*
X43792076Y-102347206D01*
X43795655Y-102348890D01*
X43795662Y-102348894D01*
X44073394Y-102479584D01*
X44073398Y-102479586D01*
X44076984Y-102481273D01*
X44376448Y-102578575D01*
X44685746Y-102637577D01*
X44779300Y-102643463D01*
X44919358Y-102652275D01*
X44919374Y-102652276D01*
X44921353Y-102652400D01*
X45078647Y-102652400D01*
X45080626Y-102652276D01*
X45080642Y-102652275D01*
X45220700Y-102643463D01*
X45314254Y-102637577D01*
X45623552Y-102578575D01*
X45923016Y-102481273D01*
X45926602Y-102479586D01*
X45926606Y-102479584D01*
X46204338Y-102348894D01*
X46204345Y-102348890D01*
X46207924Y-102347206D01*
X46473782Y-102178487D01*
X46716398Y-101977778D01*
X46931945Y-101748244D01*
X47117024Y-101493504D01*
X47132481Y-101465389D01*
X47266813Y-101221039D01*
X47266814Y-101221036D01*
X47268716Y-101217577D01*
X47384630Y-100924813D01*
X47462936Y-100619830D01*
X47502400Y-100307438D01*
X47502400Y-100085732D01*
X48717200Y-100085732D01*
X48725854Y-100316268D01*
X48773228Y-100542050D01*
X48775186Y-100547009D01*
X48775187Y-100547011D01*
X48803945Y-100619830D01*
X48857967Y-100756622D01*
X48977647Y-100953849D01*
X48981144Y-100957879D01*
X49067768Y-101057704D01*
X49128847Y-101128092D01*
X49132978Y-101131479D01*
X49303115Y-101270984D01*
X49303121Y-101270988D01*
X49307243Y-101274368D01*
X49507735Y-101388494D01*
X49512751Y-101390315D01*
X49512756Y-101390317D01*
X49719575Y-101465389D01*
X49719579Y-101465390D01*
X49724590Y-101467209D01*
X49729839Y-101468158D01*
X49729842Y-101468159D01*
X49947523Y-101507522D01*
X49947530Y-101507523D01*
X49951607Y-101508260D01*
X49969344Y-101509096D01*
X49974292Y-101509330D01*
X49974299Y-101509330D01*
X49975780Y-101509400D01*
X50137925Y-101509400D01*
X50204881Y-101503719D01*
X50304562Y-101495261D01*
X50304566Y-101495260D01*
X50309873Y-101494810D01*
X50315028Y-101493472D01*
X50315034Y-101493471D01*
X50528003Y-101438195D01*
X50528007Y-101438194D01*
X50533172Y-101436853D01*
X50538038Y-101434661D01*
X50538041Y-101434660D01*
X50738649Y-101344293D01*
X50743515Y-101342101D01*
X50747935Y-101339125D01*
X50747939Y-101339123D01*
X50923333Y-101221039D01*
X50934885Y-101213262D01*
X51101812Y-101054022D01*
X51179738Y-100949286D01*
X51236337Y-100873214D01*
X51236339Y-100873211D01*
X51239521Y-100868934D01*
X51294305Y-100761183D01*
X51341658Y-100668046D01*
X51341658Y-100668045D01*
X51344077Y-100663288D01*
X51383343Y-100536831D01*
X51410905Y-100448070D01*
X51410906Y-100448064D01*
X51412489Y-100442967D01*
X51442800Y-100214268D01*
X51434146Y-99983732D01*
X51386772Y-99757950D01*
X51361329Y-99693523D01*
X51338893Y-99636712D01*
X51302033Y-99543378D01*
X51194597Y-99366328D01*
X51185122Y-99350714D01*
X51185121Y-99350713D01*
X51182353Y-99346151D01*
X51095428Y-99245978D01*
X51034653Y-99175941D01*
X51034651Y-99175939D01*
X51031153Y-99171908D01*
X50941082Y-99098054D01*
X50856885Y-99029016D01*
X50856879Y-99029012D01*
X50852757Y-99025632D01*
X50652265Y-98911506D01*
X50647249Y-98909685D01*
X50647244Y-98909683D01*
X50440425Y-98834611D01*
X50440421Y-98834610D01*
X50435410Y-98832791D01*
X50430161Y-98831842D01*
X50430158Y-98831841D01*
X50212477Y-98792478D01*
X50212470Y-98792477D01*
X50208393Y-98791740D01*
X50190656Y-98790904D01*
X50185708Y-98790670D01*
X50185701Y-98790670D01*
X50184220Y-98790600D01*
X50022075Y-98790600D01*
X49955119Y-98796281D01*
X49855438Y-98804739D01*
X49855434Y-98804740D01*
X49850127Y-98805190D01*
X49844972Y-98806528D01*
X49844966Y-98806529D01*
X49631997Y-98861805D01*
X49631993Y-98861806D01*
X49626828Y-98863147D01*
X49621962Y-98865339D01*
X49621959Y-98865340D01*
X49519474Y-98911506D01*
X49416485Y-98957899D01*
X49412065Y-98960875D01*
X49412061Y-98960877D01*
X49387216Y-98977604D01*
X49225115Y-99086738D01*
X49058188Y-99245978D01*
X49055000Y-99250263D01*
X48964785Y-99371517D01*
X48920479Y-99431066D01*
X48918064Y-99435816D01*
X48863377Y-99543378D01*
X48815923Y-99636712D01*
X48803620Y-99676335D01*
X48749095Y-99851930D01*
X48749094Y-99851936D01*
X48747511Y-99857033D01*
X48717200Y-100085732D01*
X47502400Y-100085732D01*
X47502400Y-99992562D01*
X47462936Y-99680170D01*
X47384630Y-99375187D01*
X47381785Y-99368000D01*
X47308736Y-99183501D01*
X47268716Y-99082423D01*
X47266813Y-99078961D01*
X47118933Y-98809968D01*
X47118931Y-98809965D01*
X47117024Y-98806496D01*
X46931945Y-98551756D01*
X46716398Y-98322222D01*
X46473782Y-98121513D01*
X46207924Y-97952794D01*
X46204345Y-97951110D01*
X46204338Y-97951106D01*
X45926606Y-97820416D01*
X45926602Y-97820414D01*
X45923016Y-97818727D01*
X45623552Y-97721425D01*
X45314254Y-97662423D01*
X45220700Y-97656537D01*
X45080642Y-97647725D01*
X45080626Y-97647724D01*
X45078647Y-97647600D01*
X44921353Y-97647600D01*
X44919374Y-97647724D01*
X44919358Y-97647725D01*
X44779300Y-97656537D01*
X44685746Y-97662423D01*
X44376448Y-97721425D01*
X44076984Y-97818727D01*
X44073398Y-97820414D01*
X44073394Y-97820416D01*
X43795662Y-97951106D01*
X43795655Y-97951110D01*
X43792076Y-97952794D01*
X43526218Y-98121513D01*
X43446249Y-98187669D01*
X43325413Y-98287633D01*
X43260176Y-98315643D01*
X43190151Y-98303936D01*
X43137571Y-98256229D01*
X43119131Y-98187669D01*
X43122841Y-98160066D01*
X43171753Y-97963893D01*
X43171754Y-97963888D01*
X43172817Y-97959624D01*
X43173713Y-97951106D01*
X43201719Y-97684636D01*
X43201719Y-97684633D01*
X43202178Y-97680267D01*
X43201555Y-97662423D01*
X43192529Y-97403939D01*
X43192528Y-97403933D01*
X43192375Y-97399542D01*
X43184698Y-97356000D01*
X43144360Y-97127236D01*
X43143598Y-97122913D01*
X43056797Y-96855765D01*
X43053750Y-96849516D01*
X42994180Y-96727381D01*
X42933660Y-96603298D01*
X42931205Y-96599659D01*
X42931202Y-96599653D01*
X42821973Y-96437715D01*
X42776585Y-96370424D01*
X42771447Y-96364717D01*
X42591566Y-96164940D01*
X42588629Y-96161678D01*
X42373450Y-95981121D01*
X42135236Y-95832269D01*
X41878625Y-95718018D01*
X41608610Y-95640593D01*
X41604260Y-95639982D01*
X41604257Y-95639981D01*
X41501310Y-95625513D01*
X41330448Y-95601500D01*
X41119854Y-95601500D01*
X41117668Y-95601653D01*
X41117664Y-95601653D01*
X40914173Y-95615882D01*
X40914168Y-95615883D01*
X40909788Y-95616189D01*
X40635030Y-95674591D01*
X40630901Y-95676094D01*
X40630897Y-95676095D01*
X40375219Y-95769154D01*
X40375215Y-95769156D01*
X40371074Y-95770663D01*
X40123058Y-95902536D01*
X40119499Y-95905122D01*
X40119497Y-95905123D01*
X40014895Y-95981121D01*
X39895808Y-96067642D01*
X39892644Y-96070698D01*
X39892641Y-96070700D01*
X39803865Y-96156431D01*
X39693748Y-96262769D01*
X39520812Y-96484118D01*
X39518616Y-96487922D01*
X39518611Y-96487929D01*
X39458118Y-96592707D01*
X39406735Y-96641700D01*
X39337022Y-96655136D01*
X39271111Y-96628750D01*
X39229929Y-96570917D01*
X39222999Y-96529707D01*
X39222999Y-96315331D01*
X39222629Y-96308510D01*
X39217105Y-96257648D01*
X39213479Y-96242396D01*
X39168324Y-96121946D01*
X39159786Y-96106351D01*
X39083285Y-96004276D01*
X39070724Y-95991715D01*
X38968649Y-95915214D01*
X38953054Y-95906676D01*
X38832606Y-95861522D01*
X38817351Y-95857895D01*
X38766486Y-95852369D01*
X38759672Y-95852000D01*
X37712115Y-95852000D01*
X37696876Y-95856475D01*
X37695671Y-95857865D01*
X37694000Y-95865548D01*
X37694000Y-99349884D01*
X37186000Y-99349884D01*
X37186000Y-97882115D01*
X37181525Y-97866876D01*
X37180135Y-97865671D01*
X37172452Y-97864000D01*
X35675116Y-97864000D01*
X35659877Y-97868475D01*
X35658672Y-97869865D01*
X35657001Y-97877548D01*
X35657001Y-98904669D01*
X26508000Y-98904669D01*
X26508000Y-97337885D01*
X35657000Y-97337885D01*
X35661475Y-97353124D01*
X35662865Y-97354329D01*
X35670548Y-97356000D01*
X37167885Y-97356000D01*
X37183124Y-97351525D01*
X37184329Y-97350135D01*
X37186000Y-97342452D01*
X37186000Y-95870116D01*
X37181525Y-95854877D01*
X37180135Y-95853672D01*
X37172452Y-95852001D01*
X36120331Y-95852001D01*
X36113510Y-95852371D01*
X36062648Y-95857895D01*
X36047396Y-95861521D01*
X35926946Y-95906676D01*
X35911351Y-95915214D01*
X35809276Y-95991715D01*
X35796715Y-96004276D01*
X35720214Y-96106351D01*
X35711676Y-96121946D01*
X35666522Y-96242394D01*
X35662895Y-96257649D01*
X35657369Y-96308514D01*
X35657000Y-96315328D01*
X35657000Y-97337885D01*
X26508000Y-97337885D01*
X26508000Y-79219669D01*
X35657001Y-79219669D01*
X35657371Y-79226490D01*
X35662895Y-79277352D01*
X35666521Y-79292604D01*
X35711676Y-79413054D01*
X35720214Y-79428649D01*
X35796715Y-79530724D01*
X35809276Y-79543285D01*
X35911351Y-79619786D01*
X35926946Y-79628324D01*
X36047394Y-79673478D01*
X36062649Y-79677105D01*
X36113514Y-79682631D01*
X36120328Y-79683000D01*
X37167885Y-79683000D01*
X37183124Y-79678525D01*
X37184329Y-79677135D01*
X37186000Y-79669452D01*
X37186000Y-79664884D01*
X37694000Y-79664884D01*
X37698475Y-79680123D01*
X37699865Y-79681328D01*
X37707548Y-79682999D01*
X38587131Y-79682999D01*
X38655252Y-79703001D01*
X38701745Y-79756657D01*
X38711849Y-79826931D01*
X38699448Y-79866103D01*
X38658344Y-79946949D01*
X38658342Y-79946954D01*
X38655923Y-79951712D01*
X38643620Y-79991335D01*
X38589095Y-80166930D01*
X38589094Y-80166936D01*
X38587511Y-80172033D01*
X38557200Y-80400732D01*
X38565854Y-80631268D01*
X38613228Y-80857050D01*
X38615186Y-80862009D01*
X38615187Y-80862011D01*
X38643945Y-80934830D01*
X38697967Y-81071622D01*
X38817647Y-81268849D01*
X38821144Y-81272879D01*
X38907768Y-81372704D01*
X38968847Y-81443092D01*
X38972978Y-81446479D01*
X39143115Y-81585984D01*
X39143121Y-81585988D01*
X39147243Y-81589368D01*
X39347735Y-81703494D01*
X39352751Y-81705315D01*
X39352756Y-81705317D01*
X39559575Y-81780389D01*
X39559579Y-81780390D01*
X39564590Y-81782209D01*
X39569839Y-81783158D01*
X39569842Y-81783159D01*
X39787523Y-81822522D01*
X39787530Y-81822523D01*
X39791607Y-81823260D01*
X39809344Y-81824096D01*
X39814292Y-81824330D01*
X39814299Y-81824330D01*
X39815780Y-81824400D01*
X39977925Y-81824400D01*
X40044881Y-81818719D01*
X40144562Y-81810261D01*
X40144566Y-81810260D01*
X40149873Y-81809810D01*
X40155028Y-81808472D01*
X40155034Y-81808471D01*
X40368003Y-81753195D01*
X40368007Y-81753194D01*
X40373172Y-81751853D01*
X40378038Y-81749661D01*
X40378041Y-81749660D01*
X40578649Y-81659293D01*
X40583515Y-81657101D01*
X40587935Y-81654125D01*
X40587939Y-81654123D01*
X40763333Y-81536039D01*
X40774885Y-81528262D01*
X40941812Y-81369022D01*
X41019738Y-81264286D01*
X41076337Y-81188214D01*
X41076339Y-81188211D01*
X41079521Y-81183934D01*
X41094636Y-81154205D01*
X41143339Y-81102547D01*
X41212239Y-81085421D01*
X41279461Y-81108263D01*
X41323662Y-81163822D01*
X41332953Y-81211310D01*
X41332953Y-85667686D01*
X41332426Y-85678869D01*
X41330751Y-85686362D01*
X41331000Y-85694288D01*
X41331000Y-85694289D01*
X41332891Y-85754439D01*
X41332953Y-85758398D01*
X41332953Y-85786309D01*
X41333450Y-85790243D01*
X41333450Y-85790244D01*
X41333458Y-85790309D01*
X41334391Y-85802146D01*
X41335780Y-85846342D01*
X41341431Y-85865792D01*
X41345440Y-85885153D01*
X41347979Y-85905250D01*
X41350898Y-85912621D01*
X41350898Y-85912623D01*
X41364257Y-85946365D01*
X41368102Y-85957595D01*
X41380435Y-86000046D01*
X41384468Y-86006865D01*
X41384470Y-86006870D01*
X41390746Y-86017481D01*
X41399441Y-86035229D01*
X41406901Y-86054070D01*
X41411563Y-86060486D01*
X41411563Y-86060487D01*
X41432889Y-86089840D01*
X41439405Y-86099760D01*
X41461911Y-86137815D01*
X41476232Y-86152136D01*
X41489072Y-86167169D01*
X41500981Y-86183560D01*
X41507087Y-86188611D01*
X41535058Y-86211751D01*
X41543837Y-86219741D01*
X48267558Y-92943462D01*
X48301584Y-93005774D01*
X48296519Y-93076589D01*
X48253972Y-93133425D01*
X48187452Y-93158236D01*
X48143734Y-93153676D01*
X47958610Y-93100593D01*
X47954260Y-93099982D01*
X47954257Y-93099981D01*
X47851310Y-93085513D01*
X47680448Y-93061500D01*
X47469854Y-93061500D01*
X47467668Y-93061653D01*
X47467664Y-93061653D01*
X47264173Y-93075882D01*
X47264168Y-93075883D01*
X47259788Y-93076189D01*
X46985030Y-93134591D01*
X46980901Y-93136094D01*
X46980897Y-93136095D01*
X46725219Y-93229154D01*
X46725215Y-93229156D01*
X46721074Y-93230663D01*
X46473058Y-93362536D01*
X46469499Y-93365122D01*
X46469497Y-93365123D01*
X46333516Y-93463919D01*
X46245808Y-93527642D01*
X46043748Y-93722769D01*
X45870812Y-93944118D01*
X45868616Y-93947922D01*
X45868611Y-93947929D01*
X45802003Y-94063298D01*
X45730364Y-94187381D01*
X45625138Y-94447824D01*
X45557183Y-94720376D01*
X45527822Y-94999733D01*
X45537625Y-95280458D01*
X45586402Y-95557087D01*
X45673203Y-95824235D01*
X45675131Y-95828188D01*
X45675133Y-95828193D01*
X45710385Y-95900470D01*
X45796340Y-96076702D01*
X45798795Y-96080341D01*
X45798798Y-96080347D01*
X45826857Y-96121946D01*
X45953415Y-96309576D01*
X46141371Y-96518322D01*
X46356550Y-96698879D01*
X46594764Y-96847731D01*
X46851375Y-96961982D01*
X47121390Y-97039407D01*
X47125740Y-97040018D01*
X47125743Y-97040019D01*
X47228690Y-97054487D01*
X47399552Y-97078500D01*
X47610146Y-97078500D01*
X47612332Y-97078347D01*
X47612336Y-97078347D01*
X47815827Y-97064118D01*
X47815832Y-97064117D01*
X47820212Y-97063811D01*
X48094970Y-97005409D01*
X48099099Y-97003906D01*
X48099103Y-97003905D01*
X48354781Y-96910846D01*
X48354785Y-96910844D01*
X48358926Y-96909337D01*
X48606942Y-96777464D01*
X48711896Y-96701211D01*
X48830629Y-96614947D01*
X48830632Y-96614944D01*
X48834192Y-96612358D01*
X48839482Y-96607250D01*
X48966988Y-96484118D01*
X49036252Y-96417231D01*
X49209188Y-96195882D01*
X49211384Y-96192078D01*
X49211389Y-96192071D01*
X49271381Y-96088161D01*
X49322764Y-96039168D01*
X49392477Y-96025732D01*
X49458388Y-96052118D01*
X49499570Y-96109951D01*
X49506500Y-96151161D01*
X49506500Y-96368134D01*
X49513255Y-96430316D01*
X49564385Y-96566705D01*
X49651739Y-96683261D01*
X49768295Y-96770615D01*
X49904684Y-96821745D01*
X49966866Y-96828500D01*
X52613134Y-96828500D01*
X52675316Y-96821745D01*
X52811705Y-96770615D01*
X52928261Y-96683261D01*
X53015615Y-96566705D01*
X53066745Y-96430316D01*
X53073500Y-96368134D01*
X53073500Y-93771866D01*
X53066745Y-93709684D01*
X53015615Y-93573295D01*
X52928261Y-93456739D01*
X52811705Y-93369385D01*
X52675316Y-93318255D01*
X52613134Y-93311500D01*
X50479594Y-93311500D01*
X50411473Y-93291498D01*
X50390499Y-93274595D01*
X42636858Y-85520953D01*
X42602832Y-85458641D01*
X42599953Y-85431858D01*
X42599953Y-81784425D01*
X42619955Y-81716304D01*
X42673611Y-81669811D01*
X42743885Y-81659707D01*
X42808465Y-81689201D01*
X42836368Y-81723723D01*
X42882976Y-81808504D01*
X43068055Y-82063244D01*
X43283602Y-82292778D01*
X43526218Y-82493487D01*
X43792076Y-82662206D01*
X43795655Y-82663890D01*
X43795662Y-82663894D01*
X44073394Y-82794584D01*
X44073398Y-82794586D01*
X44076984Y-82796273D01*
X44376448Y-82893575D01*
X44685746Y-82952577D01*
X44779300Y-82958463D01*
X44919358Y-82967275D01*
X44919374Y-82967276D01*
X44921353Y-82967400D01*
X45078647Y-82967400D01*
X45080626Y-82967276D01*
X45080642Y-82967275D01*
X45220700Y-82958463D01*
X45314254Y-82952577D01*
X45623552Y-82893575D01*
X45923016Y-82796273D01*
X45926602Y-82794586D01*
X45926606Y-82794584D01*
X46204338Y-82663894D01*
X46204345Y-82663890D01*
X46207924Y-82662206D01*
X46473782Y-82493487D01*
X46716398Y-82292778D01*
X46931945Y-82063244D01*
X47117024Y-81808504D01*
X47132481Y-81780389D01*
X47266813Y-81536039D01*
X47266814Y-81536036D01*
X47268716Y-81532577D01*
X47384630Y-81239813D01*
X47462936Y-80934830D01*
X47502400Y-80622438D01*
X47502400Y-80400732D01*
X48717200Y-80400732D01*
X48725854Y-80631268D01*
X48773228Y-80857050D01*
X48775186Y-80862009D01*
X48775187Y-80862011D01*
X48803945Y-80934830D01*
X48857967Y-81071622D01*
X48977647Y-81268849D01*
X48981144Y-81272879D01*
X49067768Y-81372704D01*
X49128847Y-81443092D01*
X49132978Y-81446479D01*
X49303115Y-81585984D01*
X49303121Y-81585988D01*
X49307243Y-81589368D01*
X49507735Y-81703494D01*
X49512751Y-81705315D01*
X49512756Y-81705317D01*
X49719575Y-81780389D01*
X49719579Y-81780390D01*
X49724590Y-81782209D01*
X49729839Y-81783158D01*
X49729842Y-81783159D01*
X49947523Y-81822522D01*
X49947530Y-81822523D01*
X49951607Y-81823260D01*
X49969344Y-81824096D01*
X49974292Y-81824330D01*
X49974299Y-81824330D01*
X49975780Y-81824400D01*
X50137925Y-81824400D01*
X50204881Y-81818719D01*
X50304562Y-81810261D01*
X50304566Y-81810260D01*
X50309873Y-81809810D01*
X50315028Y-81808472D01*
X50315034Y-81808471D01*
X50528003Y-81753195D01*
X50528007Y-81753194D01*
X50533172Y-81751853D01*
X50538038Y-81749661D01*
X50538041Y-81749660D01*
X50738649Y-81659293D01*
X50743515Y-81657101D01*
X50747935Y-81654125D01*
X50747939Y-81654123D01*
X50923333Y-81536039D01*
X50934885Y-81528262D01*
X51101812Y-81369022D01*
X51179738Y-81264286D01*
X51236337Y-81188214D01*
X51236339Y-81188211D01*
X51239521Y-81183934D01*
X51294305Y-81076183D01*
X51341658Y-80983046D01*
X51341658Y-80983045D01*
X51344077Y-80978288D01*
X51383343Y-80851831D01*
X51410905Y-80763070D01*
X51410906Y-80763064D01*
X51412489Y-80757967D01*
X51442800Y-80529268D01*
X51434146Y-80298732D01*
X51386772Y-80072950D01*
X51357610Y-79999106D01*
X51338893Y-79951712D01*
X51302033Y-79858378D01*
X51194597Y-79681328D01*
X51185122Y-79665714D01*
X51185121Y-79665713D01*
X51182353Y-79661151D01*
X51095428Y-79560978D01*
X51034653Y-79490941D01*
X51034651Y-79490939D01*
X51031153Y-79486908D01*
X50941082Y-79413054D01*
X50856885Y-79344016D01*
X50856879Y-79344012D01*
X50852757Y-79340632D01*
X50652265Y-79226506D01*
X50647249Y-79224685D01*
X50647244Y-79224683D01*
X50440425Y-79149611D01*
X50440421Y-79149610D01*
X50435410Y-79147791D01*
X50430161Y-79146842D01*
X50430158Y-79146841D01*
X50212477Y-79107478D01*
X50212470Y-79107477D01*
X50208393Y-79106740D01*
X50190656Y-79105904D01*
X50185708Y-79105670D01*
X50185701Y-79105670D01*
X50184220Y-79105600D01*
X50022075Y-79105600D01*
X49955119Y-79111281D01*
X49855438Y-79119739D01*
X49855434Y-79119740D01*
X49850127Y-79120190D01*
X49844972Y-79121528D01*
X49844966Y-79121529D01*
X49631997Y-79176805D01*
X49631993Y-79176806D01*
X49626828Y-79178147D01*
X49621962Y-79180339D01*
X49621959Y-79180340D01*
X49519474Y-79226506D01*
X49416485Y-79272899D01*
X49412065Y-79275875D01*
X49412061Y-79275877D01*
X49387216Y-79292604D01*
X49225115Y-79401738D01*
X49058188Y-79560978D01*
X49055000Y-79565263D01*
X48964785Y-79686517D01*
X48920479Y-79746066D01*
X48918064Y-79750816D01*
X48863377Y-79858378D01*
X48815923Y-79951712D01*
X48803620Y-79991335D01*
X48749095Y-80166930D01*
X48749094Y-80166936D01*
X48747511Y-80172033D01*
X48717200Y-80400732D01*
X47502400Y-80400732D01*
X47502400Y-80307562D01*
X47462936Y-79995170D01*
X47384630Y-79690187D01*
X47381785Y-79683000D01*
X47321494Y-79530724D01*
X47268716Y-79397423D01*
X47266813Y-79393961D01*
X47118933Y-79124968D01*
X47118931Y-79124965D01*
X47117024Y-79121496D01*
X46931945Y-78866756D01*
X46716398Y-78637222D01*
X46473782Y-78436513D01*
X46207924Y-78267794D01*
X46204345Y-78266110D01*
X46204338Y-78266106D01*
X45926606Y-78135416D01*
X45926602Y-78135414D01*
X45923016Y-78133727D01*
X45623552Y-78036425D01*
X45314254Y-77977423D01*
X45220700Y-77971537D01*
X45080642Y-77962725D01*
X45080626Y-77962724D01*
X45078647Y-77962600D01*
X44921353Y-77962600D01*
X44919374Y-77962724D01*
X44919358Y-77962725D01*
X44779300Y-77971537D01*
X44685746Y-77977423D01*
X44376448Y-78036425D01*
X44076984Y-78133727D01*
X44073398Y-78135414D01*
X44073394Y-78135416D01*
X43877669Y-78227517D01*
X43807515Y-78238423D01*
X43742602Y-78209670D01*
X43703538Y-78150386D01*
X43698021Y-78113509D01*
X43698021Y-63920454D01*
X43698548Y-63909271D01*
X43700223Y-63901778D01*
X43698083Y-63833701D01*
X43698021Y-63829742D01*
X43698021Y-63801831D01*
X43697516Y-63797831D01*
X43696583Y-63785986D01*
X43696065Y-63769497D01*
X43713918Y-63700782D01*
X43766088Y-63652627D01*
X43836010Y-63640322D01*
X43875650Y-63651533D01*
X43942288Y-63682890D01*
X44073394Y-63744584D01*
X44073398Y-63744586D01*
X44076984Y-63746273D01*
X44376448Y-63843575D01*
X44685746Y-63902577D01*
X44779300Y-63908463D01*
X44919358Y-63917275D01*
X44919374Y-63917276D01*
X44921353Y-63917400D01*
X45078647Y-63917400D01*
X45080626Y-63917276D01*
X45080642Y-63917275D01*
X45220700Y-63908463D01*
X45314254Y-63902577D01*
X45623552Y-63843575D01*
X45923016Y-63746273D01*
X45926602Y-63744586D01*
X45926606Y-63744584D01*
X46204338Y-63613894D01*
X46204345Y-63613890D01*
X46207924Y-63612206D01*
X46473782Y-63443487D01*
X46716398Y-63242778D01*
X46931945Y-63013244D01*
X47117024Y-62758504D01*
X47132481Y-62730389D01*
X47266813Y-62486039D01*
X47266814Y-62486036D01*
X47268716Y-62482577D01*
X47384630Y-62189813D01*
X47462936Y-61884830D01*
X47502400Y-61572438D01*
X47502400Y-61257562D01*
X47462936Y-60945170D01*
X47384630Y-60640187D01*
X47381785Y-60633000D01*
X47270170Y-60351096D01*
X47268716Y-60347423D01*
X47266813Y-60343961D01*
X47118933Y-60074968D01*
X47118931Y-60074965D01*
X47117024Y-60071496D01*
X46931945Y-59816756D01*
X46716398Y-59587222D01*
X46473782Y-59386513D01*
X46207924Y-59217794D01*
X46204345Y-59216110D01*
X46204338Y-59216106D01*
X45926606Y-59085416D01*
X45926602Y-59085414D01*
X45923016Y-59083727D01*
X45623552Y-58986425D01*
X45314254Y-58927423D01*
X45220700Y-58921537D01*
X45080642Y-58912725D01*
X45080626Y-58912724D01*
X45078647Y-58912600D01*
X44921353Y-58912600D01*
X44919374Y-58912724D01*
X44919358Y-58912725D01*
X44779300Y-58921537D01*
X44685746Y-58927423D01*
X44376448Y-58986425D01*
X44076984Y-59083727D01*
X44073398Y-59085414D01*
X44073394Y-59085416D01*
X43877669Y-59177517D01*
X43807515Y-59188423D01*
X43742602Y-59159670D01*
X43703538Y-59100386D01*
X43698021Y-59063509D01*
X43698021Y-48143288D01*
X43698548Y-48132105D01*
X43700223Y-48124612D01*
X43698083Y-48056535D01*
X43698021Y-48052576D01*
X43698021Y-48024665D01*
X43697516Y-48020665D01*
X43696583Y-48008822D01*
X43695443Y-47972550D01*
X43695194Y-47964631D01*
X43689543Y-47945179D01*
X43685535Y-47925827D01*
X43683988Y-47913584D01*
X43682995Y-47905724D01*
X43680077Y-47898353D01*
X43666721Y-47864618D01*
X43662876Y-47853391D01*
X43662242Y-47851208D01*
X43650539Y-47810928D01*
X43646505Y-47804106D01*
X43646502Y-47804100D01*
X43640227Y-47793489D01*
X43631531Y-47775739D01*
X43626993Y-47764277D01*
X43626990Y-47764272D01*
X43624073Y-47756904D01*
X43598094Y-47721146D01*
X43591578Y-47711228D01*
X43573096Y-47679978D01*
X43569063Y-47673158D01*
X43554739Y-47658834D01*
X43541897Y-47643799D01*
X43529993Y-47627414D01*
X43495927Y-47599232D01*
X43487148Y-47591243D01*
X40370925Y-44475020D01*
X40336899Y-44412708D01*
X40341964Y-44341893D01*
X40384511Y-44285057D01*
X40408269Y-44271043D01*
X40583515Y-44192101D01*
X40587935Y-44189125D01*
X40587939Y-44189123D01*
X40719927Y-44100262D01*
X40774885Y-44063262D01*
X40941812Y-43904022D01*
X41008851Y-43813918D01*
X41076337Y-43723214D01*
X41076339Y-43723211D01*
X41079521Y-43718934D01*
X41131951Y-43615812D01*
X41181658Y-43518046D01*
X41181658Y-43518045D01*
X41184077Y-43513288D01*
X41221723Y-43392050D01*
X41250905Y-43298070D01*
X41250906Y-43298064D01*
X41252489Y-43292967D01*
X41282800Y-43064268D01*
X41274146Y-42833732D01*
X41228104Y-42614298D01*
X41233691Y-42543523D01*
X41276656Y-42487003D01*
X41342629Y-42462732D01*
X41387257Y-42459612D01*
X41465828Y-42454118D01*
X41465834Y-42454117D01*
X41470212Y-42453811D01*
X41744970Y-42395409D01*
X41749099Y-42393906D01*
X41749103Y-42393905D01*
X42004781Y-42300846D01*
X42004785Y-42300844D01*
X42008926Y-42299337D01*
X42256942Y-42167464D01*
X42262641Y-42163324D01*
X42441327Y-42033501D01*
X42508195Y-42009642D01*
X42577347Y-42025723D01*
X42626827Y-42076637D01*
X42640926Y-42146220D01*
X42632540Y-42181820D01*
X42615370Y-42225187D01*
X42537064Y-42530170D01*
X42497600Y-42842562D01*
X42497600Y-43157438D01*
X42537064Y-43469830D01*
X42615370Y-43774813D01*
X42731284Y-44067577D01*
X42733186Y-44071036D01*
X42733187Y-44071039D01*
X42867520Y-44315389D01*
X42882976Y-44343504D01*
X43068055Y-44598244D01*
X43283602Y-44827778D01*
X43526218Y-45028487D01*
X43792076Y-45197206D01*
X43795655Y-45198890D01*
X43795662Y-45198894D01*
X44073394Y-45329584D01*
X44073398Y-45329586D01*
X44076984Y-45331273D01*
X44376448Y-45428575D01*
X44685746Y-45487577D01*
X44779300Y-45493463D01*
X44919358Y-45502275D01*
X44919374Y-45502276D01*
X44921353Y-45502400D01*
X45078647Y-45502400D01*
X45209801Y-45494149D01*
X45304022Y-45488221D01*
X45373264Y-45503906D01*
X45423034Y-45554537D01*
X45437530Y-45624037D01*
X45412150Y-45690343D01*
X45401028Y-45703067D01*
X44607747Y-46496348D01*
X44599461Y-46503888D01*
X44592982Y-46508000D01*
X44587557Y-46513777D01*
X44546357Y-46557651D01*
X44543602Y-46560493D01*
X44523865Y-46580230D01*
X44521385Y-46583427D01*
X44513682Y-46592447D01*
X44483414Y-46624679D01*
X44479595Y-46631625D01*
X44479593Y-46631628D01*
X44473652Y-46642434D01*
X44462801Y-46658953D01*
X44450386Y-46674959D01*
X44447241Y-46682228D01*
X44447238Y-46682232D01*
X44432826Y-46715537D01*
X44427609Y-46726187D01*
X44406305Y-46764940D01*
X44404334Y-46772615D01*
X44404334Y-46772616D01*
X44401267Y-46784562D01*
X44394863Y-46803266D01*
X44386819Y-46821855D01*
X44385580Y-46829678D01*
X44385577Y-46829688D01*
X44379901Y-46865524D01*
X44377495Y-46877144D01*
X44366500Y-46919970D01*
X44366500Y-46940224D01*
X44364949Y-46959934D01*
X44361780Y-46979943D01*
X44362526Y-46987835D01*
X44365941Y-47023961D01*
X44366500Y-47035819D01*
X44366500Y-56921233D01*
X44365973Y-56932416D01*
X44364298Y-56939909D01*
X44364547Y-56947835D01*
X44364547Y-56947836D01*
X44366438Y-57007986D01*
X44366500Y-57011945D01*
X44366500Y-57039856D01*
X44366997Y-57043790D01*
X44366997Y-57043791D01*
X44367005Y-57043856D01*
X44367938Y-57055693D01*
X44369327Y-57099889D01*
X44374406Y-57117371D01*
X44374978Y-57119339D01*
X44378987Y-57138700D01*
X44381526Y-57158797D01*
X44384445Y-57166168D01*
X44384445Y-57166170D01*
X44397804Y-57199912D01*
X44401649Y-57211142D01*
X44413982Y-57253593D01*
X44418015Y-57260412D01*
X44418017Y-57260417D01*
X44424293Y-57271028D01*
X44432988Y-57288776D01*
X44440448Y-57307617D01*
X44445110Y-57314033D01*
X44445110Y-57314034D01*
X44466436Y-57343387D01*
X44472952Y-57353307D01*
X44495458Y-57391362D01*
X44509779Y-57405683D01*
X44522619Y-57420716D01*
X44534528Y-57437107D01*
X44540634Y-57442158D01*
X44568605Y-57465298D01*
X44577384Y-57473288D01*
X45705869Y-58601774D01*
X45713409Y-58610060D01*
X45717521Y-58616539D01*
X45723298Y-58621964D01*
X45767172Y-58663164D01*
X45770014Y-58665919D01*
X45789751Y-58685656D01*
X45792948Y-58688136D01*
X45801968Y-58695839D01*
X45834200Y-58726107D01*
X45841146Y-58729926D01*
X45841149Y-58729928D01*
X45851955Y-58735869D01*
X45868474Y-58746720D01*
X45884480Y-58759135D01*
X45891749Y-58762280D01*
X45891753Y-58762283D01*
X45925058Y-58776695D01*
X45935708Y-58781912D01*
X45974461Y-58803216D01*
X45982136Y-58805187D01*
X45982137Y-58805187D01*
X45994083Y-58808254D01*
X46012788Y-58814658D01*
X46031376Y-58822702D01*
X46039199Y-58823941D01*
X46039209Y-58823944D01*
X46075045Y-58829620D01*
X46086665Y-58832026D01*
X46121810Y-58841049D01*
X46129491Y-58843021D01*
X46149745Y-58843021D01*
X46169455Y-58844572D01*
X46189464Y-58847741D01*
X46197356Y-58846995D01*
X46233482Y-58843580D01*
X46245340Y-58843021D01*
X48292935Y-58843021D01*
X48361056Y-58863023D01*
X48382030Y-58879926D01*
X49500157Y-59998053D01*
X49534183Y-60060365D01*
X49529118Y-60131180D01*
X49486571Y-60188016D01*
X49462814Y-60202030D01*
X49416485Y-60222899D01*
X49412065Y-60225875D01*
X49412061Y-60225877D01*
X49387216Y-60242604D01*
X49225115Y-60351738D01*
X49058188Y-60510978D01*
X49055000Y-60515263D01*
X48946253Y-60661425D01*
X48920479Y-60696066D01*
X48918064Y-60700816D01*
X48835324Y-60863554D01*
X48815923Y-60901712D01*
X48795494Y-60967504D01*
X48749095Y-61116930D01*
X48749094Y-61116936D01*
X48747511Y-61122033D01*
X48717200Y-61350732D01*
X48725854Y-61581268D01*
X48773228Y-61807050D01*
X48775186Y-61812009D01*
X48775187Y-61812011D01*
X48803945Y-61884830D01*
X48857967Y-62021622D01*
X48977647Y-62218849D01*
X48981144Y-62222879D01*
X49059441Y-62313108D01*
X49128847Y-62393092D01*
X49132978Y-62396479D01*
X49303115Y-62535984D01*
X49303121Y-62535988D01*
X49307243Y-62539368D01*
X49507735Y-62653494D01*
X49512751Y-62655315D01*
X49512756Y-62655317D01*
X49719575Y-62730389D01*
X49719579Y-62730390D01*
X49724590Y-62732209D01*
X49729839Y-62733158D01*
X49729842Y-62733159D01*
X49947523Y-62772522D01*
X49947530Y-62772523D01*
X49951607Y-62773260D01*
X49969344Y-62774096D01*
X49974292Y-62774330D01*
X49974299Y-62774330D01*
X49975780Y-62774400D01*
X50137925Y-62774400D01*
X50204881Y-62768719D01*
X50304562Y-62760261D01*
X50304566Y-62760260D01*
X50309873Y-62759810D01*
X50315028Y-62758472D01*
X50315034Y-62758471D01*
X50514267Y-62706760D01*
X50585228Y-62709007D01*
X50643709Y-62749262D01*
X50671144Y-62814744D01*
X50671921Y-62828719D01*
X50671921Y-73500500D01*
X50651919Y-73568621D01*
X50598263Y-73615114D01*
X50545921Y-73626500D01*
X49966866Y-73626500D01*
X49904684Y-73633255D01*
X49768295Y-73684385D01*
X49651739Y-73771739D01*
X49564385Y-73888295D01*
X49513255Y-74024684D01*
X49506500Y-74086866D01*
X49506500Y-74296544D01*
X49486498Y-74364665D01*
X49432842Y-74411158D01*
X49362568Y-74421262D01*
X49297988Y-74391768D01*
X49276041Y-74367002D01*
X49200935Y-74255653D01*
X49126585Y-74145424D01*
X48938629Y-73936678D01*
X48723450Y-73756121D01*
X48485236Y-73607269D01*
X48228625Y-73493018D01*
X47958610Y-73415593D01*
X47954260Y-73414982D01*
X47954257Y-73414981D01*
X47851310Y-73400513D01*
X47680448Y-73376500D01*
X47469854Y-73376500D01*
X47467668Y-73376653D01*
X47467664Y-73376653D01*
X47264173Y-73390882D01*
X47264168Y-73390883D01*
X47259788Y-73391189D01*
X46985030Y-73449591D01*
X46980901Y-73451094D01*
X46980897Y-73451095D01*
X46725219Y-73544154D01*
X46725215Y-73544156D01*
X46721074Y-73545663D01*
X46473058Y-73677536D01*
X46469499Y-73680122D01*
X46469497Y-73680123D01*
X46333516Y-73778919D01*
X46245808Y-73842642D01*
X46043748Y-74037769D01*
X45870812Y-74259118D01*
X45868616Y-74262922D01*
X45868611Y-74262929D01*
X45777198Y-74421262D01*
X45730364Y-74502381D01*
X45625138Y-74762824D01*
X45557183Y-75035376D01*
X45527822Y-75314733D01*
X45537625Y-75595458D01*
X45586402Y-75872087D01*
X45673203Y-76139235D01*
X45675131Y-76143188D01*
X45675133Y-76143193D01*
X45708517Y-76211640D01*
X45796340Y-76391702D01*
X45798795Y-76395341D01*
X45798798Y-76395347D01*
X45826857Y-76436946D01*
X45953415Y-76624576D01*
X46141371Y-76833322D01*
X46356550Y-77013879D01*
X46594764Y-77162731D01*
X46851375Y-77276982D01*
X47121390Y-77354407D01*
X47125740Y-77355018D01*
X47125743Y-77355019D01*
X47228690Y-77369487D01*
X47399552Y-77393500D01*
X47610146Y-77393500D01*
X47612332Y-77393347D01*
X47612336Y-77393347D01*
X47815827Y-77379118D01*
X47815832Y-77379117D01*
X47820212Y-77378811D01*
X48094970Y-77320409D01*
X48099099Y-77318906D01*
X48099103Y-77318905D01*
X48354781Y-77225846D01*
X48354785Y-77225844D01*
X48358926Y-77224337D01*
X48606942Y-77092464D01*
X48711896Y-77016211D01*
X48830629Y-76929947D01*
X48830632Y-76929944D01*
X48834192Y-76927358D01*
X48877106Y-76885917D01*
X48966988Y-76799118D01*
X49036252Y-76732231D01*
X49209188Y-76510882D01*
X49211384Y-76507078D01*
X49211389Y-76507071D01*
X49271381Y-76403161D01*
X49322764Y-76354168D01*
X49392477Y-76340732D01*
X49458388Y-76367118D01*
X49499570Y-76424951D01*
X49506500Y-76466161D01*
X49506500Y-76683134D01*
X49513255Y-76745316D01*
X49564385Y-76881705D01*
X49651739Y-76998261D01*
X49768295Y-77085615D01*
X49904684Y-77136745D01*
X49966866Y-77143500D01*
X52613134Y-77143500D01*
X52675316Y-77136745D01*
X52811705Y-77085615D01*
X52928261Y-76998261D01*
X53015615Y-76881705D01*
X53066745Y-76745316D01*
X53073500Y-76683134D01*
X53073500Y-74086866D01*
X53066745Y-74024684D01*
X53015615Y-73888295D01*
X52928261Y-73771739D01*
X52811705Y-73684385D01*
X52675316Y-73633255D01*
X52613134Y-73626500D01*
X52064921Y-73626500D01*
X51996800Y-73606498D01*
X51950307Y-73552842D01*
X51938921Y-73500500D01*
X51938921Y-60986176D01*
X51939448Y-60974992D01*
X51941122Y-60967504D01*
X51938983Y-60899445D01*
X51938921Y-60895488D01*
X51938921Y-60867557D01*
X51938415Y-60863551D01*
X51937482Y-60851705D01*
X51936343Y-60815450D01*
X51936094Y-60807523D01*
X51930443Y-60788071D01*
X51926435Y-60768719D01*
X51924889Y-60756481D01*
X51924888Y-60756479D01*
X51923895Y-60748616D01*
X51907615Y-60707499D01*
X51903780Y-60696298D01*
X51891439Y-60653819D01*
X51887406Y-60647000D01*
X51887404Y-60646995D01*
X51881128Y-60636384D01*
X51872431Y-60618634D01*
X51864973Y-60599796D01*
X51838992Y-60564036D01*
X51832474Y-60554114D01*
X51813999Y-60522873D01*
X51813995Y-60522868D01*
X51809963Y-60516050D01*
X51795639Y-60501726D01*
X51782797Y-60486691D01*
X51778462Y-60480724D01*
X51770893Y-60470306D01*
X51736827Y-60442124D01*
X51728048Y-60434135D01*
X49111181Y-57817268D01*
X49103641Y-57808982D01*
X49099529Y-57802503D01*
X49092699Y-57796089D01*
X49092124Y-57795110D01*
X49088698Y-57790969D01*
X49089366Y-57790416D01*
X49056734Y-57734876D01*
X49059573Y-57663936D01*
X49079664Y-57626667D01*
X49206474Y-57464357D01*
X49206480Y-57464348D01*
X49209188Y-57460882D01*
X49211384Y-57457078D01*
X49211389Y-57457071D01*
X49271381Y-57353161D01*
X49322764Y-57304168D01*
X49392477Y-57290732D01*
X49458388Y-57317118D01*
X49499570Y-57374951D01*
X49506500Y-57416161D01*
X49506500Y-57633134D01*
X49513255Y-57695316D01*
X49564385Y-57831705D01*
X49651739Y-57948261D01*
X49768295Y-58035615D01*
X49904684Y-58086745D01*
X49966866Y-58093500D01*
X52613134Y-58093500D01*
X52675316Y-58086745D01*
X52811705Y-58035615D01*
X52928261Y-57948261D01*
X53015615Y-57831705D01*
X53066745Y-57695316D01*
X53073500Y-57633134D01*
X53073500Y-55036866D01*
X53066745Y-54974684D01*
X53015615Y-54838295D01*
X52928261Y-54721739D01*
X52811705Y-54634385D01*
X52675316Y-54583255D01*
X52613134Y-54576500D01*
X50510437Y-54576500D01*
X50442316Y-54556498D01*
X50421342Y-54539595D01*
X48781379Y-52899632D01*
X48747353Y-52837320D01*
X48744474Y-52810537D01*
X48744474Y-43869963D01*
X48764476Y-43801842D01*
X48818132Y-43755349D01*
X48888406Y-43745245D01*
X48952986Y-43774739D01*
X48972281Y-43795725D01*
X48974880Y-43799288D01*
X48977647Y-43803849D01*
X49128847Y-43978092D01*
X49132978Y-43981479D01*
X49303115Y-44120984D01*
X49303121Y-44120988D01*
X49307243Y-44124368D01*
X49507735Y-44238494D01*
X49512751Y-44240315D01*
X49512756Y-44240317D01*
X49719575Y-44315389D01*
X49719579Y-44315390D01*
X49724590Y-44317209D01*
X49729839Y-44318158D01*
X49729842Y-44318159D01*
X49947523Y-44357522D01*
X49947530Y-44357523D01*
X49951607Y-44358260D01*
X49969344Y-44359096D01*
X49974292Y-44359330D01*
X49974299Y-44359330D01*
X49975780Y-44359400D01*
X50137925Y-44359400D01*
X50204881Y-44353719D01*
X50304562Y-44345261D01*
X50304566Y-44345260D01*
X50309873Y-44344810D01*
X50315028Y-44343472D01*
X50315034Y-44343471D01*
X50528003Y-44288195D01*
X50528007Y-44288194D01*
X50533172Y-44286853D01*
X50538038Y-44284661D01*
X50538041Y-44284660D01*
X50738649Y-44194293D01*
X50743515Y-44192101D01*
X50747935Y-44189125D01*
X50747939Y-44189123D01*
X50879927Y-44100262D01*
X50934885Y-44063262D01*
X51101812Y-43904022D01*
X51168851Y-43813918D01*
X51236337Y-43723214D01*
X51236339Y-43723211D01*
X51239521Y-43718934D01*
X51291951Y-43615812D01*
X51341658Y-43518046D01*
X51341658Y-43518045D01*
X51344077Y-43513288D01*
X51381723Y-43392050D01*
X51410905Y-43298070D01*
X51410906Y-43298064D01*
X51412489Y-43292967D01*
X51442800Y-43064268D01*
X51434146Y-42833732D01*
X51386772Y-42607950D01*
X51361329Y-42543523D01*
X51329422Y-42462732D01*
X51302033Y-42393378D01*
X51194597Y-42216328D01*
X51185122Y-42200714D01*
X51185121Y-42200713D01*
X51182353Y-42196151D01*
X51131193Y-42137194D01*
X51034653Y-42025941D01*
X51034651Y-42025939D01*
X51031153Y-42021908D01*
X50941082Y-41948054D01*
X50856885Y-41879016D01*
X50856879Y-41879012D01*
X50852757Y-41875632D01*
X50652265Y-41761506D01*
X50647249Y-41759685D01*
X50647244Y-41759683D01*
X50440425Y-41684611D01*
X50440421Y-41684610D01*
X50435410Y-41682791D01*
X50430161Y-41681842D01*
X50430158Y-41681841D01*
X50212477Y-41642478D01*
X50212470Y-41642477D01*
X50208393Y-41641740D01*
X50190656Y-41640904D01*
X50185708Y-41640670D01*
X50185701Y-41640670D01*
X50184220Y-41640600D01*
X50022075Y-41640600D01*
X49955119Y-41646281D01*
X49855438Y-41654739D01*
X49855434Y-41654740D01*
X49850127Y-41655190D01*
X49844972Y-41656528D01*
X49844966Y-41656529D01*
X49631997Y-41711805D01*
X49631993Y-41711806D01*
X49626828Y-41713147D01*
X49621962Y-41715339D01*
X49621959Y-41715340D01*
X49519474Y-41761506D01*
X49416485Y-41807899D01*
X49412065Y-41810875D01*
X49412061Y-41810877D01*
X49387216Y-41827604D01*
X49225115Y-41936738D01*
X49058188Y-42095978D01*
X48971765Y-42212135D01*
X48971563Y-42212407D01*
X48914853Y-42255120D01*
X48844052Y-42260393D01*
X48781640Y-42226551D01*
X48747433Y-42164338D01*
X48744474Y-42137194D01*
X48744474Y-40314595D01*
X48764476Y-40246474D01*
X48781379Y-40225500D01*
X49474483Y-39532396D01*
X49536795Y-39498370D01*
X49607610Y-39503435D01*
X49649620Y-39530434D01*
X49651739Y-39533261D01*
X49768295Y-39620615D01*
X49904684Y-39671745D01*
X49966866Y-39678500D01*
X52613134Y-39678500D01*
X52675316Y-39671745D01*
X52811705Y-39620615D01*
X52928261Y-39533261D01*
X53015615Y-39416705D01*
X53066745Y-39280316D01*
X53073500Y-39218134D01*
X53073500Y-36621866D01*
X53066745Y-36559684D01*
X53015615Y-36423295D01*
X52928261Y-36306739D01*
X52811705Y-36219385D01*
X52675316Y-36168255D01*
X52613134Y-36161500D01*
X52049500Y-36161500D01*
X51981379Y-36141498D01*
X51934886Y-36087842D01*
X51923500Y-36035500D01*
X51923500Y-32086423D01*
X58278703Y-32086423D01*
X58286227Y-32096854D01*
X58425483Y-32209020D01*
X58431657Y-32213408D01*
X58702271Y-32382178D01*
X58708931Y-32385794D01*
X58997852Y-32520827D01*
X59004905Y-32523620D01*
X59307970Y-32622970D01*
X59315282Y-32624888D01*
X59628092Y-32687109D01*
X59635590Y-32688137D01*
X59953610Y-32712328D01*
X59961173Y-32712446D01*
X60279785Y-32698257D01*
X60287326Y-32697465D01*
X60601924Y-32645101D01*
X60609302Y-32643411D01*
X60915355Y-32553625D01*
X60922450Y-32551071D01*
X61215496Y-32425169D01*
X61222263Y-32421765D01*
X61498042Y-32261580D01*
X61504349Y-32257390D01*
X61714305Y-32098889D01*
X61722761Y-32087496D01*
X61716045Y-32075256D01*
X60012810Y-30372020D01*
X59998869Y-30364408D01*
X59997034Y-30364539D01*
X59990420Y-30368790D01*
X58285818Y-32073393D01*
X58278703Y-32086423D01*
X51923500Y-32086423D01*
X51923500Y-30748767D01*
X51924027Y-30737584D01*
X51925702Y-30730091D01*
X51924938Y-30705767D01*
X51923562Y-30662014D01*
X51923500Y-30658055D01*
X51923500Y-30630144D01*
X51922995Y-30626144D01*
X51922062Y-30614301D01*
X51921660Y-30601490D01*
X51920673Y-30570110D01*
X51915022Y-30550658D01*
X51911014Y-30531306D01*
X51909467Y-30519063D01*
X51908474Y-30511203D01*
X51904311Y-30500688D01*
X51892200Y-30470097D01*
X51888355Y-30458870D01*
X51887721Y-30456687D01*
X51876018Y-30416407D01*
X51871984Y-30409585D01*
X51871981Y-30409579D01*
X51865706Y-30398968D01*
X51857010Y-30381218D01*
X51852472Y-30369756D01*
X51852469Y-30369751D01*
X51849552Y-30362383D01*
X51823573Y-30326625D01*
X51817057Y-30316707D01*
X51798575Y-30285457D01*
X51794542Y-30278637D01*
X51780218Y-30264313D01*
X51767376Y-30249278D01*
X51755472Y-30232893D01*
X51721406Y-30204711D01*
X51712627Y-30196722D01*
X51671218Y-30155313D01*
X51637192Y-30093001D01*
X51639755Y-30029589D01*
X51650865Y-29993022D01*
X51652370Y-29988069D01*
X51654040Y-29975383D01*
X57287388Y-29975383D01*
X57303245Y-30293914D01*
X57304076Y-30301443D01*
X57358085Y-30615759D01*
X57359818Y-30623146D01*
X57451196Y-30928695D01*
X57453799Y-30935808D01*
X57581227Y-31228173D01*
X57584669Y-31234929D01*
X57746296Y-31509865D01*
X57750519Y-31516150D01*
X57901463Y-31713934D01*
X57912989Y-31722396D01*
X57925054Y-31715735D01*
X59627980Y-30012810D01*
X59634357Y-30001131D01*
X60364408Y-30001131D01*
X60364539Y-30002966D01*
X60368790Y-30009580D01*
X62073285Y-31714074D01*
X62086408Y-31721240D01*
X62096709Y-31713851D01*
X62200751Y-31586055D01*
X62205164Y-31579914D01*
X62375349Y-31310187D01*
X62379005Y-31303536D01*
X62515544Y-31015335D01*
X62518375Y-31008295D01*
X62619306Y-30705767D01*
X62621270Y-30698433D01*
X62685122Y-30385989D01*
X62686194Y-30378465D01*
X62712173Y-30059051D01*
X62712378Y-30054576D01*
X62712927Y-30002221D01*
X62712817Y-29997789D01*
X62693529Y-29677853D01*
X62692621Y-29670351D01*
X62635319Y-29356593D01*
X62633518Y-29349260D01*
X62538935Y-29044655D01*
X62536263Y-29037583D01*
X62405781Y-28746570D01*
X62402264Y-28739843D01*
X62237771Y-28466621D01*
X62233481Y-28460377D01*
X62097991Y-28286647D01*
X62086199Y-28278178D01*
X62074486Y-28284725D01*
X60372020Y-29987190D01*
X60364408Y-30001131D01*
X59634357Y-30001131D01*
X59635592Y-29998869D01*
X59635461Y-29997034D01*
X59631210Y-29990420D01*
X57926445Y-28285656D01*
X57913510Y-28278592D01*
X57902949Y-28286252D01*
X57782766Y-28437072D01*
X57778410Y-28443270D01*
X57611059Y-28714764D01*
X57607479Y-28721440D01*
X57473956Y-29011074D01*
X57471206Y-29018125D01*
X57373444Y-29321708D01*
X57371561Y-29329041D01*
X57310979Y-29642170D01*
X57309992Y-29649670D01*
X57287467Y-29967802D01*
X57287388Y-29975383D01*
X51654040Y-29975383D01*
X51681529Y-29766590D01*
X51683156Y-29700000D01*
X51664852Y-29477361D01*
X51610431Y-29260702D01*
X51521354Y-29055840D01*
X51400014Y-28868277D01*
X51249670Y-28703051D01*
X51245619Y-28699852D01*
X51245615Y-28699848D01*
X51078414Y-28567800D01*
X51078410Y-28567798D01*
X51074359Y-28564598D01*
X50878789Y-28456638D01*
X50873920Y-28454914D01*
X50873916Y-28454912D01*
X50673087Y-28383795D01*
X50673083Y-28383794D01*
X50668212Y-28382069D01*
X50663119Y-28381162D01*
X50663116Y-28381161D01*
X50453373Y-28343800D01*
X50453367Y-28343799D01*
X50448284Y-28342894D01*
X50374452Y-28341992D01*
X50230081Y-28340228D01*
X50230079Y-28340228D01*
X50224911Y-28340165D01*
X50004091Y-28373955D01*
X49791756Y-28443357D01*
X49593607Y-28546507D01*
X49589474Y-28549610D01*
X49589471Y-28549612D01*
X49506450Y-28611946D01*
X49414965Y-28680635D01*
X49260629Y-28842138D01*
X49153201Y-28999621D01*
X49098293Y-29044621D01*
X49027768Y-29052792D01*
X48964021Y-29021538D01*
X48943324Y-28997054D01*
X48862822Y-28872617D01*
X48862820Y-28872614D01*
X48860014Y-28868277D01*
X48709670Y-28703051D01*
X48705619Y-28699852D01*
X48705615Y-28699848D01*
X48538414Y-28567800D01*
X48538410Y-28567798D01*
X48534359Y-28564598D01*
X48338789Y-28456638D01*
X48333920Y-28454914D01*
X48333916Y-28454912D01*
X48133087Y-28383795D01*
X48133083Y-28383794D01*
X48128212Y-28382069D01*
X48123119Y-28381162D01*
X48123116Y-28381161D01*
X47913373Y-28343800D01*
X47913367Y-28343799D01*
X47908284Y-28342894D01*
X47834452Y-28341992D01*
X47690081Y-28340228D01*
X47690079Y-28340228D01*
X47684911Y-28340165D01*
X47464091Y-28373955D01*
X47251756Y-28443357D01*
X47053607Y-28546507D01*
X47049474Y-28549610D01*
X47049471Y-28549612D01*
X46966450Y-28611946D01*
X46874965Y-28680635D01*
X46720629Y-28842138D01*
X46613201Y-28999621D01*
X46558293Y-29044621D01*
X46487768Y-29052792D01*
X46424021Y-29021538D01*
X46403324Y-28997054D01*
X46322822Y-28872617D01*
X46322820Y-28872614D01*
X46320014Y-28868277D01*
X46169670Y-28703051D01*
X46165619Y-28699852D01*
X46165615Y-28699848D01*
X45998414Y-28567800D01*
X45998410Y-28567798D01*
X45994359Y-28564598D01*
X45798789Y-28456638D01*
X45793920Y-28454914D01*
X45793916Y-28454912D01*
X45593087Y-28383795D01*
X45593083Y-28383794D01*
X45588212Y-28382069D01*
X45583119Y-28381162D01*
X45583116Y-28381161D01*
X45373373Y-28343800D01*
X45373367Y-28343799D01*
X45368284Y-28342894D01*
X45294452Y-28341992D01*
X45150081Y-28340228D01*
X45150079Y-28340228D01*
X45144911Y-28340165D01*
X44924091Y-28373955D01*
X44711756Y-28443357D01*
X44513607Y-28546507D01*
X44509474Y-28549610D01*
X44509471Y-28549612D01*
X44426450Y-28611946D01*
X44334965Y-28680635D01*
X44180629Y-28842138D01*
X44073201Y-28999621D01*
X44018293Y-29044621D01*
X43947768Y-29052792D01*
X43884021Y-29021538D01*
X43863324Y-28997054D01*
X43782822Y-28872617D01*
X43782820Y-28872614D01*
X43780014Y-28868277D01*
X43629670Y-28703051D01*
X43625619Y-28699852D01*
X43625615Y-28699848D01*
X43458414Y-28567800D01*
X43458410Y-28567798D01*
X43454359Y-28564598D01*
X43258789Y-28456638D01*
X43253920Y-28454914D01*
X43253916Y-28454912D01*
X43053087Y-28383795D01*
X43053083Y-28383794D01*
X43048212Y-28382069D01*
X43043119Y-28381162D01*
X43043116Y-28381161D01*
X42833373Y-28343800D01*
X42833367Y-28343799D01*
X42828284Y-28342894D01*
X42754452Y-28341992D01*
X42610081Y-28340228D01*
X42610079Y-28340228D01*
X42604911Y-28340165D01*
X42384091Y-28373955D01*
X42171756Y-28443357D01*
X41973607Y-28546507D01*
X41969474Y-28549610D01*
X41969471Y-28549612D01*
X41886450Y-28611946D01*
X41794965Y-28680635D01*
X41791393Y-28684373D01*
X41713898Y-28765466D01*
X41652374Y-28800895D01*
X41581462Y-28797438D01*
X41523676Y-28756192D01*
X41504823Y-28722644D01*
X41463324Y-28611946D01*
X41454786Y-28596351D01*
X41378285Y-28494276D01*
X41365724Y-28481715D01*
X41263649Y-28405214D01*
X41248054Y-28396676D01*
X41127606Y-28351522D01*
X41112351Y-28347895D01*
X41061486Y-28342369D01*
X41054672Y-28342000D01*
X40432115Y-28342000D01*
X40416876Y-28346475D01*
X40415671Y-28347865D01*
X40414000Y-28355548D01*
X40414000Y-31037905D01*
X40393998Y-31106026D01*
X40377095Y-31127000D01*
X38923226Y-32580869D01*
X38914940Y-32588409D01*
X38908461Y-32592521D01*
X38903036Y-32598298D01*
X38861836Y-32642172D01*
X38859081Y-32645014D01*
X38839344Y-32664751D01*
X38836864Y-32667948D01*
X38829161Y-32676968D01*
X38798893Y-32709200D01*
X38795074Y-32716146D01*
X38795072Y-32716149D01*
X38789131Y-32726955D01*
X38778280Y-32743474D01*
X38765865Y-32759480D01*
X38762720Y-32766749D01*
X38762717Y-32766753D01*
X38748305Y-32800058D01*
X38743088Y-32810708D01*
X38721784Y-32849461D01*
X38719813Y-32857136D01*
X38719813Y-32857137D01*
X38716746Y-32869083D01*
X38710342Y-32887787D01*
X38702298Y-32906376D01*
X38701059Y-32914199D01*
X38701056Y-32914209D01*
X38695380Y-32950045D01*
X38692974Y-32961665D01*
X38681979Y-33004491D01*
X38681979Y-33024745D01*
X38680428Y-33044455D01*
X38677259Y-33064464D01*
X38678005Y-33072356D01*
X38681420Y-33108482D01*
X38681979Y-33120340D01*
X38681979Y-38576000D01*
X38661977Y-38644121D01*
X38608321Y-38690614D01*
X38555979Y-38702000D01*
X37712115Y-38702000D01*
X37696876Y-38706475D01*
X37695671Y-38707865D01*
X37694000Y-38715548D01*
X37694000Y-42199884D01*
X37698475Y-42215123D01*
X37699865Y-42216328D01*
X37707548Y-42217999D01*
X37935079Y-42217999D01*
X38003200Y-42238001D01*
X38049693Y-42291657D01*
X38061079Y-42343999D01*
X38061079Y-43615812D01*
X38060552Y-43626995D01*
X38058877Y-43634488D01*
X38059126Y-43642414D01*
X38059126Y-43642415D01*
X38061017Y-43702565D01*
X38061079Y-43706524D01*
X38061079Y-43734435D01*
X38061576Y-43738369D01*
X38061576Y-43738370D01*
X38061584Y-43738435D01*
X38062517Y-43750272D01*
X38063906Y-43794468D01*
X38069557Y-43813918D01*
X38073566Y-43833279D01*
X38076105Y-43853376D01*
X38079024Y-43860747D01*
X38079024Y-43860749D01*
X38092383Y-43894491D01*
X38096228Y-43905721D01*
X38108561Y-43948172D01*
X38112594Y-43954991D01*
X38112596Y-43954996D01*
X38118872Y-43965607D01*
X38127567Y-43983355D01*
X38135027Y-44002196D01*
X38139689Y-44008612D01*
X38139689Y-44008613D01*
X38161015Y-44037966D01*
X38167531Y-44047886D01*
X38176625Y-44063262D01*
X38190037Y-44085941D01*
X38204358Y-44100262D01*
X38217198Y-44115295D01*
X38229107Y-44131686D01*
X38235213Y-44136737D01*
X38263184Y-44159877D01*
X38271963Y-44167867D01*
X42394116Y-48290020D01*
X42428142Y-48352332D01*
X42431021Y-48379115D01*
X42431021Y-57054786D01*
X42411019Y-57122907D01*
X42357363Y-57169400D01*
X42287089Y-57179504D01*
X42238252Y-57161641D01*
X42135236Y-57097269D01*
X41878625Y-56983018D01*
X41608610Y-56905593D01*
X41604260Y-56904982D01*
X41604257Y-56904981D01*
X41501310Y-56890513D01*
X41330448Y-56866500D01*
X41119854Y-56866500D01*
X41117668Y-56866653D01*
X41117664Y-56866653D01*
X40914173Y-56880882D01*
X40914168Y-56880883D01*
X40909788Y-56881189D01*
X40635030Y-56939591D01*
X40630901Y-56941094D01*
X40630897Y-56941095D01*
X40375219Y-57034154D01*
X40375215Y-57034156D01*
X40371074Y-57035663D01*
X40123058Y-57167536D01*
X40119499Y-57170122D01*
X40119497Y-57170123D01*
X39921420Y-57314034D01*
X39895808Y-57332642D01*
X39892644Y-57335698D01*
X39892641Y-57335700D01*
X39804604Y-57420717D01*
X39693748Y-57527769D01*
X39520812Y-57749118D01*
X39518616Y-57752922D01*
X39518611Y-57752929D01*
X39458118Y-57857707D01*
X39406735Y-57906700D01*
X39337022Y-57920136D01*
X39271111Y-57893750D01*
X39229929Y-57835917D01*
X39222999Y-57794707D01*
X39222999Y-57580331D01*
X39222629Y-57573510D01*
X39217105Y-57522648D01*
X39213479Y-57507396D01*
X39168324Y-57386946D01*
X39159786Y-57371351D01*
X39083285Y-57269276D01*
X39070724Y-57256715D01*
X38968649Y-57180214D01*
X38953054Y-57171676D01*
X38832606Y-57126522D01*
X38817351Y-57122895D01*
X38766486Y-57117369D01*
X38759672Y-57117000D01*
X37712115Y-57117000D01*
X37696876Y-57121475D01*
X37695671Y-57122865D01*
X37694000Y-57130548D01*
X37694000Y-60614884D01*
X37698475Y-60630123D01*
X37699865Y-60631328D01*
X37707548Y-60632999D01*
X38587131Y-60632999D01*
X38655252Y-60653001D01*
X38701745Y-60706657D01*
X38711849Y-60776931D01*
X38699448Y-60816103D01*
X38658344Y-60896949D01*
X38658342Y-60896954D01*
X38655923Y-60901712D01*
X38635494Y-60967504D01*
X38589095Y-61116930D01*
X38589094Y-61116936D01*
X38587511Y-61122033D01*
X38557200Y-61350732D01*
X38565854Y-61581268D01*
X38613228Y-61807050D01*
X38615186Y-61812009D01*
X38615187Y-61812011D01*
X38643945Y-61884830D01*
X38697967Y-62021622D01*
X38817647Y-62218849D01*
X38821144Y-62222879D01*
X38899441Y-62313108D01*
X38968847Y-62393092D01*
X38972978Y-62396479D01*
X39143115Y-62535984D01*
X39143121Y-62535988D01*
X39147243Y-62539368D01*
X39347735Y-62653494D01*
X39352751Y-62655315D01*
X39352756Y-62655317D01*
X39559575Y-62730389D01*
X39559579Y-62730390D01*
X39564590Y-62732209D01*
X39569839Y-62733158D01*
X39569842Y-62733159D01*
X39787523Y-62772522D01*
X39787530Y-62772523D01*
X39791607Y-62773260D01*
X39809344Y-62774096D01*
X39814292Y-62774330D01*
X39814299Y-62774330D01*
X39815780Y-62774400D01*
X39977925Y-62774400D01*
X40044881Y-62768719D01*
X40144562Y-62760261D01*
X40144566Y-62760260D01*
X40149873Y-62759810D01*
X40155028Y-62758472D01*
X40155034Y-62758471D01*
X40368003Y-62703195D01*
X40368007Y-62703194D01*
X40373172Y-62701853D01*
X40378038Y-62699661D01*
X40378041Y-62699660D01*
X40578649Y-62609293D01*
X40583515Y-62607101D01*
X40587941Y-62604121D01*
X40587945Y-62604119D01*
X40706916Y-62524023D01*
X40774594Y-62502572D01*
X40843126Y-62521115D01*
X40866378Y-62539448D01*
X42394116Y-64067186D01*
X42428142Y-64129498D01*
X42431021Y-64156281D01*
X42431021Y-76104786D01*
X42411019Y-76172907D01*
X42357363Y-76219400D01*
X42287089Y-76229504D01*
X42238252Y-76211641D01*
X42135236Y-76147269D01*
X41878625Y-76033018D01*
X41608610Y-75955593D01*
X41604260Y-75954982D01*
X41604257Y-75954981D01*
X41501310Y-75940513D01*
X41330448Y-75916500D01*
X41119854Y-75916500D01*
X41117668Y-75916653D01*
X41117664Y-75916653D01*
X40914173Y-75930882D01*
X40914168Y-75930883D01*
X40909788Y-75931189D01*
X40635030Y-75989591D01*
X40630901Y-75991094D01*
X40630897Y-75991095D01*
X40375219Y-76084154D01*
X40375215Y-76084156D01*
X40371074Y-76085663D01*
X40123058Y-76217536D01*
X40119499Y-76220122D01*
X40119497Y-76220123D01*
X40014895Y-76296121D01*
X39895808Y-76382642D01*
X39892644Y-76385698D01*
X39892641Y-76385700D01*
X39803865Y-76471431D01*
X39693748Y-76577769D01*
X39520812Y-76799118D01*
X39518616Y-76802922D01*
X39518611Y-76802929D01*
X39458118Y-76907707D01*
X39406735Y-76956700D01*
X39337022Y-76970136D01*
X39271111Y-76943750D01*
X39229929Y-76885917D01*
X39222999Y-76844707D01*
X39222999Y-76630331D01*
X39222629Y-76623510D01*
X39217105Y-76572648D01*
X39213479Y-76557396D01*
X39168324Y-76436946D01*
X39159786Y-76421351D01*
X39083285Y-76319276D01*
X39070724Y-76306715D01*
X38968649Y-76230214D01*
X38953054Y-76221676D01*
X38832606Y-76176522D01*
X38817351Y-76172895D01*
X38766486Y-76167369D01*
X38759672Y-76167000D01*
X37712115Y-76167000D01*
X37696876Y-76171475D01*
X37695671Y-76172865D01*
X37694000Y-76180548D01*
X37694000Y-79664884D01*
X37186000Y-79664884D01*
X37186000Y-78197115D01*
X37181525Y-78181876D01*
X37180135Y-78180671D01*
X37172452Y-78179000D01*
X35675116Y-78179000D01*
X35659877Y-78183475D01*
X35658672Y-78184865D01*
X35657001Y-78192548D01*
X35657001Y-79219669D01*
X26508000Y-79219669D01*
X26508000Y-77652885D01*
X35657000Y-77652885D01*
X35661475Y-77668124D01*
X35662865Y-77669329D01*
X35670548Y-77671000D01*
X37167885Y-77671000D01*
X37183124Y-77666525D01*
X37184329Y-77665135D01*
X37186000Y-77657452D01*
X37186000Y-76185116D01*
X37181525Y-76169877D01*
X37180135Y-76168672D01*
X37172452Y-76167001D01*
X36120331Y-76167001D01*
X36113510Y-76167371D01*
X36062648Y-76172895D01*
X36047396Y-76176521D01*
X35926946Y-76221676D01*
X35911351Y-76230214D01*
X35809276Y-76306715D01*
X35796715Y-76319276D01*
X35720214Y-76421351D01*
X35711676Y-76436946D01*
X35666522Y-76557394D01*
X35662895Y-76572649D01*
X35657369Y-76623514D01*
X35657000Y-76630328D01*
X35657000Y-77652885D01*
X26508000Y-77652885D01*
X26508000Y-60169669D01*
X35657001Y-60169669D01*
X35657371Y-60176490D01*
X35662895Y-60227352D01*
X35666521Y-60242604D01*
X35711676Y-60363054D01*
X35720214Y-60378649D01*
X35796715Y-60480724D01*
X35809276Y-60493285D01*
X35911351Y-60569786D01*
X35926946Y-60578324D01*
X36047394Y-60623478D01*
X36062649Y-60627105D01*
X36113514Y-60632631D01*
X36120328Y-60633000D01*
X37167885Y-60633000D01*
X37183124Y-60628525D01*
X37184329Y-60627135D01*
X37186000Y-60619452D01*
X37186000Y-59147115D01*
X37181525Y-59131876D01*
X37180135Y-59130671D01*
X37172452Y-59129000D01*
X35675116Y-59129000D01*
X35659877Y-59133475D01*
X35658672Y-59134865D01*
X35657001Y-59142548D01*
X35657001Y-60169669D01*
X26508000Y-60169669D01*
X26508000Y-58602885D01*
X35657000Y-58602885D01*
X35661475Y-58618124D01*
X35662865Y-58619329D01*
X35670548Y-58621000D01*
X37167885Y-58621000D01*
X37183124Y-58616525D01*
X37184329Y-58615135D01*
X37186000Y-58607452D01*
X37186000Y-57135116D01*
X37181525Y-57119877D01*
X37180135Y-57118672D01*
X37172452Y-57117001D01*
X36120331Y-57117001D01*
X36113510Y-57117371D01*
X36062648Y-57122895D01*
X36047396Y-57126521D01*
X35926946Y-57171676D01*
X35911351Y-57180214D01*
X35809276Y-57256715D01*
X35796715Y-57269276D01*
X35720214Y-57371351D01*
X35711676Y-57386946D01*
X35666522Y-57507394D01*
X35662895Y-57522649D01*
X35657369Y-57573514D01*
X35657000Y-57580328D01*
X35657000Y-58602885D01*
X26508000Y-58602885D01*
X26508000Y-41754669D01*
X35657001Y-41754669D01*
X35657371Y-41761490D01*
X35662895Y-41812352D01*
X35666521Y-41827604D01*
X35711676Y-41948054D01*
X35720214Y-41963649D01*
X35796715Y-42065724D01*
X35809276Y-42078285D01*
X35911351Y-42154786D01*
X35926946Y-42163324D01*
X36047394Y-42208478D01*
X36062649Y-42212105D01*
X36113514Y-42217631D01*
X36120328Y-42218000D01*
X37167885Y-42218000D01*
X37183124Y-42213525D01*
X37184329Y-42212135D01*
X37186000Y-42204452D01*
X37186000Y-40732115D01*
X37181525Y-40716876D01*
X37180135Y-40715671D01*
X37172452Y-40714000D01*
X35675116Y-40714000D01*
X35659877Y-40718475D01*
X35658672Y-40719865D01*
X35657001Y-40727548D01*
X35657001Y-41754669D01*
X26508000Y-41754669D01*
X26508000Y-40187885D01*
X35657000Y-40187885D01*
X35661475Y-40203124D01*
X35662865Y-40204329D01*
X35670548Y-40206000D01*
X37167885Y-40206000D01*
X37183124Y-40201525D01*
X37184329Y-40200135D01*
X37186000Y-40192452D01*
X37186000Y-38720116D01*
X37181525Y-38704877D01*
X37180135Y-38703672D01*
X37172452Y-38702001D01*
X36120331Y-38702001D01*
X36113510Y-38702371D01*
X36062648Y-38707895D01*
X36047396Y-38711521D01*
X35926946Y-38756676D01*
X35911351Y-38765214D01*
X35809276Y-38841715D01*
X35796715Y-38854276D01*
X35720214Y-38956351D01*
X35711676Y-38971946D01*
X35666522Y-39092394D01*
X35662895Y-39107649D01*
X35657369Y-39158514D01*
X35657000Y-39165328D01*
X35657000Y-40187885D01*
X26508000Y-40187885D01*
X26508000Y-32086423D01*
X28278703Y-32086423D01*
X28286227Y-32096854D01*
X28425483Y-32209020D01*
X28431657Y-32213408D01*
X28702271Y-32382178D01*
X28708931Y-32385794D01*
X28997852Y-32520827D01*
X29004905Y-32523620D01*
X29307970Y-32622970D01*
X29315282Y-32624888D01*
X29628092Y-32687109D01*
X29635590Y-32688137D01*
X29953610Y-32712328D01*
X29961173Y-32712446D01*
X30279785Y-32698257D01*
X30287326Y-32697465D01*
X30601924Y-32645101D01*
X30609302Y-32643411D01*
X30915355Y-32553625D01*
X30922450Y-32551071D01*
X31215496Y-32425169D01*
X31222263Y-32421765D01*
X31498042Y-32261580D01*
X31504349Y-32257390D01*
X31714305Y-32098889D01*
X31722761Y-32087496D01*
X31716045Y-32075256D01*
X30012810Y-30372020D01*
X29998869Y-30364408D01*
X29997034Y-30364539D01*
X29990420Y-30368790D01*
X28285818Y-32073393D01*
X28278703Y-32086423D01*
X26508000Y-32086423D01*
X26508000Y-29975383D01*
X27287388Y-29975383D01*
X27303245Y-30293914D01*
X27304076Y-30301443D01*
X27358085Y-30615759D01*
X27359818Y-30623146D01*
X27451196Y-30928695D01*
X27453799Y-30935808D01*
X27581227Y-31228173D01*
X27584669Y-31234929D01*
X27746296Y-31509865D01*
X27750519Y-31516150D01*
X27901463Y-31713934D01*
X27912989Y-31722396D01*
X27925054Y-31715735D01*
X29627980Y-30012810D01*
X29634357Y-30001131D01*
X30364408Y-30001131D01*
X30364539Y-30002966D01*
X30368790Y-30009580D01*
X32073285Y-31714074D01*
X32086408Y-31721240D01*
X32096709Y-31713851D01*
X32200751Y-31586055D01*
X32205164Y-31579914D01*
X32375349Y-31310187D01*
X32379005Y-31303536D01*
X32515544Y-31015335D01*
X32518375Y-31008295D01*
X32619306Y-30705767D01*
X32621270Y-30698433D01*
X32642476Y-30594669D01*
X38802001Y-30594669D01*
X38802371Y-30601490D01*
X38807895Y-30652352D01*
X38811521Y-30667604D01*
X38856676Y-30788054D01*
X38865214Y-30803649D01*
X38941715Y-30905724D01*
X38954276Y-30918285D01*
X39056351Y-30994786D01*
X39071946Y-31003324D01*
X39192394Y-31048478D01*
X39207649Y-31052105D01*
X39258514Y-31057631D01*
X39265328Y-31058000D01*
X39887885Y-31058000D01*
X39903124Y-31053525D01*
X39904329Y-31052135D01*
X39906000Y-31044452D01*
X39906000Y-29972115D01*
X39901525Y-29956876D01*
X39900135Y-29955671D01*
X39892452Y-29954000D01*
X38820116Y-29954000D01*
X38804877Y-29958475D01*
X38803672Y-29959865D01*
X38802001Y-29967548D01*
X38802001Y-30594669D01*
X32642476Y-30594669D01*
X32685122Y-30385989D01*
X32686194Y-30378465D01*
X32712173Y-30059051D01*
X32712378Y-30054576D01*
X32712927Y-30002221D01*
X32712817Y-29997789D01*
X32693529Y-29677853D01*
X32692621Y-29670351D01*
X32648339Y-29427885D01*
X38802000Y-29427885D01*
X38806475Y-29443124D01*
X38807865Y-29444329D01*
X38815548Y-29446000D01*
X39887885Y-29446000D01*
X39903124Y-29441525D01*
X39904329Y-29440135D01*
X39906000Y-29432452D01*
X39906000Y-28360116D01*
X39901525Y-28344877D01*
X39900135Y-28343672D01*
X39892452Y-28342001D01*
X39265331Y-28342001D01*
X39258510Y-28342371D01*
X39207648Y-28347895D01*
X39192396Y-28351521D01*
X39071946Y-28396676D01*
X39056351Y-28405214D01*
X38954276Y-28481715D01*
X38941715Y-28494276D01*
X38865214Y-28596351D01*
X38856676Y-28611946D01*
X38811522Y-28732394D01*
X38807895Y-28747649D01*
X38802369Y-28798514D01*
X38802000Y-28805328D01*
X38802000Y-29427885D01*
X32648339Y-29427885D01*
X32635319Y-29356593D01*
X32633518Y-29349260D01*
X32538935Y-29044655D01*
X32536263Y-29037583D01*
X32405781Y-28746570D01*
X32402264Y-28739843D01*
X32237771Y-28466621D01*
X32233481Y-28460377D01*
X32097991Y-28286647D01*
X32086199Y-28278178D01*
X32074486Y-28284725D01*
X30372020Y-29987190D01*
X30364408Y-30001131D01*
X29634357Y-30001131D01*
X29635592Y-29998869D01*
X29635461Y-29997034D01*
X29631210Y-29990420D01*
X27926445Y-28285656D01*
X27913510Y-28278592D01*
X27902949Y-28286252D01*
X27782766Y-28437072D01*
X27778410Y-28443270D01*
X27611059Y-28714764D01*
X27607479Y-28721440D01*
X27473956Y-29011074D01*
X27471206Y-29018125D01*
X27373444Y-29321708D01*
X27371561Y-29329041D01*
X27310979Y-29642170D01*
X27309992Y-29649670D01*
X27287467Y-29967802D01*
X27287388Y-29975383D01*
X26508000Y-29975383D01*
X26508000Y-27913423D01*
X28277917Y-27913423D01*
X28284520Y-27925309D01*
X29987190Y-29627980D01*
X30001131Y-29635592D01*
X30002966Y-29635461D01*
X30009580Y-29631210D01*
X31714559Y-27926230D01*
X31721552Y-27913423D01*
X58277917Y-27913423D01*
X58284520Y-27925309D01*
X59987190Y-29627980D01*
X60001131Y-29635592D01*
X60002966Y-29635461D01*
X60009580Y-29631210D01*
X61714559Y-27926230D01*
X61721571Y-27913389D01*
X61713777Y-27902701D01*
X61551298Y-27774613D01*
X61545075Y-27770288D01*
X61272702Y-27604357D01*
X61266025Y-27600822D01*
X60975686Y-27468813D01*
X60968616Y-27466099D01*
X60664537Y-27369932D01*
X60657186Y-27368085D01*
X60343746Y-27309142D01*
X60336237Y-27308194D01*
X60017989Y-27287335D01*
X60010424Y-27287295D01*
X59691964Y-27304821D01*
X59684450Y-27305690D01*
X59370405Y-27361348D01*
X59363044Y-27363115D01*
X59057980Y-27456092D01*
X59050860Y-27458740D01*
X58759182Y-27587690D01*
X58752445Y-27591167D01*
X58478355Y-27754233D01*
X58472091Y-27758490D01*
X58286385Y-27901762D01*
X58277917Y-27913423D01*
X31721552Y-27913423D01*
X31721571Y-27913389D01*
X31713777Y-27902701D01*
X31551298Y-27774613D01*
X31545075Y-27770288D01*
X31272702Y-27604357D01*
X31266025Y-27600822D01*
X30975686Y-27468813D01*
X30968616Y-27466099D01*
X30664537Y-27369932D01*
X30657186Y-27368085D01*
X30343746Y-27309142D01*
X30336237Y-27308194D01*
X30017989Y-27287335D01*
X30010424Y-27287295D01*
X29691964Y-27304821D01*
X29684450Y-27305690D01*
X29370405Y-27361348D01*
X29363044Y-27363115D01*
X29057980Y-27456092D01*
X29050860Y-27458740D01*
X28759182Y-27587690D01*
X28752445Y-27591167D01*
X28478355Y-27754233D01*
X28472091Y-27758490D01*
X28286385Y-27901762D01*
X28277917Y-27913423D01*
X26508000Y-27913423D01*
X26508000Y-26634000D01*
X26528002Y-26565879D01*
X26581658Y-26519386D01*
X26634000Y-26508000D01*
X63366000Y-26508000D01*
X63434121Y-26528002D01*
G37*
%TD.AperFunction*%
%TD*%
M02*
